{"glyphs":{"0":{"ha":956,"x_min":136,"x_max":821,"o":"m 373 122 l 583 122 q 685 237 685 122 l 685 787 q 583 902 685 902 l 373 902 q 271 787 271 902 l 271 237 q 373 122 271 122 m 373 0 q 136 237 136 0 l 136 787 q 373 1024 136 1024 l 583 1024 q 821 787 821 1024 l 821 237 q 583 0 821 0 l 373 0 z "},"1":{"ha":484,"x_min":14,"x_max":315,"o":"m 179 -27 l 179 863 l 14 772 l 14 911 l 308 1051 l 315 1051 l 315 34 l 186 -27 l 179 -27 z "},"2":{"ha":904,"x_min":102,"x_max":795,"o":"m 102 0 l 102 7 l 157 123 l 481 438 q 644 676 644 598 l 644 787 q 543 902 644 902 l 346 902 q 244 787 244 902 l 244 712 l 115 651 l 109 651 l 109 787 q 346 1024 109 1024 l 543 1024 q 780 787 780 1024 l 780 669 q 606 387 780 541 l 320 123 l 795 123 l 795 117 l 741 0 l 102 0 z "},"3":{"ha":902,"x_min":109,"x_max":793,"o":"m 346 0 q 109 237 109 0 l 109 312 l 237 373 l 244 373 l 244 237 q 346 122 244 122 l 556 122 q 658 237 658 122 l 658 395 q 556 510 658 510 q 316 510 556 510 l 524 901 l 169 901 l 169 907 l 224 1024 l 734 1024 l 509 632 l 556 632 q 793 395 793 632 l 793 237 q 556 0 793 0 l 346 0 z "},"4":{"ha":806,"x_min":3,"x_max":738,"o":"m 500 366 l 500 804 l 205 366 l 500 366 m 500 -27 l 500 243 l 3 243 l 3 250 l 58 366 l 500 990 l 629 1051 l 636 1051 l 636 366 l 738 366 l 738 359 l 683 243 l 636 243 l 636 34 l 507 -27 l 500 -27 z "},"5":{"ha":902,"x_min":109,"x_max":793,"o":"m 346 0 q 109 237 109 0 l 109 312 l 237 373 l 244 373 l 244 237 q 346 122 244 122 l 556 122 q 658 237 658 122 l 658 395 q 556 510 658 510 l 300 510 l 158 578 l 271 1024 l 741 1024 l 741 1017 l 686 901 l 374 901 l 305 632 l 556 632 q 793 395 793 632 l 793 237 q 556 0 793 0 l 346 0 z "},"6":{"ha":956,"x_min":136,"x_max":821,"o":"m 373 122 l 583 122 q 685 237 685 122 l 685 412 q 583 528 685 528 l 373 528 q 271 412 271 528 l 271 237 q 373 122 271 122 m 373 0 q 136 237 136 0 l 136 787 q 373 1024 136 1024 l 570 1024 q 807 787 807 1024 l 807 766 l 678 705 l 671 705 l 671 787 q 570 902 671 902 l 373 902 q 271 787 271 902 l 271 621 q 373 650 319 650 l 583 650 q 821 412 821 650 l 821 237 q 583 0 821 0 l 373 0 z "},"7":{"ha":710,"x_min":34,"x_max":676,"o":"m 311 -27 l 304 -27 l 182 31 l 492 901 l 34 901 l 34 907 l 89 1024 l 676 1024 l 676 1017 l 311 -27 z "},"8":{"ha":902,"x_min":109,"x_max":793,"o":"m 346 0 q 109 237 109 0 l 109 391 q 209 591 109 534 q 170 709 170 635 l 170 821 q 373 1024 170 1024 l 529 1024 q 732 821 732 1024 l 732 709 q 693 591 732 635 q 793 391 793 534 l 793 237 q 556 0 793 0 l 346 0 m 346 122 l 556 122 q 658 237 658 122 l 658 391 q 556 506 658 506 l 346 506 q 244 391 244 506 l 244 237 q 346 122 244 122 m 373 628 l 529 628 q 597 709 597 628 l 597 821 q 529 902 597 902 l 373 902 q 305 821 305 902 l 305 709 q 373 628 305 628 z "},"9":{"ha":956,"x_min":136,"x_max":821,"o":"m 373 496 l 583 496 q 685 612 685 496 l 685 787 q 583 902 685 902 l 373 902 q 271 787 271 902 l 271 612 q 373 496 271 496 m 387 0 q 149 237 149 0 l 149 258 l 278 319 l 285 319 l 285 237 q 387 122 285 122 l 583 122 q 685 237 685 122 l 685 403 q 583 374 637 374 l 373 374 q 136 612 136 374 l 136 787 q 373 1024 136 1024 l 583 1024 q 821 787 821 1024 l 821 237 q 583 0 821 0 l 387 0 z "}," ":{"ha":543,"x_min":0,"x_max":0,"o":""},"!":{"ha":407,"x_min":122,"x_max":285,"o":"m 146 11 q 134 23 146 11 q 122 70 122 35 q 146 128 122 104 q 203 153 170 153 q 261 128 237 153 q 285 70 285 104 q 261 11 285 35 q 203 -14 237 -14 q 146 11 170 -14 m 264 1051 l 271 1051 l 271 346 l 142 285 l 136 285 l 136 990 l 264 1051 z "},"\"":{"ha":507,"x_min":102,"x_max":405,"o":"m 398 1051 l 405 1051 l 405 723 l 299 673 l 292 673 l 292 1001 l 398 1051 m 208 1051 l 214 1051 l 214 723 l 109 673 l 102 673 l 102 1001 l 208 1051 z "},"#":{"ha":928,"x_min":102,"x_max":826,"o":"m 311 151 l 304 151 l 304 353 l 102 353 l 102 359 l 157 476 l 304 476 l 304 549 l 102 549 l 102 556 l 157 673 l 304 673 l 304 820 l 420 875 l 427 875 l 427 673 l 500 673 l 500 820 l 617 875 l 624 875 l 624 673 l 826 673 l 826 666 l 771 549 l 624 549 l 624 476 l 826 476 l 826 469 l 771 353 l 624 353 l 624 205 l 507 151 l 500 151 l 500 353 l 427 353 l 427 205 l 311 151 m 427 476 l 500 476 l 500 549 l 427 549 l 427 476 z "},"$":{"ha":902,"x_min":109,"x_max":793,"o":"m 346 0 q 109 237 109 0 l 109 312 l 237 373 l 244 373 l 244 237 q 346 122 244 122 l 412 122 l 412 495 l 373 495 q 170 699 170 495 l 170 821 q 373 1024 170 1024 l 412 1024 l 412 1153 l 484 1187 l 490 1187 l 490 1024 l 529 1024 q 732 821 732 1024 l 732 785 l 604 724 l 597 724 l 597 821 q 529 902 597 902 l 490 902 l 490 617 l 556 617 q 793 380 793 617 l 793 237 q 556 0 793 0 l 490 0 l 490 -129 l 418 -163 l 412 -163 l 412 0 l 346 0 m 412 617 l 412 902 l 373 902 q 305 821 305 902 l 305 699 q 373 617 305 617 l 412 617 m 490 495 l 490 122 l 556 122 q 658 237 658 122 l 658 380 q 556 495 658 495 l 490 495 z "},"%":{"ha":1454,"x_min":102,"x_max":1352,"o":"m 993 122 l 1149 122 q 1217 203 1217 122 l 1217 312 q 1149 393 1217 393 l 993 393 q 925 312 925 393 l 925 203 q 993 122 925 122 m 993 0 q 789 203 789 0 l 789 312 q 993 515 789 515 l 1149 515 q 1352 312 1352 515 l 1352 203 q 1149 0 1352 0 l 993 0 m 305 631 l 461 631 q 529 712 529 631 l 529 821 q 461 902 529 902 l 305 902 q 237 821 237 902 l 237 712 q 305 631 237 631 m 305 509 q 102 712 102 509 l 102 821 q 305 1024 102 1024 l 461 1024 q 665 821 665 1024 l 665 712 q 461 509 665 509 l 305 509 m 534 -27 l 439 19 l 920 1051 l 926 1051 l 1022 1005 l 541 -27 l 534 -27 z "},"&":{"ha":1166,"x_min":109,"x_max":1058,"o":"m 528 122 q 682 282 633 232 l 492 506 l 346 506 q 244 391 244 506 l 244 237 q 346 122 244 122 l 528 122 m 582 0 l 346 0 q 109 237 109 0 l 109 391 q 209 591 109 534 q 170 709 170 635 l 170 821 q 373 1024 170 1024 l 529 1024 q 732 821 732 1024 l 732 771 l 604 710 l 597 710 l 597 821 q 529 902 597 902 l 373 902 q 305 821 305 902 l 305 709 q 373 628 305 628 l 555 628 l 762 380 l 933 608 l 940 608 l 1057 552 l 841 283 l 1058 28 l 940 -27 l 933 -27 l 750 193 l 582 0 z "},"'":{"ha":316,"x_min":102,"x_max":214,"o":"m 208 1051 l 214 1051 l 214 723 l 109 673 l 102 673 l 102 1001 l 208 1051 z "},"(":{"ha":512,"x_min":136,"x_max":478,"o":"m 478 1187 l 478 1065 q 353 1042 410 1065 q 271 963 271 1010 l 271 61 q 353 -18 271 14 q 478 -41 410 -41 l 478 -163 q 290 -127 376 -163 q 136 61 136 -63 l 136 963 q 290 1151 136 1087 q 478 1187 376 1187 z "},")":{"ha":512,"x_min":34,"x_max":376,"o":"m 34 1187 q 222 1151 136 1187 q 376 963 376 1087 l 376 61 q 222 -127 376 -63 q 34 -163 136 -163 l 34 -41 q 159 -18 102 -41 q 241 61 241 14 l 241 963 q 159 1042 241 1010 q 34 1065 102 1065 l 34 1187 z "},"*":{"ha":802,"x_min":102,"x_max":701,"o":"m 463 1051 l 463 835 l 591 922 l 697 848 l 701 843 l 511 741 l 701 640 l 697 634 l 591 560 l 463 648 l 463 486 l 346 431 l 339 431 l 339 648 l 211 560 l 105 634 l 102 640 l 291 741 l 102 843 l 105 848 l 211 922 l 339 835 l 339 996 l 456 1051 l 463 1051 z "},"+":{"ha":823,"x_min":102,"x_max":722,"o":"m 473 822 l 473 574 l 722 574 l 722 567 l 667 450 l 473 450 l 473 257 l 357 202 l 350 202 l 350 450 l 102 450 l 102 457 l 157 574 l 350 574 l 350 767 l 467 822 l 473 822 z "},",":{"ha":413,"x_min":102,"x_max":311,"o":"m 231 189 l 237 189 q 311 23 311 116 q 145 -194 311 -106 l 116 -160 q 193 -14 193 -82 q 102 127 193 68 l 231 189 z "},"-":{"ha":823,"x_min":102,"x_max":722,"o":"m 102 450 l 102 457 l 157 574 l 722 574 l 722 567 l 667 450 l 102 450 z "},".":{"ha":407,"x_min":122,"x_max":285,"o":"m 146 11 q 134 23 146 11 q 122 70 122 35 q 146 128 122 104 q 203 153 170 153 q 261 128 237 153 q 285 70 285 104 q 261 11 285 35 q 203 -14 237 -14 q 146 11 170 -14 z "},"/":{"ha":661,"x_min":7,"x_max":654,"o":"m 102 -95 l 7 -49 l 551 1119 l 557 1119 l 654 1073 l 109 -95 l 102 -95 z "},":":{"ha":407,"x_min":122,"x_max":285,"o":"m 146 452 q 134 465 146 452 q 122 511 122 477 q 146 570 122 545 q 203 594 170 594 q 261 570 237 594 q 285 511 285 545 q 261 452 285 477 q 203 428 237 428 q 146 452 170 428 m 146 11 q 134 23 146 11 q 122 70 122 35 q 146 128 122 104 q 203 153 170 153 q 261 128 237 153 q 285 70 285 104 q 261 11 285 35 q 203 -14 237 -14 q 146 11 170 -14 z "},";":{"ha":407,"x_min":96,"x_max":305,"o":"m 139 -194 q 110 -160 139 -194 q 186 -14 186 -82 q 96 127 186 68 q 224 189 96 127 l 231 189 q 305 23 305 116 q 139 -194 305 -106 m 146 452 q 134 465 146 452 q 122 511 122 477 q 146 570 122 545 q 203 594 170 594 q 261 570 237 594 q 285 511 285 545 q 261 452 285 477 q 203 428 237 428 q 146 452 170 428 z "},"<":{"ha":907,"x_min":102,"x_max":772,"o":"m 102 450 l 102 457 l 157 574 l 716 812 l 772 695 l 772 688 l 308 500 l 772 313 l 772 306 l 716 189 l 102 450 z "},"=":{"ha":823,"x_min":102,"x_max":722,"o":"m 102 574 l 102 581 l 157 697 l 722 697 l 722 690 l 667 574 l 102 574 m 102 327 l 102 334 l 157 450 l 722 450 l 722 444 l 667 327 l 102 327 z "},">":{"ha":907,"x_min":136,"x_max":806,"o":"m 806 551 l 806 544 l 750 427 l 191 189 l 136 306 l 136 313 l 600 500 l 136 688 l 136 695 l 191 812 l 806 551 z "},"?":{"ha":888,"x_min":102,"x_max":787,"o":"m 102 651 l 102 787 q 339 1024 102 1024 l 549 1024 q 787 787 787 1024 l 787 712 q 557 401 787 545 q 496 308 498 364 l 365 245 l 358 245 q 477 490 359 417 q 651 713 651 597 l 651 787 q 549 902 651 902 l 339 902 q 237 787 237 902 l 237 712 l 109 651 l 102 651 m 380 11 q 368 23 380 11 q 356 70 356 35 q 380 128 356 104 q 437 153 404 153 q 495 128 471 153 q 519 70 519 104 q 495 11 519 35 q 437 -14 471 -14 q 380 11 404 -14 z "},"@":{"ha":929,"x_min":122,"x_max":807,"o":"m 535 0 q 332 203 332 0 l 332 254 q 535 457 332 457 l 604 457 q 671 450 641 457 l 671 543 q 604 624 671 624 l 359 624 q 258 509 258 624 l 258 -41 q 359 -156 258 -156 l 543 -156 l 543 -278 l 359 -278 q 122 -41 122 -278 l 122 509 q 359 746 122 746 l 604 746 q 807 543 807 746 l 807 34 l 678 -27 l 671 -27 l 671 7 q 604 0 641 0 l 535 0 m 535 122 l 604 122 q 671 203 671 122 l 671 254 q 604 335 671 335 l 535 335 q 467 254 467 335 l 467 203 q 535 122 467 122 z "},"A":{"ha":956,"x_min":136,"x_max":821,"o":"m 136 -27 l 136 787 q 373 1024 136 1024 l 583 1024 q 821 787 821 1024 l 821 34 l 692 -27 l 685 -27 l 685 450 l 271 450 l 271 34 l 142 -27 l 136 -27 m 271 574 l 685 574 l 685 787 q 583 902 685 902 l 373 902 q 271 787 271 902 l 271 574 z "},"B":{"ha":929,"x_min":136,"x_max":807,"o":"m 136 0 l 136 990 l 208 1024 l 543 1024 q 746 821 746 1024 l 746 709 q 707 591 746 635 q 807 391 807 534 l 807 237 q 570 0 807 0 l 136 0 m 271 122 l 570 122 q 671 237 671 122 l 671 391 q 570 506 671 506 l 271 506 l 271 122 m 271 628 l 543 628 q 610 709 610 628 l 610 821 q 543 902 610 902 l 271 902 l 271 628 z "},"C":{"ha":956,"x_min":136,"x_max":821,"o":"m 373 0 q 136 237 136 0 l 136 787 q 373 1024 136 1024 l 583 1024 q 821 787 821 1024 l 821 712 l 692 651 l 685 651 l 685 787 q 583 902 685 902 l 373 902 q 271 787 271 902 l 271 237 q 373 122 271 122 l 583 122 q 685 237 685 122 l 685 312 l 814 373 l 821 373 l 821 237 q 583 0 821 0 l 373 0 z "},"D":{"ha":943,"x_min":136,"x_max":807,"o":"m 271 122 l 570 122 q 671 237 671 122 l 671 787 q 570 902 671 902 l 271 902 l 271 122 m 136 0 l 136 990 l 208 1024 l 570 1024 q 807 787 807 1024 l 807 237 q 570 0 807 0 l 136 0 z "},"E":{"ha":785,"x_min":136,"x_max":751,"o":"m 136 0 l 136 990 l 208 1024 l 637 1024 l 637 1017 l 583 901 l 271 901 l 271 574 l 637 574 l 637 567 l 583 450 l 271 450 l 271 123 l 751 123 l 751 117 l 696 0 l 136 0 z "},"F":{"ha":760,"x_min":136,"x_max":637,"o":"m 136 -27 l 136 990 l 208 1024 l 637 1024 l 637 1017 l 583 901 l 271 901 l 271 574 l 637 574 l 637 567 l 583 450 l 271 450 l 271 34 l 142 -27 l 136 -27 z "},"G":{"ha":956,"x_min":136,"x_max":821,"o":"m 373 0 q 136 237 136 0 l 136 787 q 373 1024 136 1024 l 583 1024 q 821 787 821 1024 l 821 712 l 692 651 l 685 651 l 685 787 q 583 902 685 902 l 373 902 q 271 787 271 902 l 271 237 q 373 122 271 122 l 583 122 q 685 237 685 122 l 685 450 l 449 450 l 449 457 l 504 574 l 821 574 l 821 237 q 583 0 821 0 l 373 0 z "},"H":{"ha":943,"x_min":136,"x_max":807,"o":"m 136 -27 l 136 990 l 264 1051 l 271 1051 l 271 574 l 671 574 l 671 990 l 800 1051 l 807 1051 l 807 34 l 678 -27 l 671 -27 l 671 450 l 271 450 l 271 34 l 142 -27 l 136 -27 z "},"I":{"ha":407,"x_min":136,"x_max":271,"o":"m 136 -27 l 136 990 l 264 1051 l 271 1051 l 271 34 l 142 -27 l 136 -27 z "},"J":{"ha":861,"x_min":54,"x_max":726,"o":"m 292 0 q 54 237 54 0 l 54 312 l 183 373 l 190 373 l 190 237 q 292 122 190 122 l 488 122 q 590 237 590 122 l 590 901 l 201 901 l 201 907 l 256 1024 l 726 1024 l 726 237 q 488 0 726 0 l 292 0 z "},"K":{"ha":922,"x_min":136,"x_max":800,"o":"m 136 -27 l 136 355 l 136 990 l 264 1051 l 271 1051 l 271 578 q 304 586 287 583 l 640 1051 l 646 1051 l 766 995 l 463 592 l 563 592 q 800 355 800 592 l 800 34 l 671 -27 l 665 -27 l 665 355 q 563 470 665 470 l 373 470 q 271 355 271 470 l 271 34 l 142 -27 l 136 -27 z "},"L":{"ha":739,"x_min":136,"x_max":736,"o":"m 136 0 l 136 990 l 264 1051 l 271 1051 l 271 123 l 736 123 l 736 117 l 681 0 l 136 0 z "},"M":{"ha":1506,"x_min":136,"x_max":1370,"o":"m 136 -27 l 136 787 q 373 1024 136 1024 l 583 1024 q 753 959 705 1024 q 922 1024 807 1024 l 1133 1024 q 1370 787 1370 1024 l 1370 34 l 1241 -27 l 1234 -27 l 1234 787 q 1133 902 1234 902 l 922 902 q 821 787 821 902 l 821 34 l 692 -27 l 685 -27 l 685 787 q 583 902 685 902 l 373 902 q 271 787 271 902 l 271 34 l 142 -27 l 136 -27 z "},"N":{"ha":956,"x_min":136,"x_max":821,"o":"m 136 -27 l 136 787 q 373 1024 136 1024 l 583 1024 q 821 787 821 1024 l 821 34 l 692 -27 l 685 -27 l 685 787 q 583 902 685 902 l 373 902 q 271 787 271 902 l 271 34 l 142 -27 l 136 -27 z "},"O":{"ha":956,"x_min":136,"x_max":821,"o":"m 373 122 l 583 122 q 685 237 685 122 l 685 787 q 583 902 685 902 l 373 902 q 271 787 271 902 l 271 237 q 373 122 271 122 m 373 0 q 136 237 136 0 l 136 787 q 373 1024 136 1024 l 583 1024 q 821 787 821 1024 l 821 237 q 583 0 821 0 l 373 0 z "},"P":{"ha":909,"x_min":136,"x_max":807,"o":"m 136 -27 l 136 990 l 208 1024 l 570 1024 q 807 787 807 1024 l 807 583 q 570 346 807 346 l 271 346 l 271 34 l 142 -27 l 136 -27 m 271 902 l 271 468 l 570 468 q 671 583 671 468 l 671 787 q 570 902 671 902 l 271 902 z "},"Q":{"ha":956,"x_min":136,"x_max":821,"o":"m 428 309 l 547 365 l 554 365 l 679 186 q 685 237 685 208 l 685 787 q 583 902 685 902 l 373 902 q 271 787 271 902 l 271 237 q 373 122 271 122 l 558 122 l 428 309 m 373 0 q 136 237 136 0 l 136 787 q 373 1024 136 1024 l 583 1024 q 821 787 821 1024 l 821 237 q 765 63 821 123 l 789 29 l 669 -27 l 663 -27 l 641 4 q 583 0 614 0 l 373 0 z "},"R":{"ha":925,"x_min":136,"x_max":823,"o":"m 271 902 l 271 468 l 570 468 q 671 583 671 468 l 671 787 q 570 902 671 902 l 271 902 m 136 -27 l 136 990 l 208 1024 l 570 1024 q 807 787 807 1024 l 807 583 q 602 347 807 362 l 823 29 l 704 -27 l 697 -27 l 436 346 l 271 346 l 271 34 l 142 -27 l 136 -27 z "},"S":{"ha":902,"x_min":109,"x_max":793,"o":"m 346 0 q 109 237 109 0 l 109 312 l 237 373 l 244 373 l 244 237 q 346 122 244 122 l 556 122 q 658 237 658 122 l 658 380 q 556 495 658 495 l 373 495 q 170 699 170 495 l 170 821 q 373 1024 170 1024 l 529 1024 q 732 821 732 1024 l 732 785 l 604 724 l 597 724 l 597 821 q 529 902 597 902 l 373 902 q 305 821 305 902 l 305 699 q 373 617 305 617 l 556 617 q 793 380 793 617 l 793 237 q 556 0 793 0 l 346 0 z "},"T":{"ha":723,"x_min":3,"x_max":720,"o":"m 294 -27 l 294 901 l 3 901 l 3 907 l 58 1024 l 720 1024 l 720 1017 l 665 901 l 429 901 l 429 34 l 300 -27 l 294 -27 z "},"U":{"ha":956,"x_min":136,"x_max":821,"o":"m 373 0 q 136 237 136 0 l 136 990 l 264 1051 l 271 1051 l 271 237 q 373 122 271 122 l 583 122 q 685 237 685 122 l 685 990 l 814 1051 l 821 1051 l 821 237 q 583 0 821 0 l 373 0 z "},"V":{"ha":801,"x_min":3,"x_max":798,"o":"m 349 -27 l 3 996 l 121 1051 l 127 1051 l 408 199 l 673 1051 l 680 1051 l 798 996 l 473 28 l 356 -27 l 349 -27 z "},"W":{"ha":1506,"x_min":136,"x_max":1370,"o":"m 373 0 q 136 237 136 0 l 136 990 l 264 1051 l 271 1051 l 271 237 q 373 122 271 122 l 583 122 q 685 237 685 122 l 685 990 l 814 1051 l 821 1051 l 821 237 q 922 122 821 122 l 1133 122 q 1234 237 1234 122 l 1234 990 l 1363 1051 l 1370 1051 l 1370 237 q 1133 0 1370 0 l 922 0 q 753 65 800 0 q 583 0 699 0 l 373 0 z "},"X":{"ha":867,"x_min":68,"x_max":799,"o":"m 186 -27 l 68 28 l 354 512 l 68 995 l 186 1051 l 193 1051 l 433 632 l 673 1051 l 680 1051 l 799 995 l 513 512 l 799 28 l 681 -27 l 674 -27 l 433 392 l 193 -27 l 186 -27 z "},"Y":{"ha":888,"x_min":102,"x_max":787,"o":"m 376 -27 l 376 327 l 339 327 q 102 564 102 327 l 102 990 l 231 1051 l 237 1051 l 237 564 q 339 449 237 449 l 549 449 q 651 564 651 449 l 651 990 l 780 1051 l 787 1051 l 787 564 q 549 327 787 327 l 512 327 l 512 34 l 383 -27 l 376 -27 z "},"Z":{"ha":859,"x_min":102,"x_max":758,"o":"m 102 0 l 102 7 l 541 901 l 109 901 l 109 907 l 163 1024 l 751 1024 l 751 1017 l 310 123 l 758 123 l 758 117 l 703 0 l 102 0 z "},"[":{"ha":586,"x_min":136,"x_max":552,"o":"m 136 -163 l 136 1126 l 264 1187 l 552 1187 l 552 1180 l 511 1092 l 271 1092 l 271 -68 l 552 -68 l 552 -75 l 511 -163 l 136 -163 z "},"\\":{"ha":661,"x_min":7,"x_max":654,"o":"m 551 -95 l 7 1073 l 102 1119 l 109 1119 l 654 -49 l 557 -95 l 551 -95 z "},"]":{"ha":586,"x_min":34,"x_max":450,"o":"m 34 -163 l 34 -156 l 75 -68 l 315 -68 l 315 1092 l 34 1092 l 34 1099 l 75 1187 l 450 1187 l 450 -102 l 321 -163 l 34 -163 z "},"^":{"ha":896,"x_min":102,"x_max":794,"o":"m 102 738 l 358 996 l 475 1051 l 482 1051 l 794 738 l 677 682 l 670 682 l 447 901 l 226 682 l 219 682 l 102 738 z "},"_":{"ha":823,"x_min":102,"x_max":722,"o":"m 102 -278 l 102 -271 l 157 -155 l 722 -155 l 722 -161 l 667 -278 l 102 -278 z "},"`":{"ha":439,"x_min":102,"x_max":338,"o":"m 221 1051 l 228 1051 l 338 817 l 258 780 l 252 780 l 102 994 l 221 1051 z "},"a":{"ha":719,"x_min":68,"x_max":617,"o":"m 271 122 l 414 122 q 481 203 481 122 l 481 296 q 414 378 481 378 l 271 378 q 203 296 203 378 l 203 203 q 271 122 203 122 m 271 0 q 68 203 68 0 l 68 296 q 271 500 68 500 l 414 500 q 481 479 449 500 l 481 543 q 414 624 481 624 l 171 624 l 171 631 l 225 746 l 414 746 q 617 543 617 746 l 617 34 l 488 -27 l 481 -27 l 481 20 q 414 0 456 0 l 271 0 z "},"b":{"ha":800,"x_min":136,"x_max":699,"o":"m 339 122 l 495 122 q 563 203 563 122 l 563 543 q 495 624 563 624 l 339 624 q 271 543 271 624 l 271 203 q 339 122 271 122 m 339 0 q 136 203 136 0 l 136 990 l 264 1051 l 271 1051 l 271 725 q 339 746 298 746 l 495 746 q 699 543 699 746 l 699 203 q 495 0 699 0 l 339 0 z "},"c":{"ha":766,"x_min":102,"x_max":665,"o":"m 305 0 q 102 203 102 0 l 102 543 q 305 746 102 746 l 461 746 q 665 543 665 746 l 665 507 l 536 446 l 529 446 l 529 543 q 461 624 529 624 l 305 624 q 237 543 237 624 l 237 203 q 305 122 237 122 l 461 122 q 529 203 529 122 l 529 239 l 658 300 l 665 300 l 665 203 q 461 0 665 0 l 305 0 z "},"d":{"ha":800,"x_min":102,"x_max":665,"o":"m 305 0 q 102 203 102 0 l 102 543 q 305 746 102 746 l 461 746 q 529 725 507 746 l 529 990 l 658 1051 l 665 1051 l 665 203 q 461 0 665 0 l 305 0 m 305 122 l 461 122 q 529 203 529 122 l 529 543 q 461 624 529 624 l 305 624 q 237 543 237 624 l 237 203 q 305 122 237 122 z "},"e":{"ha":766,"x_min":102,"x_max":665,"o":"m 305 0 q 102 203 102 0 l 102 543 q 305 746 102 746 l 461 746 q 665 543 665 746 l 665 507 l 239 178 q 305 122 249 122 l 461 122 q 529 203 529 122 l 529 239 l 658 300 l 665 300 l 665 203 q 461 0 665 0 l 305 0 m 237 319 l 528 554 q 461 624 524 624 l 305 624 q 237 543 237 624 l 237 319 z "},"f":{"ha":576,"x_min":34,"x_max":509,"o":"m 136 -27 l 136 555 l 34 555 l 34 562 l 89 678 l 136 678 l 136 821 q 339 1024 136 1024 l 509 1024 l 509 1017 l 454 902 l 339 902 q 271 821 271 902 l 271 678 l 496 678 l 496 671 l 441 555 l 271 555 l 271 34 l 142 -27 l 136 -27 z "},"g":{"ha":787,"x_min":102,"x_max":665,"o":"m 305 0 q 102 203 102 0 l 102 543 q 305 746 102 746 l 461 746 q 665 543 665 746 l 665 -75 q 461 -278 665 -278 l 172 -278 l 172 -271 l 227 -156 l 461 -156 q 529 -75 529 -156 l 529 20 q 461 0 500 0 l 305 0 m 305 122 l 461 122 q 529 203 529 122 l 529 543 q 461 624 529 624 l 305 624 q 237 543 237 624 l 237 203 q 305 122 237 122 z "},"h":{"ha":800,"x_min":136,"x_max":699,"o":"m 136 -27 l 136 990 l 264 1051 l 271 1051 l 271 725 q 339 746 301 746 l 495 746 q 699 543 699 746 l 699 34 l 570 -27 l 563 -27 l 563 543 q 495 624 563 624 l 339 624 q 271 543 271 624 l 271 34 l 142 -27 l 136 -27 z "},"i":{"ha":407,"x_min":122,"x_max":285,"o":"m 146 896 q 134 908 146 896 q 122 955 122 920 q 146 1013 122 989 q 203 1038 170 1038 q 261 1013 237 1038 q 285 955 285 989 q 261 896 285 920 q 203 871 237 871 q 146 896 170 871 m 136 -27 l 136 712 l 264 773 l 271 773 l 271 34 l 142 -27 l 136 -27 z "},"j":{"ha":407,"x_min":0,"x_max":285,"o":"m 0 -278 l 0 -271 l 54 -156 l 68 -156 q 136 -75 136 -156 l 136 712 l 264 773 l 271 773 l 271 -75 q 68 -278 271 -278 l 0 -278 m 146 896 q 134 908 146 896 q 122 955 122 920 q 146 1013 122 989 q 203 1038 170 1038 q 261 1013 237 1038 q 285 955 285 989 q 261 896 285 920 q 203 871 237 871 q 146 896 170 871 z "},"k":{"ha":800,"x_min":136,"x_max":699,"o":"m 136 -27 l 136 990 l 264 1051 l 271 1051 l 271 502 q 290 505 280 504 l 555 773 l 562 773 l 681 717 l 454 509 l 495 509 q 699 305 699 509 l 699 34 l 570 -27 l 563 -27 l 563 305 q 495 387 563 387 l 339 387 q 271 305 271 387 l 271 34 l 142 -27 l 136 -27 z "},"l":{"ha":407,"x_min":136,"x_max":271,"o":"m 136 -27 l 136 990 l 264 1051 l 271 1051 l 271 34 l 142 -27 l 136 -27 z "},"m":{"ha":1194,"x_min":102,"x_max":1092,"o":"m 102 -27 l 102 543 q 305 746 102 746 l 461 746 q 597 696 555 746 q 732 746 642 746 l 888 746 q 1092 543 1092 746 l 1092 34 l 963 -27 l 956 -27 l 956 543 q 888 624 956 624 l 732 624 q 665 543 665 624 l 665 34 l 536 -27 l 529 -27 l 529 543 q 461 624 529 624 l 305 624 q 237 543 237 624 l 237 34 l 109 -27 l 102 -27 z "},"n":{"ha":766,"x_min":102,"x_max":665,"o":"m 102 -27 l 102 543 q 305 746 102 746 l 461 746 q 665 543 665 746 l 665 34 l 536 -27 l 529 -27 l 529 543 q 461 624 529 624 l 305 624 q 237 543 237 624 l 237 34 l 109 -27 l 102 -27 z "},"o":{"ha":766,"x_min":102,"x_max":665,"o":"m 305 122 l 461 122 q 529 203 529 122 l 529 543 q 461 624 529 624 l 305 624 q 237 543 237 624 l 237 203 q 305 122 237 122 m 305 0 q 102 203 102 0 l 102 543 q 305 746 102 746 l 461 746 q 665 543 665 746 l 665 203 q 461 0 665 0 l 305 0 z "},"p":{"ha":800,"x_min":136,"x_max":699,"o":"m 339 0 q 271 21 293 0 l 271 -244 l 142 -305 l 136 -305 l 136 543 q 339 746 136 746 l 495 746 q 699 543 699 746 l 699 203 q 495 0 699 0 l 339 0 m 339 122 l 495 122 q 563 203 563 122 l 563 543 q 495 624 563 624 l 339 624 q 271 543 271 624 l 271 203 q 339 122 271 122 z "},"q":{"ha":800,"x_min":102,"x_max":665,"o":"m 305 122 l 461 122 q 529 203 529 122 l 529 543 q 461 624 529 624 l 305 624 q 237 543 237 624 l 237 203 q 305 122 237 122 m 305 0 q 102 203 102 0 l 102 543 q 305 746 102 746 l 461 746 q 665 543 665 746 l 665 -244 l 536 -305 l 529 -305 l 529 21 q 461 0 502 0 l 305 0 z "},"r":{"ha":488,"x_min":102,"x_max":475,"o":"m 102 -27 l 102 543 q 305 746 102 746 l 475 746 l 475 739 l 420 624 l 305 624 q 237 543 237 624 l 237 34 l 109 -27 l 102 -27 z "},"s":{"ha":726,"x_min":81,"x_max":644,"o":"m 285 0 q 81 203 81 0 l 81 228 l 210 289 l 217 289 l 217 203 q 285 122 217 122 l 441 122 q 509 203 509 122 l 509 257 q 441 338 509 338 l 313 338 q 110 543 110 338 q 313 746 110 746 l 393 746 q 596 582 596 746 l 467 521 l 460 521 l 460 543 q 393 624 460 624 l 313 624 q 245 543 245 624 q 313 460 245 460 l 441 460 q 644 257 644 460 l 644 203 q 441 0 644 0 l 285 0 z "},"t":{"ha":518,"x_min":17,"x_max":501,"o":"m 191 -27 l 191 623 l 17 623 l 17 629 l 72 746 l 191 746 l 191 990 l 320 1051 l 327 1051 l 327 746 l 501 746 l 501 739 l 446 623 l 327 623 l 327 34 l 198 -27 l 191 -27 z "},"u":{"ha":766,"x_min":102,"x_max":665,"o":"m 305 0 q 102 203 102 0 l 102 712 l 231 773 l 237 773 l 237 203 q 305 122 237 122 l 461 122 q 529 203 529 122 l 529 712 l 658 773 l 665 773 l 665 203 q 461 0 665 0 l 305 0 z "},"v":{"ha":696,"x_min":34,"x_max":662,"o":"m 296 -27 l 34 718 l 151 773 l 158 773 l 350 208 l 538 773 l 545 773 l 662 718 l 420 28 l 302 -27 l 296 -27 z "},"w":{"ha":1194,"x_min":102,"x_max":1092,"o":"m 305 0 q 102 203 102 0 l 102 712 l 231 773 l 237 773 l 237 203 q 305 122 237 122 l 461 122 q 529 203 529 122 l 529 712 l 658 773 l 665 773 l 665 203 q 732 122 665 122 l 888 122 q 956 203 956 122 l 956 712 l 1085 773 l 1092 773 l 1092 203 q 888 0 1092 0 l 732 0 q 597 50 639 0 q 461 0 552 0 l 305 0 z "},"x":{"ha":688,"x_min":54,"x_max":634,"o":"m 179 -27 l 172 -27 l 54 28 l 264 373 l 54 717 l 173 773 l 180 773 l 345 484 l 509 773 l 515 773 l 634 717 l 424 373 l 634 28 l 516 -27 l 509 -27 l 345 263 l 179 -27 z "},"y":{"ha":800,"x_min":102,"x_max":665,"o":"m 305 0 q 102 203 102 0 l 102 712 l 231 773 l 237 773 l 237 203 q 305 122 237 122 l 461 122 q 529 203 529 122 l 529 712 l 658 773 l 665 773 l 665 -75 q 461 -278 665 -278 l 172 -278 l 172 -271 l 227 -156 l 461 -156 q 529 -75 529 -156 l 529 20 q 461 0 503 0 l 305 0 z "},"z":{"ha":714,"x_min":68,"x_max":646,"o":"m 68 0 l 68 7 l 422 623 l 75 623 l 75 629 l 130 746 l 640 746 l 640 739 l 286 123 l 646 123 l 646 117 l 591 0 l 68 0 z "},"{":{"ha":559,"x_min":34,"x_max":526,"o":"m 526 1187 l 526 1065 q 401 1042 458 1065 q 319 963 319 1010 l 319 61 q 401 -18 319 14 q 526 -41 458 -41 l 526 -163 q 337 -127 423 -163 q 183 61 183 -63 l 183 450 l 34 450 l 34 457 l 89 574 l 183 574 l 183 963 q 337 1151 183 1087 q 526 1187 423 1187 z "},"|":{"ha":452,"x_min":170,"x_max":282,"o":"m 170 -163 l 170 1137 l 275 1187 l 282 1187 l 282 -113 l 176 -163 l 170 -163 z "},"}":{"ha":559,"x_min":34,"x_max":526,"o":"m 34 1187 q 222 1151 136 1187 q 376 963 376 1087 l 376 574 l 526 574 l 526 567 l 471 450 l 376 450 l 376 61 q 222 -127 376 -63 q 34 -163 136 -163 l 34 -41 q 159 -18 102 -41 q 241 61 241 14 l 241 963 q 159 1042 241 1010 q 34 1065 102 1065 l 34 1187 z "},"~":{"ha":772,"x_min":102,"x_max":670,"o":"m 102 395 q 262 640 102 640 q 414 572 353 640 q 500 515 463 515 q 549 585 549 515 l 663 640 l 670 640 q 509 395 670 395 q 358 464 418 395 q 271 520 309 520 q 222 450 222 520 l 109 395 l 102 395 z "}," ":{"ha":543,"x_min":0,"x_max":0,"o":""},"¡":{"ha":407,"x_min":122,"x_max":285,"o":"m 261 1013 q 273 1001 261 1013 q 285 955 285 989 q 261 896 285 920 q 203 871 237 871 q 146 896 170 871 q 122 955 122 920 q 146 1013 122 989 q 203 1038 170 1038 q 261 1013 237 1038 m 142 -27 l 136 -27 l 136 678 l 264 739 l 271 739 l 271 34 l 142 -27 z "},"¢":{"ha":766,"x_min":102,"x_max":665,"o":"m 305 0 q 102 203 102 0 l 102 543 q 305 746 102 746 l 344 746 l 344 875 l 416 909 l 422 909 l 422 746 l 461 746 q 665 543 665 746 l 665 507 l 536 446 l 529 446 l 529 543 q 461 624 529 624 l 422 624 l 422 122 l 461 122 q 529 203 529 122 l 529 239 l 658 300 l 665 300 l 665 203 q 461 0 665 0 l 422 0 l 422 -129 l 351 -163 l 344 -163 l 344 0 l 305 0 m 344 122 l 344 624 l 305 624 q 237 543 237 624 l 237 203 q 305 122 237 122 l 344 122 z "},"£":{"ha":905,"x_min":102,"x_max":804,"o":"m 102 0 l 102 7 l 157 123 l 203 123 l 203 406 l 102 406 l 102 412 l 157 529 l 203 529 l 203 821 q 407 1024 203 1024 l 563 1024 q 766 821 766 1024 l 766 771 l 637 710 l 631 710 l 631 821 q 563 902 631 902 l 407 902 q 339 821 339 902 l 339 529 l 621 529 l 621 522 l 566 406 l 339 406 l 339 123 l 804 123 l 804 117 l 749 0 l 102 0 z "},"¤":{"ha":977,"x_min":102,"x_max":875,"o":"m 389 302 l 599 302 q 701 418 701 302 l 701 595 q 599 711 701 711 l 389 711 q 287 595 287 711 l 287 418 q 389 302 287 302 m 389 180 q 258 206 311 180 l 228 175 l 106 218 l 102 223 l 174 295 q 151 418 151 345 l 151 595 q 182 735 151 681 l 113 804 l 118 808 l 239 852 l 276 815 q 389 833 323 833 l 599 833 q 710 815 663 833 l 748 852 l 869 809 l 874 804 l 806 736 q 836 595 836 681 l 836 418 q 806 278 836 332 l 875 209 l 870 204 l 749 161 l 711 198 q 599 180 664 180 l 389 180 z "},"¥":{"ha":867,"x_min":68,"x_max":799,"o":"m 350 -27 l 350 292 l 123 292 l 123 298 l 178 415 l 328 415 l 283 515 l 123 515 l 123 522 l 178 639 l 228 639 l 68 995 l 186 1051 l 193 1051 l 375 639 l 530 639 l 721 1051 l 728 1051 l 799 1017 l 618 639 l 743 639 l 743 632 l 688 515 l 559 515 l 511 415 l 743 415 l 743 408 l 688 292 l 486 292 l 486 34 l 357 -27 l 350 -27 m 472 515 l 429 515 l 450 468 l 472 515 z "},"¦":{"ha":452,"x_min":170,"x_max":282,"o":"m 170 -163 l 170 398 l 275 448 l 282 448 l 282 -113 l 176 -163 l 170 -163 m 275 1187 l 282 1187 l 282 626 l 176 576 l 170 576 l 170 1137 l 275 1187 z "},"§":{"ha":766,"x_min":102,"x_max":665,"o":"m 150 164 l 279 225 l 286 225 l 286 203 q 353 122 286 122 l 433 122 q 500 203 500 122 q 433 286 500 286 l 305 286 q 102 489 102 286 l 102 628 l 237 584 l 237 489 q 305 408 237 408 l 433 408 q 636 203 636 408 q 433 0 636 0 l 353 0 q 150 164 150 0 m 616 860 l 488 799 l 481 799 l 481 821 q 413 902 481 902 l 334 902 q 266 821 266 902 q 334 739 266 739 l 461 739 q 665 535 665 739 l 665 396 l 529 440 l 529 535 q 461 616 529 616 l 334 616 q 130 821 130 616 q 334 1024 130 1024 l 413 1024 q 616 860 616 1024 z "},"¨":{"ha":570,"x_min":102,"x_max":468,"o":"m 329 896 q 317 908 329 896 q 305 955 305 920 q 329 1013 305 989 q 387 1038 353 1038 q 444 1013 420 1038 q 468 955 468 989 q 444 896 468 920 q 387 871 420 871 q 329 896 353 871 m 125 896 q 114 908 125 896 q 102 955 102 920 q 125 1013 102 989 q 183 1038 149 1038 q 241 1013 217 1038 q 264 955 264 989 q 241 896 264 920 q 183 871 217 871 q 125 896 149 871 z "},"©":{"ha":950,"x_min":102,"x_max":848,"o":"m 666 460 l 666 374 q 530 239 666 239 l 426 239 q 290 370 290 239 l 290 635 q 426 768 290 768 l 530 768 q 666 632 666 768 l 666 585 l 589 548 l 564 548 l 564 632 q 530 673 564 673 l 426 673 q 392 634 392 673 l 392 373 q 426 334 392 334 l 530 334 q 564 374 564 334 l 564 422 l 642 460 l 666 460 m 475 903 q 618 873 550 903 q 739 787 683 846 q 821 661 793 731 q 848 511 848 593 q 821 363 848 433 q 739 237 795 296 q 618 151 686 181 q 475 122 551 122 q 332 151 400 122 q 211 237 267 179 q 129 363 156 294 q 102 511 102 431 q 129 661 102 592 q 211 787 156 730 q 332 874 266 845 q 475 903 399 903 m 475 848 q 353 824 409 848 q 248 749 296 800 q 176 640 201 700 q 152 515 152 581 l 152 511 q 176 384 152 444 q 248 275 199 328 q 352 201 296 225 q 475 176 410 176 q 599 201 541 176 q 703 275 655 225 q 774 383 750 324 q 798 511 798 442 q 774 641 798 581 q 703 749 751 699 q 599 824 656 799 q 475 848 541 848 z "},"ª":{"ha":648,"x_min":102,"x_max":546,"o":"m 287 624 q 172 739 172 624 l 172 785 q 287 901 172 901 l 358 901 q 378 900 377 901 l 378 909 q 358 936 378 936 l 223 936 l 223 956 l 255 1024 l 358 1024 q 473 909 473 1024 l 473 646 l 398 610 l 378 610 l 378 625 q 358 624 368 624 l 287 624 m 358 812 q 287 812 358 812 q 267 785 266 813 l 267 739 q 287 712 267 712 l 358 712 q 378 739 378 712 l 378 785 q 358 812 378 813 m 102 450 l 102 457 l 157 574 l 546 574 l 546 567 l 491 450 l 102 450 z "},"«":{"ha":819,"x_min":102,"x_max":684,"o":"m 559 206 l 363 537 l 559 871 l 566 871 l 684 815 l 519 539 l 684 262 l 566 206 l 559 206 m 298 206 l 102 537 l 298 871 l 304 871 l 422 815 l 258 539 l 422 262 l 304 206 l 298 206 z "},"¬":{"ha":823,"x_min":102,"x_max":722,"o":"m 435 273 l 532 450 l 102 450 l 102 457 l 157 574 l 722 574 l 722 567 l 581 273 l 435 273 z "},"­":{"ha":823,"x_min":102,"x_max":722,"o":"m 102 450 l 102 457 l 157 574 l 722 574 l 722 567 l 667 450 l 102 450 z "},"®":{"ha":950,"x_min":102,"x_max":848,"o":"m 402 522 l 534 522 q 568 559 568 522 l 568 652 q 534 688 568 688 l 402 688 l 402 522 m 300 241 l 300 760 l 349 783 l 534 783 q 670 654 670 783 l 670 557 q 580 432 670 453 l 686 279 l 605 241 l 589 241 l 458 427 l 402 427 l 402 277 l 324 241 l 300 241 m 475 848 q 353 824 409 848 q 248 749 296 800 q 176 640 201 700 q 152 515 152 581 l 152 511 q 176 384 152 444 q 248 275 199 328 q 352 201 296 225 q 475 176 410 176 q 599 201 541 176 q 703 275 655 225 q 774 383 750 324 q 798 511 798 442 q 774 641 798 581 q 703 749 751 699 q 599 824 656 799 q 475 848 541 848 m 475 903 q 618 873 550 903 q 739 787 683 846 q 821 661 793 731 q 848 511 848 593 q 821 363 848 433 q 739 237 795 296 q 618 151 686 181 q 475 122 551 122 q 332 151 400 122 q 211 237 267 179 q 129 363 156 294 q 102 511 102 431 q 129 661 102 593 q 211 787 156 730 q 332 874 267 845 q 475 903 398 903 z "},"¯":{"ha":823,"x_min":102,"x_max":722,"o":"m 102 901 l 102 907 l 157 1024 l 722 1024 l 722 1017 l 667 901 l 102 901 z "},"°":{"ha":766,"x_min":102,"x_max":665,"o":"m 305 631 l 461 631 q 529 712 529 631 l 529 821 q 461 902 529 902 l 305 902 q 237 821 237 902 l 237 712 q 305 631 237 631 m 305 509 q 102 712 102 509 l 102 821 q 305 1024 102 1024 l 461 1024 q 665 821 665 1024 l 665 712 q 461 509 665 509 l 305 509 z "},"±":{"ha":823,"x_min":102,"x_max":722,"o":"m 102 165 l 102 172 l 157 288 l 722 288 l 722 281 l 667 165 l 102 165 m 473 938 l 473 690 l 722 690 l 722 683 l 667 566 l 473 566 l 473 373 l 357 318 l 350 318 l 350 566 l 102 566 l 102 573 l 157 690 l 350 690 l 350 883 l 467 938 l 473 938 z "},"²":{"ha":585,"x_min":102,"x_max":483,"o":"m 102 495 l 102 519 l 132 584 l 297 736 q 373 838 373 807 l 373 890 q 339 929 373 929 l 241 929 q 207 888 207 929 l 207 840 l 130 804 l 105 804 l 105 888 q 241 1024 105 1024 l 339 1024 q 475 892 475 1024 l 475 836 q 382 688 475 767 l 271 591 l 483 591 l 483 566 l 449 495 l 102 495 z "},"³":{"ha":580,"x_min":102,"x_max":478,"o":"m 165 1024 l 461 1024 l 349 834 q 443 802 410 833 q 478 703 478 768 l 478 627 q 342 495 478 495 l 237 495 q 102 631 102 495 l 102 679 l 179 715 l 203 715 l 203 631 q 237 590 203 590 l 342 590 q 376 629 376 590 l 376 704 q 342 743 376 743 l 194 743 l 298 928 l 132 928 l 132 953 l 165 1024 z "},"´":{"ha":439,"x_min":102,"x_max":338,"o":"m 212 1051 l 218 1051 l 338 994 l 188 780 l 181 780 l 102 817 l 212 1051 z "},"µ":{"ha":800,"x_min":136,"x_max":699,"o":"m 339 0 q 271 20 299 0 l 271 -244 l 142 -305 l 136 -305 l 136 712 l 264 773 l 271 773 l 271 203 q 339 122 271 122 l 495 122 q 563 203 563 122 l 563 712 l 692 773 l 699 773 l 699 203 q 495 0 699 0 l 339 0 z "},"¶":{"ha":800,"x_min":102,"x_max":665,"o":"m 529 -27 l 529 410 q 461 389 501 389 l 305 389 q 102 593 102 389 l 102 821 q 305 1024 102 1024 l 461 1024 q 665 821 665 1024 l 665 34 l 620 13 l 620 771 l 576 771 l 576 -8 l 536 -27 l 529 -27 z "},"·":{"ha":407,"x_min":122,"x_max":285,"o":"m 146 452 q 134 465 146 452 q 122 511 122 477 q 146 570 122 545 q 203 594 170 594 q 261 570 237 594 q 285 511 285 545 q 261 452 285 477 q 203 428 237 428 q 146 452 170 428 z "},"¸":{"ha":413,"x_min":102,"x_max":311,"o":"m 145 189 q 311 -28 311 101 q 237 -194 311 -121 l 231 -194 l 102 -133 q 193 8 193 -74 q 116 155 193 77 l 145 189 z "},"¹":{"ha":456,"x_min":102,"x_max":286,"o":"m 262 1051 l 286 1051 l 286 518 l 209 481 l 184 481 l 184 937 l 102 899 l 102 975 l 262 1051 z "},"º":{"ha":648,"x_min":102,"x_max":546,"o":"m 286 712 q 363 712 286 712 q 384 739 384 712 l 384 909 q 363 936 384 936 l 286 936 q 265 909 266 936 l 265 739 q 286 712 266 712 m 286 624 q 170 739 171 624 l 170 909 q 286 1024 171 1024 l 363 1024 q 479 909 479 1024 l 479 739 q 363 624 479 624 l 286 624 m 102 450 l 102 457 l 157 574 l 546 574 l 546 567 l 491 450 l 102 450 z "},"»":{"ha":819,"x_min":136,"x_max":718,"o":"m 260 206 l 254 206 l 136 262 l 300 539 l 136 815 l 254 871 l 260 871 l 456 537 l 260 206 m 522 206 l 515 206 l 397 262 l 561 539 l 397 815 l 515 871 l 522 871 l 718 537 l 522 206 z "},"¼":{"ha":996,"x_min":102,"x_max":861,"o":"m 596 228 l 708 228 l 708 366 l 596 228 m 708 -27 l 708 132 l 460 132 l 460 157 l 490 220 l 714 509 l 785 543 l 810 543 l 810 228 l 861 228 l 861 203 l 827 132 l 810 132 l 810 9 l 732 -27 l 708 -27 m 262 1051 l 286 1051 l 286 518 l 209 481 l 184 481 l 184 937 l 102 899 l 102 975 l 262 1051 m 239 -27 l 143 19 l 624 1051 l 631 1051 l 726 1005 l 245 -27 l 239 -27 z "},"½":{"ha":1042,"x_min":102,"x_max":906,"o":"m 525 0 l 525 24 l 555 89 l 720 241 q 796 342 796 312 l 796 395 q 762 434 796 434 l 664 434 q 630 393 630 434 l 630 345 l 553 309 l 528 309 l 528 393 q 664 529 528 529 l 762 529 q 898 397 898 529 l 898 341 q 805 193 898 272 l 694 96 l 906 96 l 906 71 l 872 0 l 525 0 m 262 1051 l 286 1051 l 286 518 l 209 481 l 184 481 l 184 937 l 102 899 l 102 975 l 262 1051 m 239 -27 l 143 19 l 624 1051 l 631 1051 l 726 1005 l 245 -27 l 239 -27 z "},"¾":{"ha":1129,"x_min":102,"x_max":994,"o":"m 165 1024 l 461 1024 l 349 834 q 443 802 410 833 q 478 703 478 768 l 478 627 q 342 495 478 495 l 237 495 q 102 631 102 495 l 102 679 l 179 715 l 203 715 l 203 631 q 237 590 203 590 l 342 590 q 376 629 376 590 l 376 704 q 342 743 376 743 l 194 743 l 298 928 l 132 928 l 132 953 l 165 1024 m 729 228 l 841 228 l 841 366 l 729 228 m 841 -27 l 841 132 l 593 132 l 593 157 l 623 220 l 847 509 l 918 543 l 943 543 l 943 228 l 994 228 l 994 203 l 960 132 l 943 132 l 943 9 l 865 -27 l 841 -27 m 372 -27 l 276 19 l 757 1051 l 764 1051 l 859 1005 l 378 -27 l 372 -27 z "},"¿":{"ha":888,"x_min":102,"x_max":787,"o":"m 339 0 q 102 237 102 0 l 102 312 q 332 623 102 479 q 393 716 391 660 l 524 779 l 530 779 q 412 534 530 607 q 237 311 237 427 l 237 237 q 339 122 237 122 l 549 122 q 651 237 651 122 l 651 312 l 780 373 l 787 373 l 787 237 q 549 0 787 0 l 339 0 m 509 1013 q 520 1001 509 1013 q 532 955 532 989 q 509 896 532 920 q 451 871 485 871 q 393 896 417 871 q 370 955 370 920 q 393 1013 370 989 q 451 1038 417 1038 q 509 1013 485 1038 z "},"À":{"ha":956,"x_min":136,"x_max":821,"o":"m 136 -27 l 136 787 q 373 1024 136 1024 l 583 1024 q 821 787 821 1024 l 821 34 l 692 -27 l 685 -27 l 685 450 l 271 450 l 271 34 l 142 -27 l 136 -27 m 271 574 l 685 574 l 685 787 q 583 902 685 902 l 373 902 q 271 787 271 902 l 271 574 m 404 1333 l 411 1333 l 521 1099 l 441 1062 l 435 1062 l 285 1276 l 404 1333 z "},"Á":{"ha":956,"x_min":136,"x_max":821,"o":"m 136 -27 l 136 787 q 373 1024 136 1024 l 583 1024 q 821 787 821 1024 l 821 34 l 692 -27 l 685 -27 l 685 450 l 271 450 l 271 34 l 142 -27 l 136 -27 m 271 574 l 685 574 l 685 787 q 583 902 685 902 l 373 902 q 271 787 271 902 l 271 574 m 554 1333 l 561 1333 l 680 1276 l 530 1062 l 524 1062 l 444 1099 l 554 1333 z "},"Â":{"ha":956,"x_min":136,"x_max":821,"o":"m 136 -27 l 136 787 q 373 1024 136 1024 l 583 1024 q 821 787 821 1024 l 821 34 l 692 -27 l 685 -27 l 685 450 l 271 450 l 271 34 l 142 -27 l 136 -27 m 271 574 l 685 574 l 685 787 q 583 902 685 902 l 373 902 q 271 787 271 902 l 271 574 m 294 1099 l 398 1276 l 517 1333 l 524 1333 l 669 1099 l 590 1062 l 583 1062 l 481 1203 l 381 1062 l 374 1062 l 294 1099 z "},"Ã":{"ha":956,"x_min":136,"x_max":821,"o":"m 136 -27 l 136 787 q 373 1024 136 1024 l 583 1024 q 821 787 821 1024 l 821 34 l 692 -27 l 685 -27 l 685 450 l 271 450 l 271 34 l 142 -27 l 136 -27 m 271 574 l 685 574 l 685 787 q 583 902 685 902 l 373 902 q 271 787 271 902 l 271 574 m 319 1111 q 415 1305 319 1305 q 508 1257 458 1305 q 559 1224 543 1224 q 582 1273 582 1224 l 656 1305 l 661 1305 q 565 1111 661 1111 q 472 1158 522 1111 q 421 1192 437 1192 q 398 1143 398 1192 l 323 1111 l 319 1111 z "},"Ä":{"ha":956,"x_min":136,"x_max":821,"o":"m 136 -27 l 136 787 q 373 1024 136 1024 l 583 1024 q 821 787 821 1024 l 821 34 l 692 -27 l 685 -27 l 685 450 l 271 450 l 271 34 l 142 -27 l 136 -27 m 271 574 l 685 574 l 685 787 q 583 902 685 902 l 373 902 q 271 787 271 902 l 271 574 m 527 1164 q 515 1176 527 1164 q 503 1222 503 1188 q 527 1281 503 1257 q 585 1305 551 1305 q 642 1281 618 1305 q 666 1222 666 1257 q 642 1164 666 1188 q 585 1139 618 1139 q 527 1164 551 1139 m 323 1164 q 312 1176 323 1164 q 300 1222 300 1188 q 323 1281 300 1257 q 381 1305 347 1305 q 439 1281 415 1305 q 463 1222 463 1257 q 439 1164 463 1188 q 381 1139 415 1139 q 323 1164 347 1139 z "},"Å":{"ha":956,"x_min":136,"x_max":821,"o":"m 136 -27 l 136 787 q 373 1024 136 1024 l 583 1024 q 821 787 821 1024 l 821 34 l 692 -27 l 685 -27 l 685 450 l 271 450 l 271 34 l 142 -27 l 136 -27 m 271 574 l 685 574 l 685 787 q 583 902 685 902 l 373 902 q 271 787 271 902 l 271 574 m 570 1110 q 478 1077 532 1077 q 387 1110 424 1077 q 345 1205 345 1147 q 387 1300 345 1261 q 478 1333 422 1333 q 570 1300 532 1333 q 612 1205 612 1263 q 570 1110 612 1147 m 478 1263 q 441 1249 455 1263 q 428 1205 428 1234 q 442 1161 428 1174 q 477 1147 457 1147 q 513 1162 498 1147 q 527 1205 527 1175 q 512 1250 527 1236 q 478 1263 498 1263 z "},"Æ":{"ha":1334,"x_min":136,"x_max":1300,"o":"m 685 0 l 685 450 l 271 450 l 271 34 l 142 -27 l 136 -27 l 136 787 q 373 1024 136 1024 l 583 1024 q 707 986 669 1024 l 757 1024 l 1187 1024 l 1187 1017 l 1132 901 l 821 901 l 821 574 l 1187 574 l 1187 567 l 1132 450 l 821 450 l 821 123 l 1300 123 l 1300 117 l 1245 0 l 685 0 m 271 574 l 685 574 l 685 787 q 583 902 685 902 l 373 902 q 271 787 271 902 l 271 574 z "},"Ç":{"ha":956,"x_min":136,"x_max":821,"o":"m 373 0 q 136 237 136 0 l 136 787 q 373 1024 136 1024 l 583 1024 q 821 787 821 1024 l 821 712 l 692 651 l 685 651 l 685 787 q 583 902 685 902 l 373 902 q 271 787 271 902 l 271 237 q 373 122 271 122 l 583 122 q 685 237 685 122 l 685 312 l 814 373 l 821 373 l 821 237 q 583 0 821 0 l 522 0 q 576 -140 576 -58 q 502 -305 576 -233 l 495 -305 l 366 -244 q 457 -103 457 -185 q 421 0 457 -56 l 373 0 z "},"È":{"ha":785,"x_min":136,"x_max":751,"o":"m 343 1333 l 350 1333 l 460 1099 l 380 1062 l 374 1062 l 224 1276 l 343 1333 m 136 0 l 136 990 l 208 1024 l 637 1024 l 637 1017 l 583 901 l 271 901 l 271 574 l 637 574 l 637 567 l 583 450 l 271 450 l 271 123 l 751 123 l 751 117 l 696 0 l 136 0 z "},"É":{"ha":785,"x_min":136,"x_max":751,"o":"m 464 1333 l 471 1333 l 590 1276 l 440 1062 l 433 1062 l 354 1099 l 464 1333 m 136 0 l 136 990 l 208 1024 l 637 1024 l 637 1017 l 583 901 l 271 901 l 271 574 l 637 574 l 637 567 l 583 450 l 271 450 l 271 123 l 751 123 l 751 117 l 696 0 l 136 0 z "},"Ê":{"ha":785,"x_min":136,"x_max":751,"o":"m 212 1099 l 316 1276 l 435 1333 l 442 1333 l 587 1099 l 508 1062 l 501 1062 l 399 1203 l 299 1062 l 292 1062 l 212 1099 m 136 0 l 136 990 l 208 1024 l 637 1024 l 637 1017 l 583 901 l 271 901 l 271 574 l 637 574 l 637 567 l 583 450 l 271 450 l 271 123 l 751 123 l 751 117 l 696 0 l 136 0 z "},"Ë":{"ha":785,"x_min":136,"x_max":751,"o":"m 442 1164 q 430 1176 442 1164 q 418 1222 418 1188 q 442 1281 418 1257 q 500 1305 466 1305 q 557 1281 534 1305 q 581 1222 581 1257 q 557 1164 581 1188 q 500 1139 534 1139 q 442 1164 466 1139 m 239 1164 q 227 1176 239 1164 q 215 1222 215 1188 q 239 1281 215 1257 q 296 1305 262 1305 q 354 1281 330 1305 q 378 1222 378 1257 q 354 1164 378 1188 q 296 1139 330 1139 q 239 1164 262 1139 m 136 0 l 136 990 l 208 1024 l 637 1024 l 637 1017 l 583 901 l 271 901 l 271 574 l 637 574 l 637 567 l 583 450 l 271 450 l 271 123 l 751 123 l 751 117 l 696 0 l 136 0 z "},"Ì":{"ha":407,"x_min":45,"x_max":281,"o":"m 164 1333 l 171 1333 l 281 1099 l 201 1062 l 195 1062 l 45 1276 l 164 1333 m 136 -27 l 136 990 l 264 1051 l 271 1051 l 271 34 l 142 -27 l 136 -27 z "},"Í":{"ha":407,"x_min":126,"x_max":362,"o":"m 236 1333 l 243 1333 l 362 1276 l 212 1062 l 205 1062 l 126 1099 l 236 1333 m 136 -27 l 136 990 l 264 1051 l 271 1051 l 271 34 l 142 -27 l 136 -27 z "},"Î":{"ha":407,"x_min":16,"x_max":391,"o":"m 136 -27 l 136 990 l 264 1051 l 271 1051 l 271 34 l 142 -27 l 136 -27 m 16 1099 l 119 1276 l 239 1333 l 245 1333 l 391 1099 l 311 1062 l 304 1062 l 203 1203 l 102 1062 l 96 1062 l 16 1099 z "},"Ï":{"ha":407,"x_min":20,"x_max":387,"o":"m 136 -27 l 136 990 l 264 1051 l 271 1051 l 271 34 l 142 -27 l 136 -27 m 248 1164 q 236 1176 248 1164 q 224 1222 224 1188 q 248 1281 224 1257 q 305 1305 271 1305 q 363 1281 339 1305 q 387 1222 387 1257 q 363 1164 387 1188 q 305 1139 339 1139 q 248 1164 271 1139 m 44 1164 q 32 1176 44 1164 q 20 1222 20 1188 q 44 1281 20 1257 q 102 1305 68 1305 q 159 1281 136 1305 q 183 1222 183 1257 q 159 1164 183 1188 q 102 1139 136 1139 q 44 1164 68 1139 z "},"Ð":{"ha":943,"x_min":34,"x_max":807,"o":"m 136 0 l 136 450 l 34 450 l 34 457 l 89 574 l 136 574 l 136 990 l 208 1024 l 570 1024 q 807 787 807 1024 l 807 237 q 570 0 807 0 l 136 0 m 271 122 l 570 122 q 671 237 671 122 l 671 787 q 570 902 671 902 l 271 902 l 271 574 l 553 574 l 553 567 l 498 450 l 271 450 l 271 122 z "},"Ñ":{"ha":956,"x_min":136,"x_max":821,"o":"m 136 -27 l 136 787 q 373 1024 136 1024 l 583 1024 q 821 787 821 1024 l 821 34 l 692 -27 l 685 -27 l 685 787 q 583 902 685 902 l 373 902 q 271 787 271 902 l 271 34 l 142 -27 l 136 -27 m 319 1111 q 415 1305 319 1305 q 508 1257 458 1305 q 559 1224 543 1224 q 582 1273 582 1224 l 656 1305 l 661 1305 q 565 1111 661 1111 q 472 1158 522 1111 q 421 1192 437 1192 q 398 1143 398 1192 l 323 1111 l 319 1111 z "},"Ò":{"ha":956,"x_min":136,"x_max":821,"o":"m 373 122 l 583 122 q 685 237 685 122 l 685 787 q 583 902 685 902 l 373 902 q 271 787 271 902 l 271 237 q 373 122 271 122 m 373 0 q 136 237 136 0 l 136 787 q 373 1024 136 1024 l 583 1024 q 821 787 821 1024 l 821 237 q 583 0 821 0 l 373 0 m 404 1333 l 411 1333 l 521 1099 l 441 1062 l 435 1062 l 285 1276 l 404 1333 z "},"Ó":{"ha":956,"x_min":136,"x_max":821,"o":"m 373 122 l 583 122 q 685 237 685 122 l 685 787 q 583 902 685 902 l 373 902 q 271 787 271 902 l 271 237 q 373 122 271 122 m 373 0 q 136 237 136 0 l 136 787 q 373 1024 136 1024 l 583 1024 q 821 787 821 1024 l 821 237 q 583 0 821 0 l 373 0 m 554 1333 l 561 1333 l 680 1276 l 530 1062 l 524 1062 l 444 1099 l 554 1333 z "},"Ô":{"ha":956,"x_min":136,"x_max":821,"o":"m 373 122 l 583 122 q 685 237 685 122 l 685 787 q 583 902 685 902 l 373 902 q 271 787 271 902 l 271 237 q 373 122 271 122 m 373 0 q 136 237 136 0 l 136 787 q 373 1024 136 1024 l 583 1024 q 821 787 821 1024 l 821 237 q 583 0 821 0 l 373 0 m 294 1099 l 398 1276 l 517 1333 l 524 1333 l 669 1099 l 590 1062 l 583 1062 l 481 1203 l 381 1062 l 374 1062 l 294 1099 z "},"Õ":{"ha":956,"x_min":136,"x_max":821,"o":"m 373 122 l 583 122 q 685 237 685 122 l 685 787 q 583 902 685 902 l 373 902 q 271 787 271 902 l 271 237 q 373 122 271 122 m 373 0 q 136 237 136 0 l 136 787 q 373 1024 136 1024 l 583 1024 q 821 787 821 1024 l 821 237 q 583 0 821 0 l 373 0 m 319 1111 q 415 1305 319 1305 q 508 1257 458 1305 q 559 1224 543 1224 q 582 1273 582 1224 l 656 1305 l 661 1305 q 565 1111 661 1111 q 472 1158 522 1111 q 421 1192 437 1192 q 398 1143 398 1192 l 323 1111 l 319 1111 z "},"Ö":{"ha":956,"x_min":136,"x_max":821,"o":"m 373 122 l 583 122 q 685 237 685 122 l 685 787 q 583 902 685 902 l 373 902 q 271 787 271 902 l 271 237 q 373 122 271 122 m 373 0 q 136 237 136 0 l 136 787 q 373 1024 136 1024 l 583 1024 q 821 787 821 1024 l 821 237 q 583 0 821 0 l 373 0 m 527 1164 q 515 1176 527 1164 q 503 1222 503 1188 q 527 1281 503 1257 q 585 1305 551 1305 q 642 1281 618 1305 q 666 1222 666 1257 q 642 1164 666 1188 q 585 1139 618 1139 q 527 1164 551 1139 m 323 1164 q 312 1176 323 1164 q 300 1222 300 1188 q 323 1281 300 1257 q 381 1305 347 1305 q 439 1281 415 1305 q 463 1222 463 1257 q 439 1164 463 1188 q 381 1139 415 1139 q 323 1164 347 1139 z "},"×":{"ha":729,"x_min":102,"x_max":627,"o":"m 102 688 l 106 692 l 228 736 l 364 600 l 501 736 l 623 692 l 627 688 l 452 512 l 627 336 l 623 332 l 501 288 l 364 425 l 228 288 l 106 332 l 102 336 l 277 512 l 102 688 z "},"Ø":{"ha":956,"x_min":136,"x_max":821,"o":"m 373 0 q 291 9 328 0 l 274 -27 l 267 -27 l 197 7 l 214 43 q 136 237 136 101 l 136 787 q 373 1024 136 1024 l 583 1024 q 665 1015 629 1024 l 682 1051 l 689 1051 l 760 1017 l 743 981 q 821 787 821 922 l 821 237 q 583 0 821 0 l 373 0 m 373 122 l 583 122 q 685 237 685 122 l 685 787 q 677 840 685 818 l 345 125 q 373 122 357 122 m 279 183 l 612 899 q 583 902 599 902 l 373 902 q 271 787 271 902 l 271 237 q 279 183 271 206 z "},"Ù":{"ha":956,"x_min":136,"x_max":821,"o":"m 373 0 q 136 237 136 0 l 136 990 l 264 1051 l 271 1051 l 271 237 q 373 122 271 122 l 583 122 q 685 237 685 122 l 685 990 l 814 1051 l 821 1051 l 821 237 q 583 0 821 0 l 373 0 m 404 1333 l 411 1333 l 521 1099 l 441 1062 l 435 1062 l 285 1276 l 404 1333 z "},"Ú":{"ha":956,"x_min":136,"x_max":821,"o":"m 373 0 q 136 237 136 0 l 136 990 l 264 1051 l 271 1051 l 271 237 q 373 122 271 122 l 583 122 q 685 237 685 122 l 685 990 l 814 1051 l 821 1051 l 821 237 q 583 0 821 0 l 373 0 m 554 1333 l 561 1333 l 680 1276 l 530 1062 l 524 1062 l 444 1099 l 554 1333 z "},"Û":{"ha":956,"x_min":136,"x_max":821,"o":"m 373 0 q 136 237 136 0 l 136 990 l 264 1051 l 271 1051 l 271 237 q 373 122 271 122 l 583 122 q 685 237 685 122 l 685 990 l 814 1051 l 821 1051 l 821 237 q 583 0 821 0 l 373 0 m 294 1099 l 398 1276 l 517 1333 l 524 1333 l 669 1099 l 590 1062 l 583 1062 l 481 1203 l 381 1062 l 374 1062 l 294 1099 z "},"Ü":{"ha":956,"x_min":136,"x_max":821,"o":"m 373 0 q 136 237 136 0 l 136 990 l 264 1051 l 271 1051 l 271 237 q 373 122 271 122 l 583 122 q 685 237 685 122 l 685 990 l 814 1051 l 821 1051 l 821 237 q 583 0 821 0 l 373 0 m 527 1164 q 515 1176 527 1164 q 503 1222 503 1188 q 527 1281 503 1257 q 585 1305 551 1305 q 642 1281 618 1305 q 666 1222 666 1257 q 642 1164 666 1188 q 585 1139 618 1139 q 527 1164 551 1139 m 323 1164 q 312 1176 323 1164 q 300 1222 300 1188 q 323 1281 300 1257 q 381 1305 347 1305 q 439 1281 415 1305 q 463 1222 463 1257 q 439 1164 463 1188 q 381 1139 415 1139 q 323 1164 347 1139 z "},"Ý":{"ha":888,"x_min":102,"x_max":787,"o":"m 376 -27 l 376 327 l 339 327 q 102 564 102 327 l 102 990 l 231 1051 l 237 1051 l 237 564 q 339 449 237 449 l 549 449 q 651 564 651 449 l 651 990 l 780 1051 l 787 1051 l 787 564 q 549 327 787 327 l 512 327 l 512 34 l 383 -27 l 376 -27 m 554 1333 l 561 1333 l 680 1276 l 530 1062 l 524 1062 l 444 1099 l 554 1333 z "},"Þ":{"ha":909,"x_min":136,"x_max":807,"o":"m 136 -27 l 136 990 l 264 1051 l 271 1051 l 271 861 l 570 861 q 807 624 807 861 l 807 420 q 570 183 807 183 l 271 183 l 271 34 l 142 -27 l 136 -27 m 271 305 l 570 305 q 671 420 671 305 l 671 624 q 570 739 671 739 l 271 739 l 271 305 z "},"ß":{"ha":861,"x_min":136,"x_max":760,"o":"m 136 -27 l 136 821 q 339 1024 136 1024 l 495 1024 q 699 821 699 1024 l 699 709 q 659 591 699 635 q 760 391 760 534 l 760 237 q 522 0 760 0 l 382 0 l 382 7 l 437 123 l 522 123 q 624 237 624 123 l 624 391 q 522 505 624 505 l 440 505 l 440 511 l 495 628 q 563 709 563 628 l 563 821 q 495 902 563 902 l 339 902 q 271 821 271 902 l 271 34 l 142 -27 l 136 -27 z "},"à":{"ha":719,"x_min":68,"x_max":617,"o":"m 271 122 l 414 122 q 481 203 481 122 l 481 296 q 414 378 481 378 l 271 378 q 203 296 203 378 l 203 203 q 271 122 203 122 m 271 0 q 68 203 68 0 l 68 296 q 271 500 68 500 l 414 500 q 481 479 449 500 l 481 543 q 414 624 481 624 l 171 624 l 171 631 l 225 746 l 414 746 q 617 543 617 746 l 617 34 l 488 -27 l 481 -27 l 481 20 q 414 0 456 0 l 271 0 m 292 1062 l 299 1062 l 409 828 l 330 791 l 323 791 l 173 1005 l 292 1062 z "},"á":{"ha":719,"x_min":68,"x_max":617,"o":"m 271 122 l 414 122 q 481 203 481 122 l 481 296 q 414 378 481 378 l 271 378 q 203 296 203 378 l 203 203 q 271 122 203 122 m 271 0 q 68 203 68 0 l 68 296 q 271 500 68 500 l 414 500 q 481 479 449 500 l 481 543 q 414 624 481 624 l 171 624 l 171 631 l 225 746 l 414 746 q 617 543 617 746 l 617 34 l 488 -27 l 481 -27 l 481 20 q 414 0 456 0 l 271 0 m 450 1062 l 456 1062 l 576 1005 l 426 791 l 419 791 l 340 828 l 450 1062 z "},"â":{"ha":719,"x_min":68,"x_max":617,"o":"m 271 122 l 414 122 q 481 203 481 122 l 481 296 q 414 378 481 378 l 271 378 q 203 296 203 378 l 203 203 q 271 122 203 122 m 271 0 q 68 203 68 0 l 68 296 q 271 500 68 500 l 414 500 q 481 479 449 500 l 481 543 q 414 624 481 624 l 171 624 l 171 631 l 225 746 l 414 746 q 617 543 617 746 l 617 34 l 488 -27 l 481 -27 l 481 20 q 414 0 456 0 l 271 0 m 186 828 l 290 1005 l 409 1062 l 416 1062 l 560 828 l 481 791 l 475 791 l 373 932 l 273 791 l 266 791 l 186 828 z "},"ã":{"ha":719,"x_min":68,"x_max":617,"o":"m 271 122 l 414 122 q 481 203 481 122 l 481 296 q 414 378 481 378 l 271 378 q 203 296 203 378 l 203 203 q 271 122 203 122 m 271 0 q 68 203 68 0 l 68 296 q 271 500 68 500 l 414 500 q 481 479 449 500 l 481 543 q 414 624 481 624 l 171 624 l 171 631 l 225 746 l 414 746 q 617 543 617 746 l 617 34 l 488 -27 l 481 -27 l 481 20 q 414 0 456 0 l 271 0 m 218 836 q 314 1029 218 1029 q 407 982 357 1029 q 458 949 441 949 q 481 998 481 949 l 555 1029 l 559 1029 q 464 836 559 836 q 371 883 420 836 q 320 916 336 916 q 297 867 297 916 l 222 836 l 218 836 z "},"ä":{"ha":719,"x_min":68,"x_max":617,"o":"m 271 122 l 414 122 q 481 203 481 122 l 481 296 q 414 378 481 378 l 271 378 q 203 296 203 378 l 203 203 q 271 122 203 122 m 271 0 q 68 203 68 0 l 68 296 q 271 500 68 500 l 414 500 q 481 479 449 500 l 481 543 q 414 624 481 624 l 171 624 l 171 631 l 225 746 l 414 746 q 617 543 617 746 l 617 34 l 488 -27 l 481 -27 l 481 20 q 414 0 456 0 l 271 0 m 415 896 q 403 908 415 896 q 391 955 391 920 q 415 1013 391 989 q 473 1038 439 1038 q 530 1013 507 1038 q 554 955 554 989 q 530 896 554 920 q 473 871 507 871 q 415 896 439 871 m 212 896 q 200 908 212 896 q 188 955 188 920 q 212 1013 188 989 q 269 1038 235 1038 q 327 1013 303 1038 q 351 955 351 989 q 327 896 351 920 q 269 871 303 871 q 212 896 235 871 z "},"å":{"ha":719,"x_min":68,"x_max":617,"o":"m 271 122 l 414 122 q 481 203 481 122 l 481 296 q 414 378 481 378 l 271 378 q 203 296 203 378 l 203 203 q 271 122 203 122 m 271 0 q 68 203 68 0 l 68 296 q 271 500 68 500 l 414 500 q 481 479 449 500 l 481 543 q 414 624 481 624 l 171 624 l 171 631 l 225 746 l 414 746 q 617 543 617 746 l 617 34 l 488 -27 l 481 -27 l 481 20 q 414 0 456 0 l 271 0 m 465 839 q 373 806 427 806 q 281 839 319 806 q 239 934 239 876 q 281 1029 239 990 q 373 1062 317 1062 q 465 1029 427 1062 q 507 934 507 991 q 465 839 507 876 m 373 991 q 336 977 350 991 q 323 934 323 963 q 337 890 323 903 q 372 876 352 876 q 408 891 393 876 q 422 934 422 904 q 407 979 422 964 q 373 991 393 991 z "},"æ":{"ha":1146,"x_min":68,"x_max":1044,"o":"m 271 122 l 414 122 q 481 203 481 122 l 481 296 q 414 378 481 378 l 271 378 q 203 296 203 378 l 203 203 q 271 122 203 122 m 271 0 q 68 203 68 0 l 68 296 q 271 500 68 500 l 414 500 q 481 479 449 500 l 481 543 q 414 624 481 624 l 171 624 l 171 631 l 225 746 l 414 746 q 549 696 503 746 q 685 746 595 746 l 841 746 q 1044 543 1044 746 l 1044 507 l 619 178 q 685 122 629 122 l 841 122 q 909 203 909 122 l 909 239 l 1038 300 l 1044 300 l 1044 203 q 841 0 1044 0 l 685 0 q 589 23 643 0 l 488 -27 l 481 -27 l 481 20 q 414 0 456 0 l 271 0 m 617 319 l 908 554 q 841 624 904 624 l 685 624 q 617 543 617 624 l 617 319 z "},"ç":{"ha":766,"x_min":102,"x_max":665,"o":"m 305 0 q 102 203 102 0 l 102 543 q 305 746 102 746 l 461 746 q 665 543 665 746 l 665 507 l 536 446 l 529 446 l 529 543 q 461 624 529 624 l 305 624 q 237 543 237 624 l 237 203 q 305 122 237 122 l 461 122 q 529 203 529 122 l 529 239 l 658 300 l 665 300 l 665 203 q 461 0 665 0 l 426 0 q 480 -140 480 -58 q 406 -305 480 -233 l 399 -305 l 271 -244 q 361 -103 361 -185 q 325 0 361 -58 l 305 0 z "},"è":{"ha":766,"x_min":102,"x_max":665,"o":"m 305 0 q 102 203 102 0 l 102 543 q 305 746 102 746 l 461 746 q 665 543 665 746 l 665 507 l 239 178 q 305 122 249 122 l 461 122 q 529 203 529 122 l 529 239 l 658 300 l 665 300 l 665 203 q 461 0 665 0 l 305 0 m 237 319 l 528 554 q 461 624 524 624 l 305 624 q 237 543 237 624 l 237 319 m 306 1062 l 313 1062 l 422 828 l 343 791 l 336 791 l 186 1005 l 306 1062 z "},"é":{"ha":766,"x_min":102,"x_max":665,"o":"m 305 0 q 102 203 102 0 l 102 543 q 305 746 102 746 l 461 746 q 665 543 665 746 l 665 507 l 239 178 q 305 122 249 122 l 461 122 q 529 203 529 122 l 529 239 l 658 300 l 665 300 l 665 203 q 461 0 665 0 l 305 0 m 237 319 l 528 554 q 461 624 524 624 l 305 624 q 237 543 237 624 l 237 319 m 463 1062 l 470 1062 l 589 1005 l 439 791 l 433 791 l 353 828 l 463 1062 z "},"ê":{"ha":766,"x_min":102,"x_max":665,"o":"m 305 0 q 102 203 102 0 l 102 543 q 305 746 102 746 l 461 746 q 665 543 665 746 l 665 507 l 239 178 q 305 122 249 122 l 461 122 q 529 203 529 122 l 529 239 l 658 300 l 665 300 l 665 203 q 461 0 665 0 l 305 0 m 237 319 l 528 554 q 461 624 524 624 l 305 624 q 237 543 237 624 l 237 319 m 199 828 l 303 1005 l 422 1062 l 429 1062 l 574 828 l 495 791 l 488 791 l 387 932 l 286 791 l 279 791 l 199 828 z "},"ë":{"ha":766,"x_min":102,"x_max":665,"o":"m 305 0 q 102 203 102 0 l 102 543 q 305 746 102 746 l 461 746 q 665 543 665 746 l 665 507 l 239 178 q 305 122 249 122 l 461 122 q 529 203 529 122 l 529 239 l 658 300 l 665 300 l 665 203 q 461 0 665 0 l 305 0 m 237 319 l 528 554 q 461 624 524 624 l 305 624 q 237 543 237 624 l 237 319 m 429 896 q 417 908 429 896 q 405 955 405 920 q 429 1013 405 989 q 486 1038 452 1038 q 544 1013 520 1038 q 568 955 568 989 q 544 896 568 920 q 486 871 520 871 q 429 896 452 871 m 225 896 q 213 908 225 896 q 201 955 201 920 q 225 1013 201 989 q 283 1038 249 1038 q 340 1013 317 1038 q 364 955 364 989 q 340 896 364 920 q 283 871 317 871 q 225 896 249 871 z "},"ì":{"ha":407,"x_min":45,"x_max":281,"o":"m 136 -27 l 136 712 l 264 773 l 271 773 l 271 34 l 142 -27 l 136 -27 m 164 1062 l 171 1062 l 281 828 l 201 791 l 195 791 l 45 1005 l 164 1062 z "},"í":{"ha":407,"x_min":126,"x_max":362,"o":"m 236 1062 l 243 1062 l 362 1005 l 212 791 l 205 791 l 126 828 l 236 1062 m 136 -27 l 136 712 l 264 773 l 271 773 l 271 34 l 142 -27 l 136 -27 z "},"î":{"ha":407,"x_min":16,"x_max":391,"o":"m 16 828 l 120 1005 l 239 1062 l 246 1062 l 391 828 l 312 791 l 305 791 l 203 932 l 103 791 l 96 791 l 16 828 m 136 -27 l 136 712 l 264 773 l 271 773 l 271 34 l 142 -27 l 136 -27 z "},"ï":{"ha":407,"x_min":20,"x_max":387,"o":"m 136 -27 l 136 712 l 264 773 l 271 773 l 271 34 l 142 -27 l 136 -27 m 248 896 q 236 908 248 896 q 224 955 224 920 q 248 1013 224 989 q 305 1038 271 1038 q 363 1013 339 1038 q 387 955 387 989 q 363 896 387 920 q 305 871 339 871 q 248 896 271 871 m 44 896 q 32 908 44 896 q 20 955 20 920 q 44 1013 20 989 q 102 1038 68 1038 q 159 1013 136 1038 q 183 955 183 989 q 159 896 183 920 q 102 871 136 871 q 44 896 68 871 z "},"ð":{"ha":800,"x_min":102,"x_max":760,"o":"m 305 0 q 102 203 102 0 l 102 406 q 305 609 102 609 l 461 609 q 529 589 505 609 l 529 768 l 439 701 l 433 701 l 326 747 l 500 877 q 427 902 475 902 l 316 902 l 316 1024 l 427 1024 q 610 960 551 1024 l 647 987 l 654 987 l 760 941 l 657 864 q 665 787 665 818 l 665 203 q 461 0 665 0 l 305 0 m 305 122 l 461 122 q 529 203 529 122 l 529 406 q 461 487 529 487 l 305 487 q 237 406 237 487 l 237 203 q 305 122 237 122 z "},"ñ":{"ha":766,"x_min":102,"x_max":665,"o":"m 102 -27 l 102 543 q 305 746 102 746 l 461 746 q 665 543 665 746 l 665 34 l 536 -27 l 529 -27 l 529 543 q 461 624 529 624 l 305 624 q 237 543 237 624 l 237 34 l 109 -27 l 102 -27 m 232 836 q 328 1029 232 1029 q 420 982 371 1029 q 471 949 455 949 q 494 998 494 949 l 569 1029 l 573 1029 q 477 836 573 836 q 385 883 434 836 q 334 916 350 916 q 311 867 311 916 l 236 836 l 232 836 z "},"ò":{"ha":766,"x_min":102,"x_max":665,"o":"m 305 122 l 461 122 q 529 203 529 122 l 529 543 q 461 624 529 624 l 305 624 q 237 543 237 624 l 237 203 q 305 122 237 122 m 305 0 q 102 203 102 0 l 102 543 q 305 746 102 746 l 461 746 q 665 543 665 746 l 665 203 q 461 0 665 0 l 305 0 m 306 1062 l 313 1062 l 422 828 l 343 791 l 336 791 l 186 1005 l 306 1062 z "},"ó":{"ha":766,"x_min":102,"x_max":665,"o":"m 305 122 l 461 122 q 529 203 529 122 l 529 543 q 461 624 529 624 l 305 624 q 237 543 237 624 l 237 203 q 305 122 237 122 m 305 0 q 102 203 102 0 l 102 543 q 305 746 102 746 l 461 746 q 665 543 665 746 l 665 203 q 461 0 665 0 l 305 0 m 463 1062 l 470 1062 l 589 1005 l 439 791 l 433 791 l 353 828 l 463 1062 z "},"ô":{"ha":766,"x_min":102,"x_max":665,"o":"m 305 122 l 461 122 q 529 203 529 122 l 529 543 q 461 624 529 624 l 305 624 q 237 543 237 624 l 237 203 q 305 122 237 122 m 305 0 q 102 203 102 0 l 102 543 q 305 746 102 746 l 461 746 q 665 543 665 746 l 665 203 q 461 0 665 0 l 305 0 m 199 828 l 303 1005 l 422 1062 l 429 1062 l 574 828 l 495 791 l 488 791 l 387 932 l 286 791 l 279 791 l 199 828 z "},"õ":{"ha":766,"x_min":102,"x_max":665,"o":"m 305 122 l 461 122 q 529 203 529 122 l 529 543 q 461 624 529 624 l 305 624 q 237 543 237 624 l 237 203 q 305 122 237 122 m 305 0 q 102 203 102 0 l 102 543 q 305 746 102 746 l 461 746 q 665 543 665 746 l 665 203 q 461 0 665 0 l 305 0 m 232 836 q 328 1029 232 1029 q 420 982 371 1029 q 471 949 455 949 q 494 998 494 949 l 569 1029 l 573 1029 q 477 836 573 836 q 385 883 434 836 q 334 916 350 916 q 311 867 311 916 l 236 836 l 232 836 z "},"ö":{"ha":766,"x_min":102,"x_max":665,"o":"m 305 122 l 461 122 q 529 203 529 122 l 529 543 q 461 624 529 624 l 305 624 q 237 543 237 624 l 237 203 q 305 122 237 122 m 305 0 q 102 203 102 0 l 102 543 q 305 746 102 746 l 461 746 q 665 543 665 746 l 665 203 q 461 0 665 0 l 305 0 m 429 896 q 417 908 429 896 q 405 955 405 920 q 429 1013 405 989 q 486 1038 452 1038 q 544 1013 520 1038 q 568 955 568 989 q 544 896 568 920 q 486 871 520 871 q 429 896 452 871 m 225 896 q 213 908 225 896 q 201 955 201 920 q 225 1013 201 989 q 283 1038 249 1038 q 340 1013 317 1038 q 364 955 364 989 q 340 896 364 920 q 283 871 317 871 q 225 896 249 871 z "},"÷":{"ha":823,"x_min":102,"x_max":722,"o":"m 355 679 q 343 691 355 679 q 331 738 331 703 q 355 796 331 772 q 412 821 378 821 q 470 796 446 821 q 494 738 494 772 q 470 679 494 703 q 412 654 446 654 q 355 679 378 654 m 355 231 q 343 243 355 231 q 331 290 331 256 q 355 349 331 324 q 412 373 378 373 q 470 349 446 373 q 494 290 494 324 q 470 231 494 256 q 412 207 446 207 q 355 231 378 207 m 102 450 l 102 457 l 157 574 l 722 574 l 722 567 l 667 450 l 102 450 z "},"ø":{"ha":766,"x_min":102,"x_max":665,"o":"m 305 0 q 258 3 280 0 l 243 -27 l 237 -27 l 166 7 l 178 31 q 102 203 102 79 l 102 543 q 305 746 102 746 l 461 746 q 508 743 486 746 l 522 773 l 529 773 l 600 739 l 589 715 q 665 543 665 667 l 665 203 q 461 0 665 0 l 305 0 m 241 169 l 453 624 l 305 624 q 237 543 237 624 l 237 203 q 241 169 237 184 m 525 577 l 313 122 l 461 122 q 529 203 529 122 l 529 543 q 525 577 529 562 z "},"ù":{"ha":766,"x_min":102,"x_max":665,"o":"m 305 0 q 102 203 102 0 l 102 712 l 231 773 l 237 773 l 237 203 q 305 122 237 122 l 461 122 q 529 203 529 122 l 529 712 l 658 773 l 665 773 l 665 203 q 461 0 665 0 l 305 0 m 306 1062 l 313 1062 l 422 828 l 343 791 l 336 791 l 186 1005 l 306 1062 z "},"ú":{"ha":766,"x_min":102,"x_max":665,"o":"m 305 0 q 102 203 102 0 l 102 712 l 231 773 l 237 773 l 237 203 q 305 122 237 122 l 461 122 q 529 203 529 122 l 529 712 l 658 773 l 665 773 l 665 203 q 461 0 665 0 l 305 0 m 463 1062 l 470 1062 l 589 1005 l 439 791 l 433 791 l 353 828 l 463 1062 z "},"û":{"ha":766,"x_min":102,"x_max":665,"o":"m 305 0 q 102 203 102 0 l 102 712 l 231 773 l 237 773 l 237 203 q 305 122 237 122 l 461 122 q 529 203 529 122 l 529 712 l 658 773 l 665 773 l 665 203 q 461 0 665 0 l 305 0 m 199 828 l 303 1005 l 422 1062 l 429 1062 l 574 828 l 495 791 l 488 791 l 387 932 l 286 791 l 279 791 l 199 828 z "},"ü":{"ha":766,"x_min":102,"x_max":665,"o":"m 305 0 q 102 203 102 0 l 102 712 l 231 773 l 237 773 l 237 203 q 305 122 237 122 l 461 122 q 529 203 529 122 l 529 712 l 658 773 l 665 773 l 665 203 q 461 0 665 0 l 305 0 m 429 896 q 417 908 429 896 q 405 955 405 920 q 429 1013 405 989 q 486 1038 452 1038 q 544 1013 520 1038 q 568 955 568 989 q 544 896 568 920 q 486 871 520 871 q 429 896 452 871 m 225 896 q 213 908 225 896 q 201 955 201 920 q 225 1013 201 989 q 283 1038 249 1038 q 340 1013 317 1038 q 364 955 364 989 q 340 896 364 920 q 283 871 317 871 q 225 896 249 871 z "},"ý":{"ha":800,"x_min":102,"x_max":665,"o":"m 305 0 q 102 203 102 0 l 102 712 l 231 773 l 237 773 l 237 203 q 305 122 237 122 l 461 122 q 529 203 529 122 l 529 712 l 658 773 l 665 773 l 665 -75 q 461 -278 665 -278 l 172 -278 l 172 -271 l 227 -156 l 461 -156 q 529 -75 529 -156 l 529 20 q 461 0 503 0 l 305 0 m 463 1062 l 470 1062 l 589 1005 l 439 791 l 433 791 l 353 828 l 463 1062 z "},"þ":{"ha":800,"x_min":136,"x_max":699,"o":"m 339 122 l 495 122 q 563 203 563 122 l 563 543 q 495 624 563 624 l 339 624 q 271 543 271 624 l 271 203 q 339 122 271 122 m 339 0 q 271 21 293 0 l 271 -244 l 142 -305 l 136 -305 l 136 990 l 264 1051 l 271 1051 l 271 725 q 339 746 301 746 l 495 746 q 699 543 699 746 l 699 203 q 495 0 699 0 l 339 0 z "},"ÿ":{"ha":800,"x_min":102,"x_max":665,"o":"m 305 0 q 102 203 102 0 l 102 712 l 231 773 l 237 773 l 237 203 q 305 122 237 122 l 461 122 q 529 203 529 122 l 529 712 l 658 773 l 665 773 l 665 -75 q 461 -278 665 -278 l 172 -278 l 172 -271 l 227 -156 l 461 -156 q 529 -75 529 -156 l 529 20 q 461 0 503 0 l 305 0 m 429 896 q 417 908 429 896 q 405 955 405 920 q 429 1013 405 989 q 486 1038 452 1038 q 544 1013 520 1038 q 568 955 568 989 q 544 896 568 920 q 486 871 520 871 q 429 896 452 871 m 225 896 q 213 908 225 896 q 201 955 201 920 q 225 1013 201 989 q 283 1038 249 1038 q 340 1013 317 1038 q 364 955 364 989 q 340 896 364 920 q 283 871 317 871 q 225 896 249 871 z "},"Ā":{"ha":956,"x_min":136,"x_max":821,"o":"m 136 -27 l 136 787 q 373 1024 136 1024 l 583 1024 q 821 787 821 1024 l 821 34 l 692 -27 l 685 -27 l 685 450 l 271 450 l 271 34 l 142 -27 l 136 -27 m 271 574 l 685 574 l 685 787 q 583 902 685 902 l 373 902 q 271 787 271 902 l 271 574 m 317 1111 l 317 1118 l 372 1234 l 682 1234 l 682 1227 l 627 1111 l 317 1111 z "},"ā":{"ha":719,"x_min":68,"x_max":617,"o":"m 271 122 l 414 122 q 481 203 481 122 l 481 296 q 414 378 481 378 l 271 378 q 203 296 203 378 l 203 203 q 271 122 203 122 m 271 0 q 68 203 68 0 l 68 296 q 271 500 68 500 l 414 500 q 481 479 449 500 l 481 543 q 414 624 481 624 l 171 624 l 171 631 l 225 746 l 414 746 q 617 543 617 746 l 617 34 l 488 -27 l 481 -27 l 481 20 q 414 0 456 0 l 271 0 m 203 836 l 203 842 l 258 959 l 569 959 l 569 952 l 514 836 l 203 836 z "},"Ă":{"ha":956,"x_min":136,"x_max":821,"o":"m 136 -27 l 136 787 q 373 1024 136 1024 l 583 1024 q 821 787 821 1024 l 821 34 l 692 -27 l 685 -27 l 685 450 l 271 450 l 271 34 l 142 -27 l 136 -27 m 271 574 l 685 574 l 685 787 q 583 902 685 902 l 373 902 q 271 787 271 902 l 271 574 m 317 1213 l 317 1219 l 368 1320 q 484 1230 416 1230 q 601 1320 552 1230 l 652 1219 l 652 1213 q 483 1111 583 1111 q 317 1213 378 1111 z "},"ă":{"ha":719,"x_min":68,"x_max":617,"o":"m 271 122 l 414 122 q 481 203 481 122 l 481 296 q 414 378 481 378 l 271 378 q 203 296 203 378 l 203 203 q 271 122 203 122 m 271 0 q 68 203 68 0 l 68 296 q 271 500 68 500 l 414 500 q 481 479 449 500 l 481 543 q 414 624 481 624 l 171 624 l 171 631 l 225 746 l 414 746 q 617 543 617 746 l 617 34 l 488 -27 l 481 -27 l 481 20 q 414 0 456 0 l 271 0 m 203 937 l 203 944 l 254 1045 q 370 954 302 954 q 487 1045 438 954 l 538 944 l 538 937 q 369 836 469 836 q 203 937 264 836 z "},"Ą":{"ha":956,"x_min":136,"x_max":821,"o":"m 136 -27 l 136 787 q 373 1024 136 1024 l 583 1024 q 821 787 821 1024 l 821 34 l 699 -24 q 675 -103 675 -64 q 766 -244 675 -185 l 637 -305 l 631 -305 q 557 -140 557 -233 q 685 56 557 -26 l 685 450 l 271 450 l 271 34 l 142 -27 l 136 -27 m 271 574 l 685 574 l 685 787 q 583 902 685 902 l 373 902 q 271 787 271 902 l 271 574 z "},"ą":{"ha":719,"x_min":68,"x_max":629,"o":"m 271 0 q 68 203 68 0 l 68 296 q 271 500 68 500 l 414 500 q 481 479 449 500 l 481 543 q 414 624 481 624 l 171 624 l 171 631 l 225 746 l 414 746 q 617 543 617 746 l 617 34 l 597 24 q 538 -103 538 -42 q 629 -244 538 -185 l 500 -305 l 494 -305 q 420 -140 420 -233 q 481 3 420 -61 l 481 20 q 414 0 456 0 l 271 0 m 271 122 l 414 122 q 481 203 481 122 l 481 296 q 414 378 481 378 l 271 378 q 203 296 203 378 l 203 203 q 271 122 203 122 z "},"Ć":{"ha":956,"x_min":136,"x_max":821,"o":"m 373 0 q 136 237 136 0 l 136 787 q 373 1024 136 1024 l 583 1024 q 821 787 821 1024 l 821 712 l 692 651 l 685 651 l 685 787 q 583 902 685 902 l 373 902 q 271 787 271 902 l 271 237 q 373 122 271 122 l 583 122 q 685 237 685 122 l 685 312 l 814 373 l 821 373 l 821 237 q 583 0 821 0 l 373 0 m 554 1333 l 561 1333 l 680 1276 l 530 1062 l 524 1062 l 444 1099 l 554 1333 z "},"ć":{"ha":766,"x_min":102,"x_max":665,"o":"m 305 0 q 102 203 102 0 l 102 543 q 305 746 102 746 l 461 746 q 665 543 665 746 l 665 507 l 536 446 l 529 446 l 529 543 q 461 624 529 624 l 305 624 q 237 543 237 624 l 237 203 q 305 122 237 122 l 461 122 q 529 203 529 122 l 529 239 l 658 300 l 665 300 l 665 203 q 461 0 665 0 l 305 0 m 463 1062 l 470 1062 l 589 1005 l 439 791 l 433 791 l 353 828 l 463 1062 z "},"Ĉ":{"ha":956,"x_min":136,"x_max":821,"o":"m 373 0 q 136 237 136 0 l 136 787 q 373 1024 136 1024 l 583 1024 q 821 787 821 1024 l 821 712 l 692 651 l 685 651 l 685 787 q 583 902 685 902 l 373 902 q 271 787 271 902 l 271 237 q 373 122 271 122 l 583 122 q 685 237 685 122 l 685 312 l 814 373 l 821 373 l 821 237 q 583 0 821 0 l 373 0 m 294 1099 l 398 1276 l 517 1333 l 524 1333 l 669 1099 l 590 1062 l 583 1062 l 481 1203 l 381 1062 l 374 1062 l 294 1099 z "},"ĉ":{"ha":766,"x_min":102,"x_max":665,"o":"m 305 0 q 102 203 102 0 l 102 543 q 305 746 102 746 l 461 746 q 665 543 665 746 l 665 507 l 536 446 l 529 446 l 529 543 q 461 624 529 624 l 305 624 q 237 543 237 624 l 237 203 q 305 122 237 122 l 461 122 q 529 203 529 122 l 529 239 l 658 300 l 665 300 l 665 203 q 461 0 665 0 l 305 0 m 199 828 l 303 1005 l 422 1062 l 429 1062 l 574 828 l 495 791 l 488 791 l 387 932 l 286 791 l 279 791 l 199 828 z "},"Ċ":{"ha":956,"x_min":136,"x_max":821,"o":"m 373 0 q 136 237 136 0 l 136 787 q 373 1024 136 1024 l 583 1024 q 821 787 821 1024 l 821 712 l 692 651 l 685 651 l 685 787 q 583 902 685 902 l 373 902 q 271 787 271 902 l 271 237 q 373 122 271 122 l 583 122 q 685 237 685 122 l 685 312 l 814 373 l 821 373 l 821 237 q 583 0 821 0 l 373 0 m 420 1164 q 409 1176 420 1164 q 397 1222 397 1188 q 420 1281 397 1257 q 478 1305 444 1305 q 536 1281 512 1305 q 559 1222 559 1257 q 536 1164 559 1188 q 478 1139 512 1139 q 420 1164 444 1139 z "},"ċ":{"ha":766,"x_min":102,"x_max":665,"o":"m 305 0 q 102 203 102 0 l 102 543 q 305 746 102 746 l 461 746 q 665 543 665 746 l 665 507 l 536 446 l 529 446 l 529 543 q 461 624 529 624 l 305 624 q 237 543 237 624 l 237 203 q 305 122 237 122 l 461 122 q 529 203 529 122 l 529 239 l 658 300 l 665 300 l 665 203 q 461 0 665 0 l 305 0 m 326 896 q 314 908 326 896 q 302 955 302 920 q 326 1013 302 989 q 383 1038 349 1038 q 441 1013 417 1038 q 465 955 465 989 q 441 896 465 920 q 383 871 417 871 q 326 896 349 871 z "},"Č":{"ha":956,"x_min":136,"x_max":821,"o":"m 373 0 q 136 237 136 0 l 136 787 q 373 1024 136 1024 l 583 1024 q 821 787 821 1024 l 821 712 l 692 651 l 685 651 l 685 787 q 583 902 685 902 l 373 902 q 271 787 271 902 l 271 237 q 373 122 271 122 l 583 122 q 685 237 685 122 l 685 312 l 814 373 l 821 373 l 821 237 q 583 0 821 0 l 373 0 m 439 1062 l 294 1296 l 373 1333 l 380 1333 l 481 1192 l 582 1333 l 589 1333 l 669 1296 l 565 1119 l 446 1062 l 439 1062 z "},"č":{"ha":766,"x_min":102,"x_max":665,"o":"m 305 0 q 102 203 102 0 l 102 543 q 305 746 102 746 l 461 746 q 665 543 665 746 l 665 507 l 536 446 l 529 446 l 529 543 q 461 624 529 624 l 305 624 q 237 543 237 624 l 237 203 q 305 122 237 122 l 461 122 q 529 203 529 122 l 529 239 l 658 300 l 665 300 l 665 203 q 461 0 665 0 l 305 0 m 326 791 l 181 1025 l 260 1062 l 267 1062 l 368 921 l 469 1062 l 475 1062 l 555 1025 l 452 848 l 332 791 l 326 791 z "},"Ď":{"ha":943,"x_min":136,"x_max":807,"o":"m 271 122 l 570 122 q 671 237 671 122 l 671 787 q 570 902 671 902 l 271 902 l 271 122 m 136 0 l 136 990 l 208 1024 l 570 1024 q 807 787 807 1024 l 807 237 q 570 0 807 0 l 136 0 m 392 1062 l 248 1296 l 326 1333 l 333 1333 l 435 1192 l 535 1333 l 542 1333 l 622 1296 l 518 1119 l 399 1062 l 392 1062 z "},"ď":{"ha":821,"x_min":102,"x_max":922,"o":"m 305 0 q 102 203 102 0 l 102 543 q 305 746 102 746 l 461 746 q 529 725 507 746 l 529 990 l 658 1051 l 665 1051 l 665 203 q 461 0 665 0 l 305 0 m 305 122 l 461 122 q 529 203 529 122 l 529 543 q 461 624 529 624 l 305 624 q 237 543 237 624 l 237 203 q 305 122 237 122 m 796 1062 l 803 1062 l 922 1005 l 772 791 l 766 791 l 686 828 l 796 1062 z "},"Đ":{"ha":943,"x_min":34,"x_max":807,"o":"m 136 0 l 136 450 l 34 450 l 34 457 l 89 574 l 136 574 l 136 990 l 208 1024 l 570 1024 q 807 787 807 1024 l 807 237 q 570 0 807 0 l 136 0 m 271 122 l 570 122 q 671 237 671 122 l 671 787 q 570 902 671 902 l 271 902 l 271 574 l 553 574 l 553 567 l 498 450 l 271 450 l 271 122 z "},"đ":{"ha":800,"x_min":102,"x_max":766,"o":"m 305 0 q 102 203 102 0 l 102 543 q 305 746 102 746 l 461 746 q 529 725 507 746 l 529 826 l 351 826 l 351 833 l 406 949 l 529 949 l 529 990 l 658 1051 l 665 1051 l 665 949 l 766 949 l 766 943 l 711 826 l 665 826 l 665 203 q 461 0 665 0 l 305 0 m 305 122 l 461 122 q 529 203 529 122 l 529 543 q 461 624 529 624 l 305 624 q 237 543 237 624 l 237 203 q 305 122 237 122 z "},"Ē":{"ha":785,"x_min":136,"x_max":751,"o":"m 235 1111 l 235 1118 l 290 1234 l 600 1234 l 600 1227 l 545 1111 l 235 1111 m 136 0 l 136 990 l 208 1024 l 637 1024 l 637 1017 l 583 901 l 271 901 l 271 574 l 637 574 l 637 567 l 583 450 l 271 450 l 271 123 l 751 123 l 751 117 l 696 0 l 136 0 z "},"ē":{"ha":766,"x_min":102,"x_max":665,"o":"m 305 0 q 102 203 102 0 l 102 543 q 305 746 102 746 l 461 746 q 665 543 665 746 l 665 507 l 239 178 q 305 122 249 122 l 461 122 q 529 203 529 122 l 529 239 l 658 300 l 665 300 l 665 203 q 461 0 665 0 l 305 0 m 237 319 l 528 554 q 461 624 524 624 l 305 624 q 237 543 237 624 l 237 319 m 217 836 l 217 842 l 272 959 l 583 959 l 583 952 l 528 836 l 217 836 z "},"Ĕ":{"ha":785,"x_min":136,"x_max":751,"o":"m 229 1213 l 229 1219 l 279 1320 q 396 1230 328 1230 q 513 1320 464 1230 l 564 1219 l 564 1213 q 395 1111 495 1111 q 229 1213 290 1111 m 136 0 l 136 990 l 208 1024 l 637 1024 l 637 1017 l 583 901 l 271 901 l 271 574 l 637 574 l 637 567 l 583 450 l 271 450 l 271 123 l 751 123 l 751 117 l 696 0 l 136 0 z "},"ĕ":{"ha":766,"x_min":102,"x_max":665,"o":"m 305 0 q 102 203 102 0 l 102 543 q 305 746 102 746 l 461 746 q 665 543 665 746 l 665 507 l 239 178 q 305 122 249 122 l 461 122 q 529 203 529 122 l 529 239 l 658 300 l 665 300 l 665 203 q 461 0 665 0 l 305 0 m 237 319 l 528 554 q 461 624 524 624 l 305 624 q 237 543 237 624 l 237 319 m 217 937 l 217 944 l 267 1045 q 384 954 316 954 q 500 1045 452 954 l 552 944 l 552 937 q 382 836 483 836 q 217 937 278 836 z "},"Ė":{"ha":785,"x_min":136,"x_max":751,"o":"m 340 1164 q 328 1176 340 1164 q 316 1222 316 1188 q 340 1281 316 1257 q 397 1305 363 1305 q 455 1281 431 1305 q 479 1222 479 1257 q 455 1164 479 1188 q 397 1139 431 1139 q 340 1164 363 1139 m 136 0 l 136 990 l 208 1024 l 637 1024 l 637 1017 l 583 901 l 271 901 l 271 574 l 637 574 l 637 567 l 583 450 l 271 450 l 271 123 l 751 123 l 751 117 l 696 0 l 136 0 z "},"ė":{"ha":766,"x_min":102,"x_max":665,"o":"m 305 0 q 102 203 102 0 l 102 543 q 305 746 102 746 l 461 746 q 665 543 665 746 l 665 507 l 239 178 q 305 122 249 122 l 461 122 q 529 203 529 122 l 529 239 l 658 300 l 665 300 l 665 203 q 461 0 665 0 l 305 0 m 237 319 l 528 554 q 461 624 524 624 l 305 624 q 237 543 237 624 l 237 319 m 326 896 q 314 908 326 896 q 302 955 302 920 q 326 1013 302 989 q 383 1038 349 1038 q 441 1013 417 1038 q 465 955 465 989 q 441 896 465 920 q 383 871 417 871 q 326 896 349 871 z "},"Ę":{"ha":785,"x_min":136,"x_max":751,"o":"m 136 0 l 136 990 l 208 1024 l 637 1024 l 637 1017 l 583 901 l 271 901 l 271 574 l 637 574 l 637 567 l 583 450 l 271 450 l 271 123 l 751 123 l 751 117 l 696 0 l 675 0 q 635 -103 635 -54 q 726 -244 635 -185 l 597 -305 l 591 -305 q 517 -140 517 -233 q 576 0 517 -62 l 136 0 z "},"ę":{"ha":766,"x_min":102,"x_max":665,"o":"m 305 0 q 102 203 102 0 l 102 543 q 305 746 102 746 l 461 746 q 665 543 665 746 l 665 507 l 239 178 q 305 122 249 122 l 461 122 q 529 203 529 122 l 529 239 l 658 300 l 665 300 l 665 203 q 547 12 665 48 q 481 -103 481 -48 q 572 -244 481 -185 l 443 -305 l 436 -305 q 362 -140 362 -233 q 419 0 362 -67 l 305 0 m 237 319 l 528 554 q 461 624 524 624 l 305 624 q 237 543 237 624 l 237 319 z "},"Ě":{"ha":785,"x_min":136,"x_max":751,"o":"m 361 1062 l 217 1296 l 296 1333 l 302 1333 l 404 1192 l 505 1333 l 511 1333 l 591 1296 l 488 1119 l 368 1062 l 361 1062 m 136 0 l 136 990 l 208 1024 l 637 1024 l 637 1017 l 583 901 l 271 901 l 271 574 l 637 574 l 637 567 l 583 450 l 271 450 l 271 123 l 751 123 l 751 117 l 696 0 l 136 0 z "},"ě":{"ha":766,"x_min":102,"x_max":665,"o":"m 305 0 q 102 203 102 0 l 102 543 q 305 746 102 746 l 461 746 q 665 543 665 746 l 665 507 l 239 178 q 305 122 249 122 l 461 122 q 529 203 529 122 l 529 239 l 658 300 l 665 300 l 665 203 q 461 0 665 0 l 305 0 m 237 319 l 528 554 q 461 624 524 624 l 305 624 q 237 543 237 624 l 237 319 m 326 791 l 181 1025 l 260 1062 l 267 1062 l 368 921 l 469 1062 l 475 1062 l 555 1025 l 452 848 l 332 791 l 326 791 z "},"Ĝ":{"ha":956,"x_min":136,"x_max":821,"o":"m 373 0 q 136 237 136 0 l 136 787 q 373 1024 136 1024 l 583 1024 q 821 787 821 1024 l 821 712 l 692 651 l 685 651 l 685 787 q 583 902 685 902 l 373 902 q 271 787 271 902 l 271 237 q 373 122 271 122 l 583 122 q 685 237 685 122 l 685 450 l 449 450 l 449 457 l 504 574 l 821 574 l 821 237 q 583 0 821 0 l 373 0 m 294 1099 l 398 1276 l 517 1333 l 524 1333 l 669 1099 l 590 1062 l 583 1062 l 481 1203 l 381 1062 l 374 1062 l 294 1099 z "},"ĝ":{"ha":787,"x_min":102,"x_max":665,"o":"m 305 0 q 102 203 102 0 l 102 543 q 305 746 102 746 l 461 746 q 665 543 665 746 l 665 -75 q 461 -278 665 -278 l 172 -278 l 172 -271 l 227 -156 l 461 -156 q 529 -75 529 -156 l 529 20 q 461 0 500 0 l 305 0 m 305 122 l 461 122 q 529 203 529 122 l 529 543 q 461 624 529 624 l 305 624 q 237 543 237 624 l 237 203 q 305 122 237 122 m 199 828 l 303 1005 l 422 1062 l 429 1062 l 574 828 l 495 791 l 488 791 l 387 932 l 286 791 l 279 791 l 199 828 z "},"Ğ":{"ha":956,"x_min":136,"x_max":821,"o":"m 373 0 q 136 237 136 0 l 136 787 q 373 1024 136 1024 l 583 1024 q 821 787 821 1024 l 821 712 l 692 651 l 685 651 l 685 787 q 583 902 685 902 l 373 902 q 271 787 271 902 l 271 237 q 373 122 271 122 l 583 122 q 685 237 685 122 l 685 450 l 449 450 l 449 457 l 504 574 l 821 574 l 821 237 q 583 0 821 0 l 373 0 m 317 1213 l 317 1219 l 368 1320 q 484 1230 416 1230 q 601 1320 552 1230 l 652 1219 l 652 1213 q 483 1111 583 1111 q 317 1213 378 1111 z "},"ğ":{"ha":787,"x_min":102,"x_max":665,"o":"m 305 0 q 102 203 102 0 l 102 543 q 305 746 102 746 l 461 746 q 665 543 665 746 l 665 -75 q 461 -278 665 -278 l 172 -278 l 172 -271 l 227 -156 l 461 -156 q 529 -75 529 -156 l 529 20 q 461 0 500 0 l 305 0 m 305 122 l 461 122 q 529 203 529 122 l 529 543 q 461 624 529 624 l 305 624 q 237 543 237 624 l 237 203 q 305 122 237 122 m 217 937 l 217 944 l 267 1045 q 384 954 316 954 q 500 1045 452 954 l 552 944 l 552 937 q 382 836 483 836 q 217 937 278 836 z "},"Ġ":{"ha":956,"x_min":136,"x_max":821,"o":"m 373 0 q 136 237 136 0 l 136 787 q 373 1024 136 1024 l 583 1024 q 821 787 821 1024 l 821 712 l 692 651 l 685 651 l 685 787 q 583 902 685 902 l 373 902 q 271 787 271 902 l 271 237 q 373 122 271 122 l 583 122 q 685 237 685 122 l 685 450 l 449 450 l 449 457 l 504 574 l 821 574 l 821 237 q 583 0 821 0 l 373 0 m 420 1164 q 409 1176 420 1164 q 397 1222 397 1188 q 420 1281 397 1257 q 478 1305 444 1305 q 536 1281 512 1305 q 559 1222 559 1257 q 536 1164 559 1188 q 478 1139 512 1139 q 420 1164 444 1139 z "},"ġ":{"ha":787,"x_min":102,"x_max":665,"o":"m 305 0 q 102 203 102 0 l 102 543 q 305 746 102 746 l 461 746 q 665 543 665 746 l 665 -75 q 461 -278 665 -278 l 172 -278 l 172 -271 l 227 -156 l 461 -156 q 529 -75 529 -156 l 529 20 q 461 0 500 0 l 305 0 m 305 122 l 461 122 q 529 203 529 122 l 529 543 q 461 624 529 624 l 305 624 q 237 543 237 624 l 237 203 q 305 122 237 122 m 326 896 q 314 908 326 896 q 302 955 302 920 q 326 1013 302 989 q 383 1038 349 1038 q 441 1013 417 1038 q 465 955 465 989 q 441 896 465 920 q 383 871 417 871 q 326 896 349 871 z "},"Ģ":{"ha":956,"x_min":136,"x_max":821,"o":"m 373 0 q 136 237 136 0 l 136 787 q 373 1024 136 1024 l 583 1024 q 821 787 821 1024 l 821 712 l 692 651 l 685 651 l 685 787 q 583 902 685 902 l 373 902 q 271 787 271 902 l 271 237 q 373 122 271 122 l 583 122 q 685 237 685 122 l 685 450 l 449 450 l 449 457 l 504 574 l 821 574 l 821 237 q 583 0 821 0 l 373 0 m 404 -305 l 397 -305 l 278 -248 l 428 -34 l 435 -34 l 514 -71 l 404 -305 z "},"ģ":{"ha":787,"x_min":102,"x_max":665,"o":"m 305 0 q 102 203 102 0 l 102 543 q 305 746 102 746 l 461 746 q 665 543 665 746 l 665 -75 q 461 -278 665 -278 l 172 -278 l 172 -271 l 227 -156 l 461 -156 q 529 -75 529 -156 l 529 20 q 461 0 500 0 l 305 0 m 305 122 l 461 122 q 529 203 529 122 l 529 543 q 461 624 529 624 l 305 624 q 237 543 237 624 l 237 203 q 305 122 237 122 m 463 1062 l 470 1062 l 589 1005 l 439 791 l 433 791 l 353 828 l 463 1062 z "},"Ĥ":{"ha":943,"x_min":136,"x_max":807,"o":"m 294 1099 l 398 1276 l 517 1333 l 524 1333 l 669 1099 l 590 1062 l 583 1062 l 481 1203 l 381 1062 l 374 1062 l 294 1099 m 136 -27 l 136 990 l 264 1051 l 271 1051 l 271 574 l 671 574 l 671 990 l 800 1051 l 807 1051 l 807 34 l 678 -27 l 671 -27 l 671 450 l 271 450 l 271 34 l 142 -27 l 136 -27 z "},"ĥ":{"ha":800,"x_min":136,"x_max":699,"o":"m 136 -27 l 136 990 l 264 1051 l 271 1051 l 271 725 q 339 746 301 746 l 495 746 q 699 543 699 746 l 699 34 l 570 -27 l 563 -27 l 563 543 q 495 624 563 624 l 339 624 q 271 543 271 624 l 271 34 l 142 -27 l 136 -27 m 245 1099 l 349 1276 l 468 1333 l 475 1333 l 619 1099 l 541 1062 l 534 1062 l 432 1203 l 332 1062 l 325 1062 l 245 1099 z "},"Ħ":{"ha":943,"x_min":34,"x_max":909,"o":"m 136 -27 l 136 826 l 34 826 l 34 833 l 89 949 l 136 949 l 136 990 l 264 1051 l 271 1051 l 271 949 l 671 949 l 671 990 l 800 1051 l 807 1051 l 807 949 l 909 949 l 909 943 l 854 826 l 807 826 l 807 34 l 678 -27 l 671 -27 l 671 450 l 271 450 l 271 34 l 142 -27 l 136 -27 m 671 826 l 271 826 l 271 574 l 671 574 l 671 826 z "},"ħ":{"ha":800,"x_min":34,"x_max":699,"o":"m 136 -27 l 136 826 l 34 826 l 34 833 l 89 949 l 136 949 l 136 990 l 264 1051 l 271 1051 l 271 949 l 449 949 l 449 943 l 394 826 l 271 826 l 271 725 q 339 746 301 746 l 495 746 q 699 543 699 746 l 699 34 l 570 -27 l 563 -27 l 563 543 q 495 624 563 624 l 339 624 q 271 543 271 624 l 271 34 l 142 -27 l 136 -27 z "},"Ĩ":{"ha":407,"x_min":33,"x_max":374,"o":"m 136 -27 l 136 990 l 264 1051 l 271 1051 l 271 34 l 142 -27 l 136 -27 m 33 1111 q 128 1305 33 1305 q 221 1257 172 1305 q 272 1224 256 1224 q 295 1273 295 1224 l 370 1305 l 374 1305 q 278 1111 374 1111 q 185 1158 235 1111 q 134 1192 151 1192 q 111 1143 111 1192 l 37 1111 l 33 1111 z "},"ĩ":{"ha":407,"x_min":33,"x_max":374,"o":"m 136 -27 l 136 712 l 264 773 l 271 773 l 271 34 l 142 -27 l 136 -27 m 33 836 q 128 1029 33 1029 q 221 982 172 1029 q 272 949 256 949 q 295 998 295 949 l 370 1029 l 374 1029 q 278 836 374 836 q 185 883 235 836 q 134 916 151 916 q 111 867 111 916 l 37 836 l 33 836 z "},"Ī":{"ha":407,"x_min":20,"x_max":386,"o":"m 136 -27 l 136 990 l 264 1051 l 271 1051 l 271 34 l 142 -27 l 136 -27 m 20 1111 l 20 1118 l 75 1234 l 386 1234 l 386 1227 l 331 1111 l 20 1111 z "},"ī":{"ha":407,"x_min":20,"x_max":386,"o":"m 136 -27 l 136 712 l 264 773 l 271 773 l 271 34 l 142 -27 l 136 -27 m 20 836 l 20 842 l 75 959 l 386 959 l 386 952 l 331 836 l 20 836 z "},"Ĭ":{"ha":407,"x_min":36,"x_max":371,"o":"m 136 -27 l 136 990 l 264 1051 l 271 1051 l 271 34 l 142 -27 l 136 -27 m 36 1213 l 36 1219 l 86 1320 q 203 1230 135 1230 q 319 1320 271 1230 l 371 1219 l 371 1213 q 201 1111 302 1111 q 36 1213 97 1111 z "},"ĭ":{"ha":407,"x_min":36,"x_max":371,"o":"m 136 -27 l 136 712 l 264 773 l 271 773 l 271 34 l 142 -27 l 136 -27 m 36 937 l 36 944 l 86 1045 q 203 954 135 954 q 319 1045 271 954 l 371 944 l 371 937 q 201 836 302 836 q 36 937 97 836 z "},"Į":{"ha":407,"x_min":70,"x_max":279,"o":"m 136 7 l 136 990 l 264 1051 l 271 1051 l 271 34 l 245 22 q 189 -103 189 -44 q 279 -244 189 -185 l 151 -305 l 144 -305 q 70 -140 70 -233 q 136 7 70 -58 z "},"į":{"ha":407,"x_min":70,"x_max":285,"o":"m 146 896 q 134 908 146 896 q 122 955 122 920 q 146 1013 122 989 q 203 1038 170 1038 q 261 1013 237 1038 q 285 955 285 989 q 261 896 285 920 q 203 871 237 871 q 146 896 170 871 m 136 7 l 136 712 l 264 773 l 271 773 l 271 34 l 245 22 q 189 -103 189 -44 q 279 -244 189 -185 l 151 -305 l 144 -305 q 70 -140 70 -233 q 136 7 70 -58 z "},"İ":{"ha":407,"x_min":122,"x_max":285,"o":"m 136 -27 l 136 990 l 264 1051 l 271 1051 l 271 34 l 142 -27 l 136 -27 m 146 1164 q 134 1176 146 1164 q 122 1222 122 1188 q 146 1281 122 1257 q 203 1305 170 1305 q 261 1281 237 1305 q 285 1222 285 1257 q 261 1164 285 1188 q 203 1139 237 1139 q 146 1164 170 1139 z "},"ı":{"ha":407,"x_min":136,"x_max":271,"o":"m 136 -27 l 136 712 l 264 773 l 271 773 l 271 34 l 142 -27 l 136 -27 z "},"Ĳ":{"ha":1189,"x_min":136,"x_max":1053,"o":"m 619 0 q 382 237 382 0 l 382 312 l 511 373 l 517 373 l 517 237 q 619 122 517 122 l 816 122 q 918 237 918 122 l 918 901 l 529 901 l 529 907 l 584 1024 l 1053 1024 l 1053 237 q 816 0 1053 0 l 619 0 m 136 -27 l 136 990 l 264 1051 l 271 1051 l 271 34 l 142 -27 l 136 -27 z "},"ĳ":{"ha":746,"x_min":122,"x_max":624,"o":"m 339 -278 l 339 -271 l 393 -156 l 407 -156 q 475 -75 475 -156 l 475 712 l 604 773 l 610 773 l 610 -75 q 407 -278 610 -278 l 339 -278 m 485 896 q 473 908 485 896 q 461 955 461 920 q 485 1013 461 989 q 543 1038 509 1038 q 600 1013 576 1038 q 624 955 624 989 q 600 896 624 920 q 543 871 576 871 q 485 896 509 871 m 146 896 q 134 908 146 896 q 122 955 122 920 q 146 1013 122 989 q 203 1038 170 1038 q 261 1013 237 1038 q 285 955 285 989 q 261 896 285 920 q 203 871 237 871 q 146 896 170 871 m 136 -27 l 136 712 l 264 773 l 271 773 l 271 34 l 142 -27 l 136 -27 z "},"Ĵ":{"ha":861,"x_min":54,"x_max":726,"o":"m 292 0 q 54 237 54 0 l 54 312 l 183 373 l 190 373 l 190 237 q 292 122 190 122 l 488 122 q 590 237 590 122 l 590 901 l 201 901 l 201 907 l 256 1024 l 726 1024 l 726 237 q 488 0 726 0 l 292 0 m 317 1099 l 421 1276 l 541 1333 l 547 1333 l 692 1099 l 613 1062 l 606 1062 l 505 1203 l 404 1062 l 397 1062 l 317 1099 z "},"ĵ":{"ha":407,"x_min":0,"x_max":391,"o":"m 0 -278 l 0 -271 l 54 -156 l 68 -156 q 136 -75 136 -156 l 136 712 l 264 773 l 271 773 l 271 -75 q 68 -278 271 -278 l 0 -278 m 16 828 l 120 1005 l 239 1062 l 246 1062 l 391 828 l 312 791 l 305 791 l 203 932 l 103 791 l 96 791 l 16 828 z "},"Ķ":{"ha":922,"x_min":136,"x_max":800,"o":"m 136 -27 l 136 355 l 136 990 l 264 1051 l 271 1051 l 271 578 q 304 586 287 583 l 640 1051 l 646 1051 l 766 995 l 463 592 l 563 592 q 800 355 800 592 l 800 34 l 671 -27 l 665 -27 l 665 355 q 563 470 665 470 l 373 470 q 271 355 271 470 l 271 34 l 142 -27 l 136 -27 m 404 -305 l 397 -305 l 278 -248 l 428 -34 l 435 -34 l 514 -71 l 404 -305 z "},"ķ":{"ha":800,"x_min":136,"x_max":699,"o":"m 136 -27 l 136 990 l 264 1051 l 271 1051 l 271 502 q 290 505 280 504 l 555 773 l 562 773 l 681 717 l 454 509 l 495 509 q 699 305 699 509 l 699 34 l 570 -27 l 563 -27 l 563 305 q 495 387 563 387 l 339 387 q 271 305 271 387 l 271 34 l 142 -27 l 136 -27 m 348 -305 l 341 -305 l 222 -248 l 372 -34 l 378 -34 l 458 -71 l 348 -305 z "},"ĸ":{"ha":800,"x_min":136,"x_max":699,"o":"m 136 -27 l 136 712 l 264 773 l 271 773 l 271 502 q 290 505 280 504 l 555 773 l 562 773 l 681 717 l 454 509 l 495 509 q 699 305 699 509 l 699 34 l 570 -27 l 563 -27 l 563 305 q 495 387 563 387 l 339 387 q 271 305 271 387 l 271 34 l 142 -27 l 136 -27 z "},"Ĺ":{"ha":739,"x_min":126,"x_max":736,"o":"m 236 1333 l 243 1333 l 362 1276 l 212 1062 l 205 1062 l 126 1099 l 236 1333 m 136 0 l 136 990 l 264 1051 l 271 1051 l 271 123 l 736 123 l 736 117 l 681 0 l 136 0 z "},"ĺ":{"ha":407,"x_min":126,"x_max":362,"o":"m 236 1333 l 243 1333 l 362 1276 l 212 1062 l 205 1062 l 126 1099 l 236 1333 m 136 -27 l 136 990 l 264 1051 l 271 1051 l 271 34 l 142 -27 l 136 -27 z "},"Ļ":{"ha":739,"x_min":136,"x_max":736,"o":"m 372 -305 l 365 -305 l 245 -248 l 395 -34 l 402 -34 l 481 -71 l 372 -305 m 136 0 l 136 990 l 264 1051 l 271 1051 l 271 123 l 736 123 l 736 117 l 681 0 l 136 0 z "},"ļ":{"ha":407,"x_min":45,"x_max":281,"o":"m 171 -305 l 164 -305 l 45 -248 l 195 -34 l 201 -34 l 281 -71 l 171 -305 m 136 -27 l 136 990 l 264 1051 l 271 1051 l 271 34 l 142 -27 l 136 -27 z "},"Ľ":{"ha":739,"x_min":136,"x_max":736,"o":"m 403 1062 l 410 1062 l 529 1005 l 379 791 l 372 791 l 293 828 l 403 1062 m 136 0 l 136 990 l 264 1051 l 271 1051 l 271 123 l 736 123 l 736 117 l 681 0 l 136 0 z "},"ľ":{"ha":427,"x_min":136,"x_max":529,"o":"m 403 1062 l 410 1062 l 529 1005 l 379 791 l 372 791 l 293 828 l 403 1062 m 136 -27 l 136 990 l 264 1051 l 271 1051 l 271 34 l 142 -27 l 136 -27 z "},"Ŀ":{"ha":739,"x_min":136,"x_max":736,"o":"m 366 618 q 354 630 366 618 q 342 676 342 642 q 366 735 342 711 q 424 760 390 760 q 481 735 458 760 q 505 676 505 711 q 481 618 505 642 q 424 593 458 593 q 366 618 390 593 m 136 0 l 136 990 l 264 1051 l 271 1051 l 271 123 l 736 123 l 736 117 l 681 0 l 136 0 z "},"ŀ":{"ha":451,"x_min":136,"x_max":505,"o":"m 366 618 q 354 630 366 618 q 342 676 342 642 q 366 735 342 711 q 424 760 390 760 q 481 735 458 760 q 505 676 505 711 q 481 618 505 642 q 424 593 458 593 q 366 618 390 593 m 136 -27 l 136 990 l 264 1051 l 271 1051 l 271 34 l 142 -27 l 136 -27 z "},"Ł":{"ha":739,"x_min":136,"x_max":736,"o":"m 136 0 l 136 990 l 264 1051 l 271 1051 l 271 486 l 486 773 l 493 773 l 600 719 l 271 311 l 271 123 l 736 123 l 736 117 l 681 0 l 136 0 z "},"ł":{"ha":491,"x_min":14,"x_max":477,"o":"m 178 -27 l 178 367 l 127 284 l 121 284 l 14 339 l 178 543 l 178 990 l 307 1051 l 313 1051 l 313 690 l 363 773 l 370 773 l 477 719 l 313 515 l 313 34 l 184 -27 l 178 -27 z "},"Ń":{"ha":956,"x_min":136,"x_max":821,"o":"m 136 -27 l 136 787 q 373 1024 136 1024 l 583 1024 q 821 787 821 1024 l 821 34 l 692 -27 l 685 -27 l 685 787 q 583 902 685 902 l 373 902 q 271 787 271 902 l 271 34 l 142 -27 l 136 -27 m 554 1333 l 561 1333 l 680 1276 l 530 1062 l 524 1062 l 444 1099 l 554 1333 z "},"ń":{"ha":766,"x_min":102,"x_max":665,"o":"m 102 -27 l 102 543 q 305 746 102 746 l 461 746 q 665 543 665 746 l 665 34 l 536 -27 l 529 -27 l 529 543 q 461 624 529 624 l 305 624 q 237 543 237 624 l 237 34 l 109 -27 l 102 -27 m 463 1062 l 470 1062 l 589 1005 l 439 791 l 433 791 l 353 828 l 463 1062 z "},"Ņ":{"ha":956,"x_min":136,"x_max":821,"o":"m 136 -27 l 136 787 q 373 1024 136 1024 l 583 1024 q 821 787 821 1024 l 821 34 l 692 -27 l 685 -27 l 685 787 q 583 902 685 902 l 373 902 q 271 787 271 902 l 271 34 l 142 -27 l 136 -27 m 404 -305 l 397 -305 l 278 -248 l 428 -34 l 435 -34 l 514 -71 l 404 -305 z "},"ņ":{"ha":766,"x_min":102,"x_max":665,"o":"m 102 -27 l 102 543 q 305 746 102 746 l 461 746 q 665 543 665 746 l 665 34 l 536 -27 l 529 -27 l 529 543 q 461 624 529 624 l 305 624 q 237 543 237 624 l 237 34 l 109 -27 l 102 -27 m 319 -305 l 313 -305 l 193 -248 l 343 -34 l 350 -34 l 429 -71 l 319 -305 z "},"Ň":{"ha":956,"x_min":136,"x_max":821,"o":"m 136 -27 l 136 787 q 373 1024 136 1024 l 583 1024 q 821 787 821 1024 l 821 34 l 692 -27 l 685 -27 l 685 787 q 583 902 685 902 l 373 902 q 271 787 271 902 l 271 34 l 142 -27 l 136 -27 m 439 1062 l 294 1296 l 373 1333 l 380 1333 l 481 1192 l 582 1333 l 589 1333 l 669 1296 l 565 1119 l 446 1062 l 439 1062 z "},"ň":{"ha":766,"x_min":102,"x_max":665,"o":"m 102 -27 l 102 543 q 305 746 102 746 l 461 746 q 665 543 665 746 l 665 34 l 536 -27 l 529 -27 l 529 543 q 461 624 529 624 l 305 624 q 237 543 237 624 l 237 34 l 109 -27 l 102 -27 m 326 791 l 181 1025 l 260 1062 l 267 1062 l 368 921 l 469 1062 l 475 1062 l 555 1025 l 452 848 l 332 791 l 326 791 z "},"ŉ":{"ha":766,"x_min":33,"x_max":665,"o":"m 102 -27 l 102 543 q 305 746 102 746 l 461 746 q 665 543 665 746 l 665 34 l 536 -27 l 529 -27 l 529 543 q 461 624 529 624 l 305 624 q 237 543 237 624 l 237 34 l 109 -27 l 102 -27 m 142 986 l 149 986 l 269 929 l 119 715 l 112 715 l 33 752 l 142 986 z "},"Ŋ":{"ha":956,"x_min":136,"x_max":821,"o":"m 136 -27 l 136 787 q 373 1024 136 1024 l 583 1024 q 821 787 821 1024 l 821 -75 q 617 -278 821 -278 l 549 -278 l 549 -271 l 604 -156 l 617 -156 q 685 -75 685 -156 l 685 787 q 583 902 685 902 l 373 902 q 271 787 271 902 l 271 34 l 142 -27 l 136 -27 z "},"ŋ":{"ha":766,"x_min":102,"x_max":665,"o":"m 102 -27 l 102 543 q 305 746 102 746 l 461 746 q 665 543 665 746 l 665 -75 q 461 -278 665 -278 l 393 -278 l 393 -271 l 448 -156 l 461 -156 q 529 -75 529 -156 l 529 543 q 461 624 529 624 l 305 624 q 237 543 237 624 l 237 34 l 109 -27 l 102 -27 z "},"Ō":{"ha":956,"x_min":136,"x_max":821,"o":"m 373 122 l 583 122 q 685 237 685 122 l 685 787 q 583 902 685 902 l 373 902 q 271 787 271 902 l 271 237 q 373 122 271 122 m 373 0 q 136 237 136 0 l 136 787 q 373 1024 136 1024 l 583 1024 q 821 787 821 1024 l 821 237 q 583 0 821 0 l 373 0 m 317 1111 l 317 1118 l 372 1234 l 682 1234 l 682 1227 l 627 1111 l 317 1111 z "},"ō":{"ha":766,"x_min":102,"x_max":665,"o":"m 305 122 l 461 122 q 529 203 529 122 l 529 543 q 461 624 529 624 l 305 624 q 237 543 237 624 l 237 203 q 305 122 237 122 m 305 0 q 102 203 102 0 l 102 543 q 305 746 102 746 l 461 746 q 665 543 665 746 l 665 203 q 461 0 665 0 l 305 0 m 217 836 l 217 842 l 272 959 l 583 959 l 583 952 l 528 836 l 217 836 z "},"Ŏ":{"ha":956,"x_min":136,"x_max":821,"o":"m 373 122 l 583 122 q 685 237 685 122 l 685 787 q 583 902 685 902 l 373 902 q 271 787 271 902 l 271 237 q 373 122 271 122 m 373 0 q 136 237 136 0 l 136 787 q 373 1024 136 1024 l 583 1024 q 821 787 821 1024 l 821 237 q 583 0 821 0 l 373 0 m 317 1213 l 317 1219 l 368 1320 q 484 1230 416 1230 q 601 1320 552 1230 l 652 1219 l 652 1213 q 483 1111 583 1111 q 317 1213 378 1111 z "},"ŏ":{"ha":766,"x_min":102,"x_max":665,"o":"m 305 122 l 461 122 q 529 203 529 122 l 529 543 q 461 624 529 624 l 305 624 q 237 543 237 624 l 237 203 q 305 122 237 122 m 305 0 q 102 203 102 0 l 102 543 q 305 746 102 746 l 461 746 q 665 543 665 746 l 665 203 q 461 0 665 0 l 305 0 m 217 937 l 217 944 l 267 1045 q 384 954 316 954 q 500 1045 452 954 l 552 944 l 552 937 q 382 836 483 836 q 217 937 278 836 z "},"Ő":{"ha":956,"x_min":136,"x_max":821,"o":"m 373 122 l 583 122 q 685 237 685 122 l 685 787 q 583 902 685 902 l 373 902 q 271 787 271 902 l 271 237 q 373 122 271 122 m 373 0 q 136 237 136 0 l 136 787 q 373 1024 136 1024 l 583 1024 q 821 787 821 1024 l 821 237 q 583 0 821 0 l 373 0 m 633 1333 l 640 1333 l 759 1276 l 609 1062 l 602 1062 l 523 1099 l 633 1333 m 445 1333 l 452 1333 l 571 1276 l 421 1062 l 414 1062 l 335 1099 l 445 1333 z "},"ő":{"ha":766,"x_min":102,"x_max":665,"o":"m 305 122 l 461 122 q 529 203 529 122 l 529 543 q 461 624 529 624 l 305 624 q 237 543 237 624 l 237 203 q 305 122 237 122 m 305 0 q 102 203 102 0 l 102 543 q 305 746 102 746 l 461 746 q 665 543 665 746 l 665 203 q 461 0 665 0 l 305 0 m 522 1062 l 529 1062 l 648 1005 l 498 791 l 492 791 l 412 828 l 522 1062 m 334 1062 l 341 1062 l 460 1005 l 311 791 l 304 791 l 224 828 l 334 1062 z "},"Œ":{"ha":1334,"x_min":136,"x_max":1300,"o":"m 373 0 q 136 237 136 0 l 136 787 q 373 1024 136 1024 l 583 1024 q 708 987 671 1024 l 757 1024 l 1187 1024 l 1187 1017 l 1132 901 l 821 901 l 821 574 l 1187 574 l 1187 567 l 1132 450 l 821 450 l 821 123 l 1300 123 l 1300 117 l 1245 0 l 685 0 l 685 27 q 583 0 643 0 l 373 0 m 373 122 l 583 122 q 685 237 685 122 l 685 787 q 583 902 685 902 l 373 902 q 271 787 271 902 l 271 237 q 373 122 271 122 z "},"œ":{"ha":1194,"x_min":102,"x_max":1092,"o":"m 305 0 q 102 203 102 0 l 102 543 q 305 746 102 746 l 461 746 q 597 696 555 746 q 732 746 639 746 l 888 746 q 1092 543 1092 746 l 1092 507 l 667 178 q 732 122 676 122 l 888 122 q 956 203 956 122 l 956 239 l 1085 300 l 1092 300 l 1092 203 q 888 0 1092 0 l 732 0 q 597 50 631 0 q 461 0 564 0 l 305 0 m 305 122 l 461 122 q 529 203 529 122 l 529 543 q 461 624 529 624 l 305 624 q 237 543 237 624 l 237 203 q 305 122 237 122 m 665 319 l 956 554 q 888 624 951 624 l 732 624 q 665 543 665 624 l 665 319 z "},"Ŕ":{"ha":925,"x_min":136,"x_max":823,"o":"m 271 902 l 271 468 l 570 468 q 671 583 671 468 l 671 787 q 570 902 671 902 l 271 902 m 136 -27 l 136 990 l 208 1024 l 570 1024 q 807 787 807 1024 l 807 583 q 602 347 807 362 l 823 29 l 704 -27 l 697 -27 l 436 346 l 271 346 l 271 34 l 142 -27 l 136 -27 m 475 1333 l 481 1333 l 601 1276 l 451 1062 l 444 1062 l 365 1099 l 475 1333 z "},"ŕ":{"ha":488,"x_min":102,"x_max":475,"o":"m 102 -27 l 102 543 q 305 746 102 746 l 475 746 l 475 739 l 420 624 l 305 624 q 237 543 237 624 l 237 34 l 109 -27 l 102 -27 m 321 1062 l 328 1062 l 447 1005 l 297 791 l 290 791 l 211 828 l 321 1062 z "},"Ŗ":{"ha":925,"x_min":136,"x_max":823,"o":"m 271 902 l 271 468 l 570 468 q 671 583 671 468 l 671 787 q 570 902 671 902 l 271 902 m 136 -27 l 136 990 l 208 1024 l 570 1024 q 807 787 807 1024 l 807 583 q 602 347 807 362 l 823 29 l 704 -27 l 697 -27 l 436 346 l 271 346 l 271 34 l 142 -27 l 136 -27 m 404 -305 l 397 -305 l 278 -248 l 428 -34 l 435 -34 l 514 -71 l 404 -305 z "},"ŗ":{"ha":488,"x_min":16,"x_max":475,"o":"m 102 -27 l 102 543 q 305 746 102 746 l 475 746 l 475 739 l 420 624 l 305 624 q 237 543 237 624 l 237 34 l 109 -27 l 102 -27 m 142 -305 l 136 -305 l 16 -248 l 166 -34 l 173 -34 l 252 -71 l 142 -305 z "},"Ř":{"ha":925,"x_min":136,"x_max":823,"o":"m 271 902 l 271 468 l 570 468 q 671 583 671 468 l 671 787 q 570 902 671 902 l 271 902 m 136 -27 l 136 990 l 208 1024 l 570 1024 q 807 787 807 1024 l 807 583 q 602 347 807 362 l 823 29 l 704 -27 l 697 -27 l 436 346 l 271 346 l 271 34 l 142 -27 l 136 -27 m 398 1062 l 254 1296 l 332 1333 l 339 1333 l 441 1192 l 541 1333 l 548 1333 l 628 1296 l 524 1119 l 405 1062 l 398 1062 z "},"ř":{"ha":488,"x_min":77,"x_max":475,"o":"m 102 -27 l 102 543 q 305 746 102 746 l 475 746 l 475 739 l 420 624 l 305 624 q 237 543 237 624 l 237 34 l 109 -27 l 102 -27 m 222 791 l 77 1025 l 156 1062 l 163 1062 l 264 921 l 365 1062 l 372 1062 l 452 1025 l 348 848 l 229 791 l 222 791 z "},"Ś":{"ha":902,"x_min":109,"x_max":793,"o":"m 346 0 q 109 237 109 0 l 109 312 l 237 373 l 244 373 l 244 237 q 346 122 244 122 l 556 122 q 658 237 658 122 l 658 380 q 556 495 658 495 l 373 495 q 170 699 170 495 l 170 821 q 373 1024 170 1024 l 529 1024 q 732 821 732 1024 l 732 785 l 604 724 l 597 724 l 597 821 q 529 902 597 902 l 373 902 q 305 821 305 902 l 305 699 q 373 617 305 617 l 556 617 q 793 380 793 617 l 793 237 q 556 0 793 0 l 346 0 m 530 1333 l 536 1333 l 656 1276 l 506 1062 l 499 1062 l 420 1099 l 530 1333 z "},"ś":{"ha":726,"x_min":81,"x_max":644,"o":"m 285 0 q 81 203 81 0 l 81 228 l 210 289 l 217 289 l 217 203 q 285 122 217 122 l 441 122 q 509 203 509 122 l 509 257 q 441 338 509 338 l 313 338 q 110 543 110 338 q 313 746 110 746 l 393 746 q 596 582 596 746 l 467 521 l 460 521 l 460 543 q 393 624 460 624 l 313 624 q 245 543 245 624 q 313 460 245 460 l 441 460 q 644 257 644 460 l 644 203 q 441 0 644 0 l 285 0 m 441 1062 l 448 1062 l 568 1005 l 418 791 l 411 791 l 332 828 l 441 1062 z "},"Ŝ":{"ha":902,"x_min":109,"x_max":793,"o":"m 346 0 q 109 237 109 0 l 109 312 l 237 373 l 244 373 l 244 237 q 346 122 244 122 l 556 122 q 658 237 658 122 l 658 380 q 556 495 658 495 l 373 495 q 170 699 170 495 l 170 821 q 373 1024 170 1024 l 529 1024 q 732 821 732 1024 l 732 785 l 604 724 l 597 724 l 597 821 q 529 902 597 902 l 373 902 q 305 821 305 902 l 305 699 q 373 617 305 617 l 556 617 q 793 380 793 617 l 793 237 q 556 0 793 0 l 346 0 m 264 1099 l 368 1276 l 488 1333 l 494 1333 l 639 1099 l 560 1062 l 553 1062 l 452 1203 l 351 1062 l 345 1062 l 264 1099 z "},"ŝ":{"ha":726,"x_min":81,"x_max":644,"o":"m 285 0 q 81 203 81 0 l 81 228 l 210 289 l 217 289 l 217 203 q 285 122 217 122 l 441 122 q 509 203 509 122 l 509 257 q 441 338 509 338 l 313 338 q 110 543 110 338 q 313 746 110 746 l 393 746 q 596 582 596 746 l 467 521 l 460 521 l 460 543 q 393 624 460 624 l 313 624 q 245 543 245 624 q 313 460 245 460 l 441 460 q 644 257 644 460 l 644 203 q 441 0 644 0 l 285 0 m 179 828 l 283 1005 l 402 1062 l 409 1062 l 553 828 l 475 791 l 468 791 l 366 932 l 266 791 l 259 791 l 179 828 z "},"Ş":{"ha":902,"x_min":109,"x_max":793,"o":"m 346 0 q 109 237 109 0 l 109 312 l 237 373 l 244 373 l 244 237 q 346 122 244 122 l 556 122 q 658 237 658 122 l 658 380 q 556 495 658 495 l 373 495 q 170 699 170 495 l 170 821 q 373 1024 170 1024 l 529 1024 q 732 821 732 1024 l 732 785 l 604 724 l 597 724 l 597 821 q 529 902 597 902 l 373 902 q 305 821 305 902 l 305 699 q 373 617 305 617 l 556 617 q 793 380 793 617 l 793 237 q 556 0 793 0 l 496 0 q 547 -140 547 -58 q 473 -305 547 -233 l 466 -305 l 337 -244 q 428 -103 428 -185 q 395 0 428 -51 l 346 0 z "},"ş":{"ha":726,"x_min":81,"x_max":644,"o":"m 285 0 q 81 203 81 0 l 81 228 l 210 289 l 217 289 l 217 203 q 285 122 217 122 l 441 122 q 509 203 509 122 l 509 257 q 441 338 509 338 l 313 338 q 110 543 110 338 q 313 746 110 746 l 393 746 q 596 582 596 746 l 467 521 l 460 521 l 460 543 q 393 624 460 624 l 313 624 q 245 543 245 624 q 313 460 245 460 l 441 460 q 644 257 644 460 l 644 203 q 441 0 644 0 l 411 0 q 460 -140 460 -58 q 387 -305 460 -233 l 380 -305 l 251 -244 q 342 -103 342 -185 q 310 0 342 -48 l 285 0 z "},"Š":{"ha":902,"x_min":109,"x_max":793,"o":"m 346 0 q 109 237 109 0 l 109 312 l 237 373 l 244 373 l 244 237 q 346 122 244 122 l 556 122 q 658 237 658 122 l 658 380 q 556 495 658 495 l 373 495 q 170 699 170 495 l 170 821 q 373 1024 170 1024 l 529 1024 q 732 821 732 1024 l 732 785 l 604 724 l 597 724 l 597 821 q 529 902 597 902 l 373 902 q 305 821 305 902 l 305 699 q 373 617 305 617 l 556 617 q 793 380 793 617 l 793 237 q 556 0 793 0 l 346 0 m 385 1062 l 241 1296 l 319 1333 l 326 1333 l 428 1192 l 528 1333 l 535 1333 l 615 1296 l 511 1119 l 392 1062 l 385 1062 z "},"š":{"ha":726,"x_min":81,"x_max":644,"o":"m 285 0 q 81 203 81 0 l 81 228 l 210 289 l 217 289 l 217 203 q 285 122 217 122 l 441 122 q 509 203 509 122 l 509 257 q 441 338 509 338 l 313 338 q 110 543 110 338 q 313 746 110 746 l 393 746 q 596 582 596 746 l 467 521 l 460 521 l 460 543 q 393 624 460 624 l 313 624 q 245 543 245 624 q 313 460 245 460 l 441 460 q 644 257 644 460 l 644 203 q 441 0 644 0 l 285 0 m 292 791 l 148 1025 l 227 1062 l 233 1062 l 335 921 l 435 1062 l 442 1062 l 522 1025 l 418 848 l 299 791 l 292 791 z "},"Ţ":{"ha":723,"x_min":3,"x_max":720,"o":"m 294 -27 l 294 901 l 3 901 l 3 907 l 58 1024 l 720 1024 l 720 1017 l 665 901 l 429 901 l 429 35 q 528 -140 528 -40 q 454 -305 528 -233 l 448 -305 l 319 -244 q 410 -103 410 -185 q 367 4 410 -52 l 300 -27 l 294 -27 z "},"ţ":{"ha":518,"x_min":17,"x_max":501,"o":"m 191 -27 l 191 623 l 17 623 l 17 629 l 72 746 l 191 746 l 191 990 l 320 1051 l 327 1051 l 327 746 l 501 746 l 501 739 l 446 623 l 327 623 l 327 35 q 426 -140 426 -40 q 352 -305 426 -233 l 345 -305 l 216 -244 q 307 -103 307 -185 q 264 4 307 -52 l 198 -27 l 191 -27 z "},"Ť":{"ha":723,"x_min":3,"x_max":720,"o":"m 304 1062 l 159 1296 l 238 1333 l 245 1333 l 347 1192 l 447 1333 l 454 1333 l 534 1296 l 430 1119 l 311 1062 l 304 1062 m 294 -27 l 294 901 l 3 901 l 3 907 l 58 1024 l 720 1024 l 720 1017 l 665 901 l 429 901 l 429 34 l 300 -27 l 294 -27 z "},"ť":{"ha":518,"x_min":17,"x_max":589,"o":"m 463 1062 l 470 1062 l 589 1005 l 439 791 l 433 791 l 353 828 l 463 1062 m 191 -27 l 191 623 l 17 623 l 17 629 l 72 746 l 191 746 l 191 990 l 320 1051 l 327 1051 l 327 746 l 501 746 l 501 739 l 446 623 l 327 623 l 327 34 l 198 -27 l 191 -27 z "},"Ŧ":{"ha":723,"x_min":3,"x_max":720,"o":"m 294 -27 l 294 450 l 154 450 l 154 457 l 209 574 l 294 574 l 294 901 l 3 901 l 3 907 l 58 1024 l 720 1024 l 720 1017 l 665 901 l 429 901 l 429 574 l 569 574 l 569 567 l 514 450 l 429 450 l 429 34 l 300 -27 l 294 -27 z "},"ŧ":{"ha":518,"x_min":17,"x_max":501,"o":"m 191 -27 l 191 383 l 52 383 l 52 390 l 106 507 l 191 507 l 191 623 l 17 623 l 17 629 l 72 746 l 191 746 l 191 990 l 320 1051 l 327 1051 l 327 746 l 501 746 l 501 739 l 446 623 l 327 623 l 327 507 l 467 507 l 467 500 l 412 383 l 327 383 l 327 34 l 198 -27 l 191 -27 z "},"Ũ":{"ha":956,"x_min":136,"x_max":821,"o":"m 373 0 q 136 237 136 0 l 136 990 l 264 1051 l 271 1051 l 271 237 q 373 122 271 122 l 583 122 q 685 237 685 122 l 685 990 l 814 1051 l 821 1051 l 821 237 q 583 0 821 0 l 373 0 m 319 1111 q 415 1305 319 1305 q 508 1257 458 1305 q 559 1224 543 1224 q 582 1273 582 1224 l 656 1305 l 661 1305 q 565 1111 661 1111 q 472 1158 522 1111 q 421 1192 437 1192 q 398 1143 398 1192 l 323 1111 l 319 1111 z "},"ũ":{"ha":766,"x_min":102,"x_max":665,"o":"m 305 0 q 102 203 102 0 l 102 712 l 231 773 l 237 773 l 237 203 q 305 122 237 122 l 461 122 q 529 203 529 122 l 529 712 l 658 773 l 665 773 l 665 203 q 461 0 665 0 l 305 0 m 232 836 q 328 1029 232 1029 q 420 982 371 1029 q 471 949 455 949 q 494 998 494 949 l 569 1029 l 573 1029 q 477 836 573 836 q 385 883 434 836 q 334 916 350 916 q 311 867 311 916 l 236 836 l 232 836 z "},"Ū":{"ha":956,"x_min":136,"x_max":821,"o":"m 373 0 q 136 237 136 0 l 136 990 l 264 1051 l 271 1051 l 271 237 q 373 122 271 122 l 583 122 q 685 237 685 122 l 685 990 l 814 1051 l 821 1051 l 821 237 q 583 0 821 0 l 373 0 m 317 1111 l 317 1118 l 372 1234 l 682 1234 l 682 1227 l 627 1111 l 317 1111 z "},"ū":{"ha":766,"x_min":102,"x_max":665,"o":"m 305 0 q 102 203 102 0 l 102 712 l 231 773 l 237 773 l 237 203 q 305 122 237 122 l 461 122 q 529 203 529 122 l 529 712 l 658 773 l 665 773 l 665 203 q 461 0 665 0 l 305 0 m 217 836 l 217 842 l 272 959 l 583 959 l 583 952 l 528 836 l 217 836 z "},"Ŭ":{"ha":956,"x_min":136,"x_max":821,"o":"m 373 0 q 136 237 136 0 l 136 990 l 264 1051 l 271 1051 l 271 237 q 373 122 271 122 l 583 122 q 685 237 685 122 l 685 990 l 814 1051 l 821 1051 l 821 237 q 583 0 821 0 l 373 0 m 317 1213 l 317 1219 l 368 1320 q 484 1230 416 1230 q 601 1320 552 1230 l 652 1219 l 652 1213 q 483 1111 583 1111 q 317 1213 378 1111 z "},"ŭ":{"ha":766,"x_min":102,"x_max":665,"o":"m 305 0 q 102 203 102 0 l 102 712 l 231 773 l 237 773 l 237 203 q 305 122 237 122 l 461 122 q 529 203 529 122 l 529 712 l 658 773 l 665 773 l 665 203 q 461 0 665 0 l 305 0 m 217 937 l 217 944 l 267 1045 q 384 954 316 954 q 500 1045 452 954 l 552 944 l 552 937 q 382 836 483 836 q 217 937 278 836 z "},"Ů":{"ha":956,"x_min":136,"x_max":821,"o":"m 373 0 q 136 237 136 0 l 136 990 l 264 1051 l 271 1051 l 271 237 q 373 122 271 122 l 583 122 q 685 237 685 122 l 685 990 l 814 1051 l 821 1051 l 821 237 q 583 0 821 0 l 373 0 m 570 1110 q 478 1077 532 1077 q 387 1110 424 1077 q 345 1205 345 1147 q 387 1300 345 1261 q 478 1333 422 1333 q 570 1300 532 1333 q 612 1205 612 1263 q 570 1110 612 1147 m 478 1263 q 441 1249 455 1263 q 428 1205 428 1234 q 442 1161 428 1174 q 477 1147 457 1147 q 513 1162 498 1147 q 527 1205 527 1175 q 512 1250 527 1236 q 478 1263 498 1263 z "},"ů":{"ha":766,"x_min":102,"x_max":665,"o":"m 305 0 q 102 203 102 0 l 102 712 l 231 773 l 237 773 l 237 203 q 305 122 237 122 l 461 122 q 529 203 529 122 l 529 712 l 658 773 l 665 773 l 665 203 q 461 0 665 0 l 305 0 m 475 839 q 384 806 438 806 q 292 839 330 806 q 250 934 250 876 q 292 1029 250 990 q 384 1062 328 1062 q 475 1029 438 1062 q 517 934 517 991 q 475 839 517 876 m 384 991 q 347 977 361 991 q 334 934 334 963 q 348 890 334 903 q 383 876 363 876 q 419 891 404 876 q 433 934 433 904 q 418 979 433 964 q 384 991 404 991 z "},"Ű":{"ha":956,"x_min":136,"x_max":821,"o":"m 373 0 q 136 237 136 0 l 136 990 l 264 1051 l 271 1051 l 271 237 q 373 122 271 122 l 583 122 q 685 237 685 122 l 685 990 l 814 1051 l 821 1051 l 821 237 q 583 0 821 0 l 373 0 m 633 1333 l 640 1333 l 759 1276 l 609 1062 l 602 1062 l 523 1099 l 633 1333 m 445 1333 l 452 1333 l 571 1276 l 421 1062 l 414 1062 l 335 1099 l 445 1333 z "},"ű":{"ha":766,"x_min":102,"x_max":665,"o":"m 305 0 q 102 203 102 0 l 102 712 l 231 773 l 237 773 l 237 203 q 305 122 237 122 l 461 122 q 529 203 529 122 l 529 712 l 658 773 l 665 773 l 665 203 q 461 0 665 0 l 305 0 m 522 1062 l 529 1062 l 648 1005 l 498 791 l 492 791 l 412 828 l 522 1062 m 334 1062 l 341 1062 l 460 1005 l 311 791 l 304 791 l 224 828 l 334 1062 z "},"Ų":{"ha":956,"x_min":136,"x_max":821,"o":"m 373 0 q 136 237 136 0 l 136 990 l 264 1051 l 271 1051 l 271 237 q 373 122 271 122 l 583 122 q 685 237 685 122 l 685 990 l 814 1051 l 821 1051 l 821 237 q 647 5 821 35 q 602 -103 602 -41 q 693 -244 602 -185 l 564 -305 l 557 -305 q 484 -140 484 -233 q 533 0 484 -58 l 373 0 z "},"ų":{"ha":766,"x_min":102,"x_max":665,"o":"m 305 0 q 102 203 102 0 l 102 712 l 231 773 l 237 773 l 237 203 q 305 122 237 122 l 461 122 q 529 203 529 122 l 529 712 l 658 773 l 665 773 l 665 203 q 532 7 665 39 q 480 -103 480 -41 q 571 -244 480 -185 l 442 -305 l 435 -305 q 361 -140 361 -233 q 410 0 361 -58 l 305 0 z "},"Ŵ":{"ha":1506,"x_min":136,"x_max":1370,"o":"m 373 0 q 136 237 136 0 l 136 990 l 264 1051 l 271 1051 l 271 237 q 373 122 271 122 l 583 122 q 685 237 685 122 l 685 990 l 814 1051 l 821 1051 l 821 237 q 922 122 821 122 l 1133 122 q 1234 237 1234 122 l 1234 990 l 1363 1051 l 1370 1051 l 1370 237 q 1133 0 1370 0 l 922 0 q 753 65 800 0 q 583 0 699 0 l 373 0 m 558 1099 l 662 1276 l 781 1333 l 788 1333 l 932 1099 l 854 1062 l 847 1062 l 745 1203 l 645 1062 l 638 1062 l 558 1099 z "},"ŵ":{"ha":1194,"x_min":102,"x_max":1092,"o":"m 305 0 q 102 203 102 0 l 102 712 l 231 773 l 237 773 l 237 203 q 305 122 237 122 l 461 122 q 529 203 529 122 l 529 712 l 658 773 l 665 773 l 665 203 q 732 122 665 122 l 888 122 q 956 203 956 122 l 956 712 l 1085 773 l 1092 773 l 1092 203 q 888 0 1092 0 l 732 0 q 597 50 639 0 q 461 0 552 0 l 305 0 m 406 828 l 509 1005 l 629 1062 l 635 1062 l 780 828 l 701 791 l 694 791 l 593 932 l 492 791 l 486 791 l 406 828 z "},"Ŷ":{"ha":888,"x_min":102,"x_max":787,"o":"m 376 -27 l 376 327 l 339 327 q 102 564 102 327 l 102 990 l 231 1051 l 237 1051 l 237 564 q 339 449 237 449 l 549 449 q 651 564 651 449 l 651 990 l 780 1051 l 787 1051 l 787 564 q 549 327 787 327 l 512 327 l 512 34 l 383 -27 l 376 -27 m 264 1099 l 368 1276 l 488 1333 l 494 1333 l 639 1099 l 560 1062 l 553 1062 l 452 1203 l 351 1062 l 345 1062 l 264 1099 z "},"ŷ":{"ha":800,"x_min":102,"x_max":665,"o":"m 305 0 q 102 203 102 0 l 102 712 l 231 773 l 237 773 l 237 203 q 305 122 237 122 l 461 122 q 529 203 529 122 l 529 712 l 658 773 l 665 773 l 665 -75 q 461 -278 665 -278 l 172 -278 l 172 -271 l 227 -156 l 461 -156 q 529 -75 529 -156 l 529 20 q 461 0 503 0 l 305 0 m 199 828 l 303 1005 l 422 1062 l 429 1062 l 574 828 l 495 791 l 488 791 l 387 932 l 286 791 l 279 791 l 199 828 z "},"Ÿ":{"ha":888,"x_min":102,"x_max":787,"o":"m 376 -27 l 376 327 l 339 327 q 102 564 102 327 l 102 990 l 231 1051 l 237 1051 l 237 564 q 339 449 237 449 l 549 449 q 651 564 651 449 l 651 990 l 780 1051 l 787 1051 l 787 564 q 549 327 787 327 l 512 327 l 512 34 l 383 -27 l 376 -27 m 490 1164 q 478 1176 490 1164 q 467 1222 467 1188 q 490 1281 467 1257 q 548 1305 514 1305 q 606 1281 582 1305 q 629 1222 629 1257 q 606 1164 629 1188 q 548 1139 582 1139 q 490 1164 514 1139 m 287 1164 q 275 1176 287 1164 q 263 1222 263 1188 q 287 1281 263 1257 q 345 1305 311 1305 q 402 1281 378 1305 q 426 1222 426 1257 q 402 1164 426 1188 q 345 1139 378 1139 q 287 1164 311 1139 z "},"Ź":{"ha":859,"x_min":102,"x_max":758,"o":"m 474 1333 l 481 1333 l 600 1276 l 450 1062 l 444 1062 l 364 1099 l 474 1333 m 102 0 l 102 7 l 541 901 l 109 901 l 109 907 l 163 1024 l 751 1024 l 751 1017 l 310 123 l 758 123 l 758 117 l 703 0 l 102 0 z "},"ź":{"ha":714,"x_min":68,"x_max":646,"o":"m 408 1062 l 415 1062 l 534 1005 l 385 791 l 378 791 l 298 828 l 408 1062 m 68 0 l 68 7 l 422 623 l 75 623 l 75 629 l 130 746 l 640 746 l 640 739 l 286 123 l 646 123 l 646 117 l 591 0 l 68 0 z "},"Ż":{"ha":859,"x_min":102,"x_max":758,"o":"m 381 1164 q 369 1176 381 1164 q 357 1222 357 1188 q 381 1281 357 1257 q 439 1305 405 1305 q 496 1281 473 1305 q 520 1222 520 1257 q 496 1164 520 1188 q 439 1139 473 1139 q 381 1164 405 1139 m 102 0 l 102 7 l 541 901 l 109 901 l 109 907 l 163 1024 l 751 1024 l 751 1017 l 310 123 l 758 123 l 758 117 l 703 0 l 102 0 z "},"ż":{"ha":714,"x_min":68,"x_max":646,"o":"m 307 896 q 295 908 307 896 q 283 955 283 920 q 307 1013 283 989 q 365 1038 331 1038 q 422 1013 399 1038 q 446 955 446 989 q 422 896 446 920 q 365 871 399 871 q 307 896 331 871 m 68 0 l 68 7 l 422 623 l 75 623 l 75 629 l 130 746 l 640 746 l 640 739 l 286 123 l 646 123 l 646 117 l 591 0 l 68 0 z "},"Ž":{"ha":859,"x_min":102,"x_max":758,"o":"m 386 1062 l 241 1296 l 320 1333 l 327 1333 l 429 1192 l 529 1333 l 536 1333 l 616 1296 l 512 1119 l 393 1062 l 386 1062 m 102 0 l 102 7 l 541 901 l 109 901 l 109 907 l 163 1024 l 751 1024 l 751 1017 l 310 123 l 758 123 l 758 117 l 703 0 l 102 0 z "},"ž":{"ha":714,"x_min":68,"x_max":646,"o":"m 326 791 l 181 1025 l 260 1062 l 267 1062 l 368 921 l 469 1062 l 475 1062 l 555 1025 l 452 848 l 332 791 l 326 791 m 68 0 l 68 7 l 422 623 l 75 623 l 75 629 l 130 746 l 640 746 l 640 739 l 286 123 l 646 123 l 646 117 l 591 0 l 68 0 z "},"ſ":{"ha":576,"x_min":34,"x_max":543,"o":"m 170 -27 l 170 555 l 34 555 l 34 562 l 89 678 l 170 678 l 170 821 q 373 1024 170 1024 l 543 1024 l 543 1017 l 488 902 l 373 902 q 305 821 305 902 l 305 34 l 176 -27 l 170 -27 z "},"Ƒ":{"ha":760,"x_min":0,"x_max":637,"o":"m 0 -278 l 0 -271 l 54 -156 l 68 -156 q 136 -75 136 -156 l 136 990 l 208 1024 l 637 1024 l 637 1017 l 583 901 l 271 901 l 271 574 l 637 574 l 637 567 l 583 450 l 271 450 l 271 -75 q 68 -278 271 -278 l 0 -278 z "},"ƒ":{"ha":576,"x_min":0,"x_max":509,"o":"m 0 -278 l 0 -271 l 54 -156 l 68 -156 q 136 -75 136 -156 l 136 555 l 34 555 l 34 562 l 89 678 l 136 678 l 136 821 q 339 1024 136 1024 l 509 1024 l 509 1017 l 454 902 l 339 902 q 271 821 271 902 l 271 678 l 496 678 l 496 671 l 441 555 l 271 555 l 271 -75 q 68 -278 271 -278 l 0 -278 z "},"Ǥ":{"ha":956,"x_min":136,"x_max":922,"o":"m 373 0 q 136 237 136 0 l 136 787 q 373 1024 136 1024 l 583 1024 q 821 787 821 1024 l 821 712 l 692 651 l 685 651 l 685 787 q 583 902 685 902 l 373 902 q 271 787 271 902 l 271 237 q 373 122 271 122 l 583 122 q 685 237 685 122 l 507 237 l 507 244 l 562 361 l 685 361 l 685 450 l 449 450 l 449 457 l 504 574 l 821 574 l 821 361 l 922 361 l 922 354 l 867 237 l 821 237 q 583 0 821 0 l 373 0 z "},"ǥ":{"ha":787,"x_min":102,"x_max":753,"o":"m 305 122 l 461 122 q 529 203 529 122 l 529 316 l 338 316 l 338 323 l 393 439 l 529 439 l 529 543 q 461 624 529 624 l 305 624 q 237 543 237 624 l 237 203 q 305 122 237 122 m 305 0 q 102 203 102 0 l 102 543 q 305 746 102 746 l 461 746 q 665 543 665 746 l 665 439 l 753 439 l 753 433 l 698 316 l 665 316 l 665 -75 q 461 -278 665 -278 l 172 -278 l 172 -271 l 227 -156 l 461 -156 q 529 -75 529 -156 l 529 20 q 461 0 500 0 l 305 0 z "},"Ǽ":{"ha":1334,"x_min":136,"x_max":1300,"o":"m 685 0 l 685 450 l 271 450 l 271 34 l 142 -27 l 136 -27 l 136 787 q 373 1024 136 1024 l 583 1024 q 707 986 669 1024 l 757 1024 l 1187 1024 l 1187 1017 l 1132 901 l 821 901 l 821 574 l 1187 574 l 1187 567 l 1132 450 l 821 450 l 821 123 l 1300 123 l 1300 117 l 1245 0 l 685 0 m 271 574 l 685 574 l 685 787 q 583 902 685 902 l 373 902 q 271 787 271 902 l 271 574 m 729 1333 l 736 1333 l 855 1276 l 705 1062 l 699 1062 l 619 1099 l 729 1333 z "},"ǽ":{"ha":1146,"x_min":68,"x_max":1044,"o":"m 271 122 l 414 122 q 481 203 481 122 l 481 296 q 414 378 481 378 l 271 378 q 203 296 203 378 l 203 203 q 271 122 203 122 m 271 0 q 68 203 68 0 l 68 296 q 271 500 68 500 l 414 500 q 481 479 449 500 l 481 543 q 414 624 481 624 l 171 624 l 171 631 l 225 746 l 414 746 q 549 696 503 746 q 685 746 595 746 l 841 746 q 1044 543 1044 746 l 1044 507 l 619 178 q 685 122 629 122 l 841 122 q 909 203 909 122 l 909 239 l 1038 300 l 1044 300 l 1044 203 q 841 0 1044 0 l 685 0 q 589 23 643 0 l 488 -27 l 481 -27 l 481 20 q 414 0 456 0 l 271 0 m 617 319 l 908 554 q 841 624 904 624 l 685 624 q 617 543 617 624 l 617 319 m 617 1062 l 624 1062 l 743 1005 l 593 791 l 587 791 l 507 828 l 617 1062 z "},"Ǿ":{"ha":956,"x_min":136,"x_max":821,"o":"m 373 0 q 291 9 328 0 l 274 -27 l 267 -27 l 197 7 l 214 43 q 136 237 136 101 l 136 787 q 373 1024 136 1024 l 583 1024 q 665 1015 629 1024 l 682 1051 l 689 1051 l 760 1017 l 743 981 q 821 787 821 922 l 821 237 q 583 0 821 0 l 373 0 m 373 122 l 583 122 q 685 237 685 122 l 685 787 q 677 840 685 818 l 345 125 q 373 122 357 122 m 279 183 l 612 899 q 583 902 599 902 l 373 902 q 271 787 271 902 l 271 237 q 279 183 271 206 m 554 1333 l 561 1333 l 680 1276 l 530 1062 l 524 1062 l 444 1099 l 554 1333 z "},"ǿ":{"ha":766,"x_min":102,"x_max":665,"o":"m 305 0 q 258 3 280 0 l 243 -27 l 237 -27 l 166 7 l 178 31 q 102 203 102 79 l 102 543 q 305 746 102 746 l 461 746 q 508 743 486 746 l 522 773 l 529 773 l 600 739 l 589 715 q 665 543 665 667 l 665 203 q 461 0 665 0 l 305 0 m 241 169 l 453 624 l 305 624 q 237 543 237 624 l 237 203 q 241 169 237 184 m 525 577 l 313 122 l 461 122 q 529 203 529 122 l 529 543 q 525 577 529 562 m 463 1062 l 470 1062 l 589 1005 l 439 791 l 433 791 l 353 828 l 463 1062 z "},"Ș":{"ha":902,"x_min":109,"x_max":793,"o":"m 346 0 q 109 237 109 0 l 109 312 l 237 373 l 244 373 l 244 237 q 346 122 244 122 l 556 122 q 658 237 658 122 l 658 380 q 556 495 658 495 l 373 495 q 170 699 170 495 l 170 821 q 373 1024 170 1024 l 529 1024 q 732 821 732 1024 l 732 785 l 604 724 l 597 724 l 597 821 q 529 902 597 902 l 373 902 q 305 821 305 902 l 305 699 q 373 617 305 617 l 556 617 q 793 380 793 617 l 793 237 q 556 0 793 0 l 346 0 m 380 -305 l 374 -305 l 254 -248 l 404 -34 l 411 -34 l 490 -71 l 380 -305 z "},"ș":{"ha":726,"x_min":81,"x_max":644,"o":"m 285 0 q 81 203 81 0 l 81 228 l 210 289 l 217 289 l 217 203 q 285 122 217 122 l 441 122 q 509 203 509 122 l 509 257 q 441 338 509 338 l 313 338 q 110 543 110 338 q 313 746 110 746 l 393 746 q 596 582 596 746 l 467 521 l 460 521 l 460 543 q 393 624 460 624 l 313 624 q 245 543 245 624 q 313 460 245 460 l 441 460 q 644 257 644 460 l 644 203 q 441 0 644 0 l 285 0 m 288 -305 l 281 -305 l 161 -248 l 311 -34 l 318 -34 l 397 -71 l 288 -305 z "},"Ț":{"ha":723,"x_min":3,"x_max":720,"o":"m 323 -305 l 317 -305 l 197 -248 l 347 -34 l 354 -34 l 433 -71 l 323 -305 m 294 -27 l 294 901 l 3 901 l 3 907 l 58 1024 l 720 1024 l 720 1017 l 665 901 l 429 901 l 429 34 l 300 -27 l 294 -27 z "},"ț":{"ha":518,"x_min":17,"x_max":501,"o":"m 240 -305 l 233 -305 l 114 -248 l 264 -34 l 271 -34 l 350 -71 l 240 -305 m 191 -27 l 191 623 l 17 623 l 17 629 l 72 746 l 191 746 l 191 990 l 320 1051 l 327 1051 l 327 746 l 501 746 l 501 739 l 446 623 l 327 623 l 327 34 l 198 -27 l 191 -27 z "},"ȷ":{"ha":407,"x_min":0,"x_max":271,"o":"m 0 -278 l 0 -271 l 54 -156 l 68 -156 q 136 -75 136 -156 l 136 712 l 264 773 l 271 773 l 271 -75 q 68 -278 271 -278 l 0 -278 z "},"Δ":{"ha":808,"x_min":3,"x_max":804,"o":"m 3 0 l 334 996 l 452 1051 l 458 1051 l 804 0 l 3 0 m 186 123 l 621 123 l 406 824 l 186 123 z "},"Π":{"ha":943,"x_min":136,"x_max":807,"o":"m 142 -27 l 136 -27 l 136 990 l 208 1024 l 807 1024 l 807 34 l 678 -27 l 671 -27 l 671 901 l 271 901 l 271 34 l 142 -27 z "},"Σ":{"ha":816,"x_min":68,"x_max":714,"o":"m 68 0 l 410 525 l 68 990 l 140 1024 l 652 1024 l 652 1017 l 597 901 l 282 901 l 568 525 l 292 123 l 714 123 l 714 117 l 659 0 l 68 0 z "},"Ω":{"ha":956,"x_min":102,"x_max":854,"o":"m 102 0 l 102 7 l 157 123 l 302 123 l 302 183 q 136 401 136 215 l 136 787 q 373 1024 136 1024 l 583 1024 q 821 787 821 1024 l 821 401 q 654 183 821 215 l 654 123 l 854 123 l 854 117 l 800 0 l 544 0 l 544 286 l 583 286 q 685 401 685 286 l 685 787 q 583 902 685 902 l 373 902 q 271 787 271 902 l 271 401 q 373 286 271 286 l 412 286 l 412 0 l 102 0 z "},"μ":{"ha":800,"x_min":136,"x_max":699,"o":"m 339 0 q 271 20 299 0 l 271 -244 l 142 -305 l 136 -305 l 136 712 l 264 773 l 271 773 l 271 203 q 339 122 271 122 l 495 122 q 563 203 563 122 l 563 712 l 692 773 l 699 773 l 699 203 q 495 0 699 0 l 339 0 z "},"π":{"ha":834,"x_min":136,"x_max":699,"o":"m 142 -27 l 136 -27 l 136 712 l 208 746 l 699 746 l 699 34 l 570 -27 l 563 -27 l 563 623 l 271 623 l 271 34 l 142 -27 z "},"Ḃ":{"ha":929,"x_min":136,"x_max":807,"o":"m 136 0 l 136 990 l 208 1024 l 543 1024 q 746 821 746 1024 l 746 709 q 707 591 746 635 q 807 391 807 534 l 807 237 q 570 0 807 0 l 136 0 m 271 122 l 570 122 q 671 237 671 122 l 671 391 q 570 506 671 506 l 271 506 l 271 122 m 271 628 l 543 628 q 610 709 610 628 l 610 821 q 543 902 610 902 l 271 902 l 271 628 m 345 1164 q 333 1176 345 1164 q 321 1222 321 1188 q 345 1281 321 1257 q 403 1305 369 1305 q 460 1281 437 1305 q 484 1222 484 1257 q 460 1164 484 1188 q 403 1139 437 1139 q 345 1164 369 1139 z "},"ḃ":{"ha":800,"x_min":136,"x_max":699,"o":"m 339 122 l 495 122 q 563 203 563 122 l 563 543 q 495 624 563 624 l 339 624 q 271 543 271 624 l 271 203 q 339 122 271 122 m 339 0 q 136 203 136 0 l 136 990 l 264 1051 l 271 1051 l 271 725 q 339 746 298 746 l 495 746 q 699 543 699 746 l 699 203 q 495 0 699 0 l 339 0 m 403 896 q 391 908 403 896 q 379 955 379 920 q 403 1013 379 989 q 460 1038 427 1038 q 518 1013 494 1038 q 542 955 542 989 q 518 896 542 920 q 460 871 494 871 q 403 896 427 871 z "},"Ḋ":{"ha":943,"x_min":136,"x_max":807,"o":"m 271 122 l 570 122 q 671 237 671 122 l 671 787 q 570 902 671 902 l 271 902 l 271 122 m 136 0 l 136 990 l 208 1024 l 570 1024 q 807 787 807 1024 l 807 237 q 570 0 807 0 l 136 0 m 359 1164 q 348 1176 359 1164 q 336 1222 336 1188 q 359 1281 336 1257 q 417 1305 383 1305 q 475 1281 451 1305 q 498 1222 498 1257 q 475 1164 498 1188 q 417 1139 451 1139 q 359 1164 383 1139 z "},"ḋ":{"ha":800,"x_min":102,"x_max":665,"o":"m 305 0 q 102 203 102 0 l 102 543 q 305 746 102 746 l 461 746 q 529 725 507 746 l 529 990 l 658 1051 l 665 1051 l 665 203 q 461 0 665 0 l 305 0 m 305 122 l 461 122 q 529 203 529 122 l 529 543 q 461 624 529 624 l 305 624 q 237 543 237 624 l 237 203 q 305 122 237 122 m 258 896 q 247 908 258 896 q 235 955 235 920 q 258 1013 235 989 q 316 1038 282 1038 q 374 1013 350 1038 q 397 955 397 989 q 374 896 397 920 q 316 871 350 871 q 258 896 282 871 z "},"Ḟ":{"ha":760,"x_min":136,"x_max":637,"o":"m 342 1164 q 331 1176 342 1164 q 319 1222 319 1188 q 342 1281 319 1257 q 400 1305 366 1305 q 458 1281 434 1305 q 481 1222 481 1257 q 458 1164 481 1188 q 400 1139 434 1139 q 342 1164 366 1139 m 136 -27 l 136 990 l 208 1024 l 637 1024 l 637 1017 l 583 901 l 271 901 l 271 574 l 637 574 l 637 567 l 583 450 l 271 450 l 271 34 l 142 -27 l 136 -27 z "},"ḟ":{"ha":576,"x_min":34,"x_max":509,"o":"m 136 -27 l 136 555 l 34 555 l 34 562 l 89 678 l 136 678 l 136 821 q 339 1024 136 1024 l 509 1024 l 509 1017 l 454 902 l 339 902 q 271 821 271 902 l 271 678 l 496 678 l 496 671 l 441 555 l 271 555 l 271 34 l 142 -27 l 136 -27 m 254 1164 q 242 1176 254 1164 q 231 1222 231 1188 q 254 1281 231 1257 q 312 1305 278 1305 q 370 1281 346 1305 q 393 1222 393 1257 q 370 1164 393 1188 q 312 1139 346 1139 q 254 1164 278 1139 z "},"Ṁ":{"ha":1506,"x_min":136,"x_max":1370,"o":"m 136 -27 l 136 787 q 373 1024 136 1024 l 583 1024 q 753 959 705 1024 q 922 1024 807 1024 l 1133 1024 q 1370 787 1370 1024 l 1370 34 l 1241 -27 l 1234 -27 l 1234 787 q 1133 902 1234 902 l 922 902 q 821 787 821 902 l 821 34 l 692 -27 l 685 -27 l 685 787 q 583 902 685 902 l 373 902 q 271 787 271 902 l 271 34 l 142 -27 l 136 -27 m 692 1164 q 681 1176 692 1164 q 669 1222 669 1188 q 692 1281 669 1257 q 750 1305 716 1305 q 808 1281 784 1305 q 831 1222 831 1257 q 808 1164 831 1188 q 750 1139 784 1139 q 692 1164 716 1139 z "},"ṁ":{"ha":1194,"x_min":102,"x_max":1092,"o":"m 102 -27 l 102 543 q 305 746 102 746 l 461 746 q 597 696 555 746 q 732 746 642 746 l 888 746 q 1092 543 1092 746 l 1092 34 l 963 -27 l 956 -27 l 956 543 q 888 624 956 624 l 732 624 q 665 543 665 624 l 665 34 l 536 -27 l 529 -27 l 529 543 q 461 624 529 624 l 305 624 q 237 543 237 624 l 237 34 l 109 -27 l 102 -27 m 546 896 q 534 908 546 896 q 522 955 522 920 q 546 1013 522 989 q 604 1038 570 1038 q 661 1013 637 1038 q 685 955 685 989 q 661 896 685 920 q 604 871 637 871 q 546 896 570 871 z "},"Ṗ":{"ha":909,"x_min":136,"x_max":807,"o":"m 136 -27 l 136 990 l 208 1024 l 570 1024 q 807 787 807 1024 l 807 583 q 570 346 807 346 l 271 346 l 271 34 l 142 -27 l 136 -27 m 271 902 l 271 468 l 570 468 q 671 583 671 468 l 671 787 q 570 902 671 902 l 271 902 m 359 1164 q 348 1176 359 1164 q 336 1222 336 1188 q 359 1281 336 1257 q 417 1305 383 1305 q 475 1281 451 1305 q 498 1222 498 1257 q 475 1164 498 1188 q 417 1139 451 1139 q 359 1164 383 1139 z "},"ṗ":{"ha":800,"x_min":136,"x_max":699,"o":"m 339 0 q 271 21 293 0 l 271 -244 l 142 -305 l 136 -305 l 136 543 q 339 746 136 746 l 495 746 q 699 543 699 746 l 699 203 q 495 0 699 0 l 339 0 m 339 122 l 495 122 q 563 203 563 122 l 563 543 q 495 624 563 624 l 339 624 q 271 543 271 624 l 271 203 q 339 122 271 122 m 363 896 q 351 908 363 896 q 339 955 339 920 q 363 1013 339 989 q 420 1038 387 1038 q 478 1013 454 1038 q 502 955 502 989 q 478 896 502 920 q 420 871 454 871 q 363 896 387 871 z "},"Ṡ":{"ha":902,"x_min":109,"x_max":793,"o":"m 346 0 q 109 237 109 0 l 109 312 l 237 373 l 244 373 l 244 237 q 346 122 244 122 l 556 122 q 658 237 658 122 l 658 380 q 556 495 658 495 l 373 495 q 170 699 170 495 l 170 821 q 373 1024 170 1024 l 529 1024 q 732 821 732 1024 l 732 785 l 604 724 l 597 724 l 597 821 q 529 902 597 902 l 373 902 q 305 821 305 902 l 305 699 q 373 617 305 617 l 556 617 q 793 380 793 617 l 793 237 q 556 0 793 0 l 346 0 m 394 1164 q 382 1176 394 1164 q 370 1222 370 1188 q 394 1281 370 1257 q 452 1305 418 1305 q 509 1281 486 1305 q 533 1222 533 1257 q 509 1164 533 1188 q 452 1139 486 1139 q 394 1164 418 1139 z "},"ṡ":{"ha":726,"x_min":81,"x_max":644,"o":"m 285 0 q 81 203 81 0 l 81 228 l 210 289 l 217 289 l 217 203 q 285 122 217 122 l 441 122 q 509 203 509 122 l 509 257 q 441 338 509 338 l 313 338 q 110 543 110 338 q 313 746 110 746 l 393 746 q 596 582 596 746 l 467 521 l 460 521 l 460 543 q 393 624 460 624 l 313 624 q 245 543 245 624 q 313 460 245 460 l 441 460 q 644 257 644 460 l 644 203 q 441 0 644 0 l 285 0 m 304 896 q 293 908 304 896 q 281 955 281 920 q 304 1013 281 989 q 362 1038 328 1038 q 420 1013 396 1038 q 444 955 444 989 q 420 896 444 920 q 362 871 396 871 q 304 896 328 871 z "},"Ṫ":{"ha":723,"x_min":3,"x_max":720,"o":"m 299 1164 q 287 1176 299 1164 q 275 1222 275 1188 q 299 1281 275 1257 q 357 1305 323 1305 q 414 1281 391 1305 q 438 1222 438 1257 q 414 1164 438 1188 q 357 1139 391 1139 q 299 1164 323 1139 m 294 -27 l 294 901 l 3 901 l 3 907 l 58 1024 l 720 1024 l 720 1017 l 665 901 l 429 901 l 429 34 l 300 -27 l 294 -27 z "},"ṫ":{"ha":518,"x_min":17,"x_max":501,"o":"m 191 -27 l 191 623 l 17 623 l 17 629 l 72 746 l 191 746 l 191 990 l 320 1051 l 327 1051 l 327 746 l 501 746 l 501 739 l 446 623 l 327 623 l 327 34 l 198 -27 l 191 -27 m 201 1164 q 190 1176 201 1164 q 178 1222 178 1188 q 201 1281 178 1257 q 259 1305 225 1305 q 317 1281 293 1305 q 340 1222 340 1257 q 317 1164 340 1188 q 259 1139 293 1139 q 201 1164 225 1139 z "},"Ẁ":{"ha":1506,"x_min":136,"x_max":1370,"o":"m 373 0 q 136 237 136 0 l 136 990 l 264 1051 l 271 1051 l 271 237 q 373 122 271 122 l 583 122 q 685 237 685 122 l 685 990 l 814 1051 l 821 1051 l 821 237 q 922 122 821 122 l 1133 122 q 1234 237 1234 122 l 1234 990 l 1363 1051 l 1370 1051 l 1370 237 q 1133 0 1370 0 l 922 0 q 753 65 800 0 q 583 0 699 0 l 373 0 m 713 1333 l 720 1333 l 829 1099 l 750 1062 l 743 1062 l 593 1276 l 713 1333 z "},"ẁ":{"ha":1194,"x_min":102,"x_max":1092,"o":"m 305 0 q 102 203 102 0 l 102 712 l 231 773 l 237 773 l 237 203 q 305 122 237 122 l 461 122 q 529 203 529 122 l 529 712 l 658 773 l 665 773 l 665 203 q 732 122 665 122 l 888 122 q 956 203 956 122 l 956 712 l 1085 773 l 1092 773 l 1092 203 q 888 0 1092 0 l 732 0 q 597 50 639 0 q 461 0 552 0 l 305 0 m 562 1062 l 569 1062 l 679 828 l 600 791 l 593 791 l 443 1005 l 562 1062 z "},"Ẃ":{"ha":1506,"x_min":136,"x_max":1370,"o":"m 373 0 q 136 237 136 0 l 136 990 l 264 1051 l 271 1051 l 271 237 q 373 122 271 122 l 583 122 q 685 237 685 122 l 685 990 l 814 1051 l 821 1051 l 821 237 q 922 122 821 122 l 1133 122 q 1234 237 1234 122 l 1234 990 l 1363 1051 l 1370 1051 l 1370 237 q 1133 0 1370 0 l 922 0 q 753 65 800 0 q 583 0 699 0 l 373 0 m 782 1333 l 789 1333 l 908 1276 l 758 1062 l 751 1062 l 672 1099 l 782 1333 z "},"ẃ":{"ha":1194,"x_min":102,"x_max":1092,"o":"m 305 0 q 102 203 102 0 l 102 712 l 231 773 l 237 773 l 237 203 q 305 122 237 122 l 461 122 q 529 203 529 122 l 529 712 l 658 773 l 665 773 l 665 203 q 732 122 665 122 l 888 122 q 956 203 956 122 l 956 712 l 1085 773 l 1092 773 l 1092 203 q 888 0 1092 0 l 732 0 q 597 50 639 0 q 461 0 552 0 l 305 0 m 622 1062 l 629 1062 l 748 1005 l 598 791 l 591 791 l 512 828 l 622 1062 z "},"Ẅ":{"ha":1506,"x_min":136,"x_max":1370,"o":"m 373 0 q 136 237 136 0 l 136 990 l 264 1051 l 271 1051 l 271 237 q 373 122 271 122 l 583 122 q 685 237 685 122 l 685 990 l 814 1051 l 821 1051 l 821 237 q 922 122 821 122 l 1133 122 q 1234 237 1234 122 l 1234 990 l 1363 1051 l 1370 1051 l 1370 237 q 1133 0 1370 0 l 922 0 q 753 65 800 0 q 583 0 699 0 l 373 0 m 789 1164 q 777 1176 789 1164 q 765 1222 765 1188 q 789 1281 765 1257 q 846 1305 812 1305 q 904 1281 880 1305 q 928 1222 928 1257 q 904 1164 928 1188 q 846 1139 880 1139 q 789 1164 812 1139 m 585 1164 q 573 1176 585 1164 q 562 1222 562 1188 q 585 1281 562 1257 q 643 1305 609 1305 q 701 1281 677 1305 q 724 1222 724 1257 q 701 1164 724 1188 q 643 1139 677 1139 q 585 1164 609 1139 z "},"ẅ":{"ha":1194,"x_min":102,"x_max":1092,"o":"m 305 0 q 102 203 102 0 l 102 712 l 231 773 l 237 773 l 237 203 q 305 122 237 122 l 461 122 q 529 203 529 122 l 529 712 l 658 773 l 665 773 l 665 203 q 732 122 665 122 l 888 122 q 956 203 956 122 l 956 712 l 1085 773 l 1092 773 l 1092 203 q 888 0 1092 0 l 732 0 q 597 50 639 0 q 461 0 552 0 l 305 0 m 635 896 q 624 908 635 896 q 612 955 612 920 q 635 1013 612 989 q 693 1038 659 1038 q 751 1013 727 1038 q 774 955 774 989 q 751 896 774 920 q 693 871 727 871 q 635 896 659 871 m 432 896 q 420 908 432 896 q 408 955 408 920 q 432 1013 408 989 q 490 1038 456 1038 q 547 1013 524 1038 q 571 955 571 989 q 547 896 571 920 q 490 871 524 871 q 432 896 456 871 z "},"Ỳ":{"ha":888,"x_min":102,"x_max":787,"o":"m 376 -27 l 376 327 l 339 327 q 102 564 102 327 l 102 990 l 231 1051 l 237 1051 l 237 564 q 339 449 237 449 l 549 449 q 651 564 651 449 l 651 990 l 780 1051 l 787 1051 l 787 564 q 549 327 787 327 l 512 327 l 512 34 l 383 -27 l 376 -27 m 404 1333 l 411 1333 l 521 1099 l 441 1062 l 435 1062 l 285 1276 l 404 1333 z "},"ỳ":{"ha":800,"x_min":102,"x_max":665,"o":"m 305 0 q 102 203 102 0 l 102 712 l 231 773 l 237 773 l 237 203 q 305 122 237 122 l 461 122 q 529 203 529 122 l 529 712 l 658 773 l 665 773 l 665 -75 q 461 -278 665 -278 l 172 -278 l 172 -271 l 227 -156 l 461 -156 q 529 -75 529 -156 l 529 20 q 461 0 503 0 l 305 0 m 321 1062 l 328 1062 l 437 828 l 358 791 l 351 791 l 201 1005 l 321 1062 z "},"‐":{"ha":823,"x_min":153,"x_max":671,"o":"m 153 450 l 153 457 l 208 574 l 671 574 l 671 567 l 616 450 l 153 450 z "},"‑":{"ha":823,"x_min":153,"x_max":671,"o":"m 153 450 l 153 457 l 208 574 l 671 574 l 671 567 l 616 450 l 153 450 z "},"‒":{"ha":823,"x_min":102,"x_max":722,"o":"m 102 450 l 102 457 l 157 574 l 722 574 l 722 567 l 667 450 l 102 450 z "},"–":{"ha":823,"x_min":102,"x_max":722,"o":"m 102 450 l 102 457 l 157 574 l 722 574 l 722 567 l 667 450 l 102 450 z "},"—":{"ha":823,"x_min":17,"x_max":806,"o":"m 17 450 l 17 457 l 72 574 l 806 574 l 806 567 l 751 450 l 17 450 z "},"―":{"ha":823,"x_min":17,"x_max":806,"o":"m 17 450 l 17 457 l 72 574 l 806 574 l 806 567 l 751 450 l 17 450 z "},"‗":{"ha":823,"x_min":102,"x_max":722,"o":"m 102 -123 l 102 -117 l 157 0 l 722 0 l 722 -7 l 667 -123 l 102 -123 m 102 -278 l 102 -271 l 157 -155 l 722 -155 l 722 -161 l 667 -278 l 102 -278 z "},"‘":{"ha":413,"x_min":102,"x_max":311,"o":"m 268 1051 l 297 1017 q 220 871 220 939 q 311 730 220 789 l 182 669 l 176 669 q 102 834 102 741 q 268 1051 102 964 z "},"’":{"ha":413,"x_min":102,"x_max":311,"o":"m 231 1051 l 237 1051 q 311 886 311 979 q 145 669 311 756 l 116 703 q 193 849 193 781 q 102 990 193 931 l 231 1051 z "},"‚":{"ha":413,"x_min":102,"x_max":311,"o":"m 231 189 l 237 189 q 311 23 311 116 q 145 -194 311 -106 l 116 -160 q 193 -14 193 -82 q 102 127 193 68 l 231 189 z "},"‛":{"ha":413,"x_min":102,"x_max":311,"o":"m 176 1051 l 182 1051 l 311 990 q 220 849 220 931 q 297 703 220 781 l 268 669 q 102 886 102 756 q 176 1051 102 979 z "},"“":{"ha":627,"x_min":102,"x_max":525,"o":"m 268 1051 l 297 1017 q 220 871 220 939 q 311 730 220 789 l 182 669 l 176 669 q 102 834 102 741 q 268 1051 102 964 m 481 1051 l 511 1017 q 434 871 434 939 q 525 730 434 789 l 396 669 l 389 669 q 315 834 315 741 q 481 1051 315 964 z "},"”":{"ha":627,"x_min":102,"x_max":525,"o":"m 444 1051 l 451 1051 q 525 886 525 979 q 359 669 525 756 l 330 703 q 406 849 406 781 q 315 990 406 931 l 444 1051 m 231 1051 l 237 1051 q 311 886 311 979 q 145 669 311 756 l 116 703 q 193 849 193 781 q 102 990 193 931 l 231 1051 z "},"„":{"ha":627,"x_min":102,"x_max":525,"o":"m 444 189 l 451 189 q 525 23 525 116 q 359 -194 525 -106 l 330 -160 q 406 -14 406 -82 q 315 127 406 68 l 444 189 m 231 189 l 237 189 q 311 23 311 116 q 145 -194 311 -106 l 116 -160 q 193 -14 193 -82 q 102 127 193 68 l 231 189 z "},"‟":{"ha":627,"x_min":102,"x_max":525,"o":"m 176 1051 q 182 1051 176 1051 l 311 990 q 220 849 220 931 q 297 703 220 781 l 268 669 q 102 886 102 756 q 176 1051 102 979 m 389 1051 l 396 1051 l 525 990 q 434 849 434 931 q 511 703 434 781 l 481 669 q 315 886 315 756 q 389 1051 315 979 z "},"†":{"ha":823,"x_min":102,"x_max":722,"o":"m 351 -27 l 344 -27 l 344 675 l 102 675 l 102 682 l 157 799 l 344 799 l 344 990 l 473 1051 l 479 1051 l 479 799 l 722 799 l 722 792 l 667 675 l 479 675 l 479 34 l 351 -27 z "},"‡":{"ha":823,"x_min":102,"x_max":722,"o":"m 351 -27 l 344 -27 l 344 225 l 102 225 l 102 232 l 157 349 l 344 349 l 344 675 l 102 675 l 102 682 l 157 799 l 344 799 l 344 990 l 473 1051 l 479 1051 l 479 799 l 722 799 l 722 792 l 667 675 l 479 675 l 479 349 l 722 349 l 722 342 l 667 225 l 479 225 l 479 34 l 351 -27 z "},"•":{"ha":766,"x_min":102,"x_max":665,"o":"m 305 254 q 102 457 102 254 l 102 566 q 305 769 102 769 l 461 769 q 665 566 665 769 l 665 457 q 461 254 665 254 l 305 254 z "},"‣":{"ha":629,"x_min":136,"x_max":562,"o":"m 136 245 l 136 774 l 562 519 l 136 245 z "},"․":{"ha":407,"x_min":122,"x_max":285,"o":"m 146 11 q 134 23 146 11 q 122 70 122 35 q 146 128 122 104 q 203 153 170 153 q 261 128 237 153 q 285 70 285 104 q 261 11 285 35 q 203 -14 237 -14 q 146 11 170 -14 z "},"‥":{"ha":635,"x_min":122,"x_max":513,"o":"m 374 11 q 362 23 374 11 q 350 70 350 35 q 374 128 350 104 q 431 153 397 153 q 489 128 465 153 q 513 70 513 104 q 489 11 513 35 q 431 -14 465 -14 q 374 11 397 -14 m 146 11 q 134 23 146 11 q 122 70 122 35 q 146 128 122 104 q 203 153 170 153 q 261 128 237 153 q 285 70 285 104 q 261 11 285 35 q 203 -14 237 -14 q 146 11 170 -14 z "},"…":{"ha":863,"x_min":122,"x_max":741,"o":"m 602 11 q 590 23 602 11 q 578 70 578 35 q 602 128 578 104 q 659 153 625 153 q 717 128 693 153 q 741 70 741 104 q 717 11 741 35 q 659 -14 693 -14 q 602 11 625 -14 m 374 11 q 362 23 374 11 q 350 70 350 35 q 374 128 350 104 q 431 153 397 153 q 489 128 465 153 q 513 70 513 104 q 489 11 513 35 q 431 -14 465 -14 q 374 11 397 -14 m 146 11 q 134 23 146 11 q 122 70 122 35 q 146 128 122 104 q 203 153 170 153 q 261 128 237 153 q 285 70 285 104 q 261 11 285 35 q 203 -14 237 -14 q 146 11 170 -14 z "},"‧":{"ha":407,"x_min":122,"x_max":285,"o":"m 146 452 q 134 465 146 452 q 122 511 122 477 q 146 570 122 545 q 203 594 170 594 q 261 570 237 594 q 285 511 285 545 q 261 452 285 477 q 203 428 237 428 q 146 452 170 428 z "},"‰":{"ha":2068,"x_min":102,"x_max":1967,"o":"m 1607 122 l 1763 122 q 1831 203 1831 122 l 1831 312 q 1763 393 1831 393 l 1607 393 q 1539 312 1539 393 l 1539 203 q 1607 122 1539 122 m 1607 0 q 1404 203 1404 0 l 1404 312 q 1607 515 1404 515 l 1763 515 q 1967 312 1967 515 l 1967 203 q 1763 0 1967 0 l 1607 0 m 993 122 l 1149 122 q 1217 203 1217 122 l 1217 312 q 1149 393 1217 393 l 993 393 q 925 312 925 393 l 925 203 q 993 122 925 122 m 993 0 q 789 203 789 0 l 789 312 q 993 515 789 515 l 1149 515 q 1352 312 1352 515 l 1352 203 q 1149 0 1352 0 l 993 0 m 305 631 l 461 631 q 529 712 529 631 l 529 821 q 461 902 529 902 l 305 902 q 237 821 237 902 l 237 712 q 305 631 237 631 m 305 509 q 102 712 102 509 l 102 821 q 305 1024 102 1024 l 461 1024 q 665 821 665 1024 l 665 712 q 461 509 665 509 l 305 509 m 534 -27 l 439 19 l 920 1051 l 926 1051 l 1022 1005 l 541 -27 l 534 -27 z "},"′":{"ha":461,"x_min":102,"x_max":359,"o":"m 233 1051 l 240 1051 l 359 994 l 188 718 l 181 718 l 102 755 l 233 1051 z "},"″":{"ha":677,"x_min":102,"x_max":575,"o":"m 449 1051 l 456 1051 l 575 994 l 404 718 l 397 718 l 317 755 l 449 1051 m 233 1051 l 240 1051 l 359 994 l 188 718 l 181 718 l 102 755 l 233 1051 z "},"‴":{"ha":892,"x_min":102,"x_max":791,"o":"m 665 1051 l 671 1051 l 791 994 l 619 718 l 612 718 l 533 755 l 665 1051 m 449 1051 l 456 1051 l 575 994 l 404 718 l 397 718 l 317 755 l 449 1051 m 233 1051 l 240 1051 l 359 994 l 188 718 l 181 718 l 102 755 l 233 1051 z "},"‵":{"ha":461,"x_min":102,"x_max":359,"o":"m 221 1051 l 228 1051 l 359 755 l 280 718 l 273 718 l 102 994 l 221 1051 z "},"‶":{"ha":677,"x_min":102,"x_max":575,"o":"m 221 1051 l 228 1051 l 359 755 l 280 718 l 273 718 l 102 994 l 221 1051 m 437 1051 l 444 1051 l 575 755 l 496 718 l 489 718 l 317 994 l 437 1051 z "},"‷":{"ha":892,"x_min":102,"x_max":791,"o":"m 228 1051 l 359 755 l 280 718 l 273 718 l 102 994 l 221 1051 l 228 1051 m 437 1051 l 444 1051 l 575 755 l 496 718 l 489 718 l 317 994 l 437 1051 m 652 1051 l 659 1051 l 791 755 l 711 718 l 705 718 l 533 994 l 652 1051 z "},"‹":{"ha":558,"x_min":102,"x_max":422,"o":"m 298 206 l 102 537 l 298 871 l 304 871 l 422 815 l 258 539 l 422 262 l 304 206 l 298 206 z "},"›":{"ha":558,"x_min":136,"x_max":456,"o":"m 260 206 l 254 206 l 136 262 l 300 539 l 136 815 l 254 871 l 260 871 l 456 537 l 260 206 z "},"⁃":{"ha":802,"x_min":102,"x_max":701,"o":"m 463 827 l 463 625 l 591 699 l 697 625 l 701 619 l 524 517 l 701 416 l 697 410 l 591 336 l 463 410 l 463 262 l 346 208 l 339 208 l 339 410 l 211 336 l 105 410 l 102 416 l 277 517 l 102 619 l 105 625 l 211 699 l 339 625 l 339 772 l 456 827 l 463 827 z "},"⁄":{"ha":661,"x_min":7,"x_max":654,"o":"m 102 -95 l 7 -49 l 551 1119 l 557 1119 l 654 1073 l 109 -95 l 102 -95 z "},"€":{"ha":1074,"x_min":102,"x_max":939,"o":"m 102 344 l 102 351 l 157 467 l 254 467 l 254 562 l 102 562 l 102 568 l 157 685 l 254 685 l 254 787 q 491 1024 254 1024 l 701 1024 q 939 787 939 1024 l 939 712 l 810 651 l 803 651 l 803 787 q 701 902 803 902 l 491 902 q 389 787 389 902 l 389 685 l 722 685 l 722 678 l 667 562 l 389 562 l 389 467 l 722 467 l 722 460 l 667 344 l 389 344 l 389 237 q 491 122 389 122 l 701 122 q 803 237 803 122 l 803 312 l 932 373 l 939 373 l 939 237 q 701 0 939 0 l 491 0 q 254 237 254 0 l 254 344 l 102 344 z "},"℅":{"ha":1124,"x_min":102,"x_max":1023,"o":"m 783 0 q 647 132 647 0 l 647 397 q 783 529 647 529 l 887 529 q 1023 397 1023 529 l 1023 132 q 887 0 1023 0 l 783 0 m 783 95 q 887 95 783 95 q 921 134 921 95 l 921 395 q 887 434 921 434 l 783 434 q 749 395 749 434 l 749 134 q 783 95 749 95 m 477 716 l 477 631 q 342 495 477 495 l 237 495 q 102 627 102 495 l 102 892 q 237 1024 102 1024 l 342 1024 q 477 888 477 1024 l 477 841 l 400 804 l 376 804 l 376 888 q 342 929 376 929 l 237 929 q 203 890 203 929 l 203 629 q 237 590 203 590 l 342 590 q 376 631 376 590 l 376 679 l 454 716 l 477 716 m 370 -27 l 275 19 l 755 1051 l 762 1051 l 858 1005 l 377 -27 l 370 -27 z "},"ℓ":{"ha":751,"x_min":102,"x_max":616,"o":"m 366 456 q 445 666 407 540 q 494 942 494 830 q 416 745 459 885 q 366 456 366 581 m 102 0 q 231 201 170 99 q 225 301 225 248 q 245 497 225 401 q 391 979 326 904 q 522 1038 442 1038 q 583 1016 557 1038 q 616 907 616 989 q 595 741 616 845 q 354 184 548 503 q 414 79 376 79 q 443 95 427 79 q 486 155 464 117 l 605 155 q 509 27 553 68 q 408 -14 465 -14 q 273 55 321 -14 l 238 0 l 102 0 z "},"™":{"ha":1299,"x_min":102,"x_max":1164,"o":"m 247 465 l 247 928 l 102 928 l 102 953 l 136 1024 l 494 1024 l 494 1000 l 460 928 l 349 928 l 349 501 l 271 465 l 247 465 m 513 465 l 513 888 q 648 1024 513 1024 l 753 1024 q 839 999 809 1024 q 923 1024 870 1024 l 1028 1024 q 1164 888 1164 1024 l 1164 501 l 1086 465 l 1062 465 l 1062 888 q 1028 929 1062 929 l 923 929 q 889 888 889 929 l 889 501 l 812 465 l 787 465 l 787 888 q 753 929 787 929 l 648 929 q 614 888 614 929 l 614 501 l 537 465 l 513 465 z "},"Ω":{"ha":956,"x_min":102,"x_max":854,"o":"m 102 0 l 102 7 l 157 123 l 302 123 l 302 183 q 136 401 136 215 l 136 787 q 373 1024 136 1024 l 583 1024 q 821 787 821 1024 l 821 401 q 654 183 821 215 l 654 123 l 854 123 l 854 117 l 800 0 l 544 0 l 544 286 l 583 286 q 685 401 685 286 l 685 787 q 583 902 685 902 l 373 902 q 271 787 271 902 l 271 401 q 373 286 271 286 l 412 286 l 412 0 l 102 0 z "},"℮":{"ha":921,"x_min":102,"x_max":819,"o":"m 258 373 l 258 121 q 460 39 340 39 q 728 206 633 39 l 777 177 q 620 25 696 60 q 460 -10 544 -10 q 201 98 300 -10 q 102 373 102 207 q 201 648 102 541 q 460 756 301 756 q 709 660 606 756 q 819 373 812 564 l 258 373 m 663 423 l 663 625 q 459 707 576 707 q 258 624 340 707 l 258 423 l 663 423 z "},"∂":{"ha":859,"x_min":102,"x_max":724,"o":"m 311 0 q 160 62 218 0 q 102 235 102 123 q 205 498 102 377 q 530 656 341 656 q 601 654 553 656 q 589 814 601 755 q 546 928 574 890 q 482 968 516 968 q 402 913 437 968 q 352 785 376 873 l 260 825 q 374 978 307 930 q 505 1024 439 1024 q 659 930 594 1024 q 724 645 724 835 q 665 297 724 454 q 507 73 606 145 q 311 0 407 0 m 331 62 q 431 128 381 62 q 519 267 473 182 q 602 588 581 376 q 525 599 575 599 q 378 512 452 599 q 296 394 329 456 q 245 226 245 301 q 258 119 245 158 q 331 62 277 62 z "},"∆":{"ha":808,"x_min":3,"x_max":804,"o":"m 3 0 l 334 996 l 452 1051 l 458 1051 l 804 0 l 3 0 m 186 123 l 621 123 l 406 824 l 186 123 z "},"∏":{"ha":943,"x_min":136,"x_max":807,"o":"m 142 -305 l 136 -305 l 136 990 l 208 1024 l 807 1024 l 807 -244 l 678 -305 l 671 -305 l 671 901 l 271 901 l 271 -244 l 142 -305 z "},"∑":{"ha":816,"x_min":68,"x_max":714,"o":"m 68 -278 l 392 400 l 68 990 l 140 1024 l 652 1024 l 652 1017 l 597 901 l 260 901 l 545 399 l 263 -155 l 714 -155 l 714 -161 l 659 -278 l 68 -278 z "},"−":{"ha":823,"x_min":102,"x_max":722,"o":"m 102 450 l 102 457 l 157 574 l 722 574 l 722 567 l 667 450 l 102 450 z "},"∕":{"ha":661,"x_min":7,"x_max":654,"o":"m 102 -95 l 7 -49 l 551 1119 l 557 1119 l 654 1073 l 109 -95 l 102 -95 z "},"∗":{"ha":802,"x_min":102,"x_max":701,"o":"m 463 827 l 463 625 l 591 699 l 697 625 l 701 619 l 524 517 l 701 416 l 697 410 l 591 336 l 463 410 l 463 262 l 346 208 l 339 208 l 339 410 l 211 336 l 105 410 l 102 416 l 277 517 l 102 619 l 105 625 l 211 699 l 339 625 l 339 772 l 456 827 l 463 827 z "},"∘":{"ha":766,"x_min":102,"x_max":665,"o":"m 305 376 l 461 376 q 529 457 529 376 l 529 566 q 461 647 529 647 l 305 647 q 237 566 237 647 l 237 457 q 305 376 237 376 m 305 254 q 102 457 102 254 l 102 566 q 305 769 102 769 l 461 769 q 665 566 665 769 l 665 457 q 461 254 665 254 l 305 254 z "},"∙":{"ha":407,"x_min":122,"x_max":285,"o":"m 146 452 q 134 465 146 452 q 122 511 122 477 q 146 570 122 545 q 203 594 170 594 q 261 570 237 594 q 285 511 285 545 q 261 452 285 477 q 203 428 237 428 q 146 452 170 428 z "},"√":{"ha":985,"x_min":68,"x_max":951,"o":"m 356 -27 l 349 -27 l 210 386 l 68 386 l 68 393 l 123 509 l 311 509 l 410 184 l 717 1024 l 951 1024 l 951 1017 l 896 901 l 799 901 l 473 28 l 356 -27 z "},"∛":{"ha":985,"x_min":68,"x_max":951,"o":"m 246 1024 l 512 1024 l 411 853 q 496 824 466 852 q 528 734 528 794 l 528 667 q 406 548 528 548 l 311 548 q 189 670 189 548 l 189 713 l 258 746 l 280 746 l 280 670 q 311 633 280 633 l 406 633 q 436 668 436 633 l 436 736 q 406 770 436 770 l 272 770 l 366 938 l 216 938 l 216 960 l 246 1024 m 356 -27 l 349 -27 l 210 386 l 68 386 l 68 393 l 123 509 l 311 509 l 410 184 l 717 1024 l 951 1024 l 951 1017 l 896 901 l 799 901 l 473 28 l 356 -27 z "},"∞":{"ha":1194,"x_min":102,"x_max":1092,"o":"m 305 254 q 102 457 102 254 l 102 566 q 305 769 102 769 l 461 769 q 597 719 560 769 q 732 769 633 769 l 888 769 q 1092 566 1092 769 l 1092 457 q 888 254 1092 254 l 732 254 q 597 304 632 254 q 461 254 562 254 l 305 254 m 305 376 l 461 376 q 529 457 529 376 l 529 566 q 461 647 529 647 l 305 647 q 237 566 237 647 l 237 457 q 305 376 237 376 m 732 376 l 888 376 q 956 457 956 376 l 956 566 q 888 647 956 647 l 732 647 q 665 566 665 647 l 665 457 q 732 376 665 376 z "},"≈":{"ha":772,"x_min":102,"x_max":670,"o":"m 102 269 q 262 514 102 514 q 414 446 353 514 q 500 389 463 389 q 549 459 549 389 l 663 514 l 670 514 q 509 269 670 269 q 358 338 418 269 q 271 394 309 394 q 222 324 222 394 l 109 269 l 102 269 m 102 507 q 262 752 102 752 q 414 684 353 752 q 500 627 463 627 q 549 697 549 627 l 663 752 l 670 752 q 509 507 670 507 q 358 576 418 507 q 271 632 309 632 q 222 562 222 632 l 109 507 l 102 507 z "},"≠":{"ha":823,"x_min":102,"x_max":722,"o":"m 292 136 l 196 182 l 264 327 l 102 327 l 102 334 l 157 450 l 321 450 l 378 574 l 102 574 l 102 581 l 157 697 l 436 697 l 525 888 l 532 888 l 627 842 l 559 697 l 722 697 l 722 690 l 667 574 l 503 574 l 445 450 l 722 450 l 722 444 l 667 327 l 387 327 l 298 136 l 292 136 z "},"≡":{"ha":823,"x_min":102,"x_max":722,"o":"m 102 203 l 102 210 l 157 327 l 722 327 l 722 320 l 667 203 l 102 203 m 102 697 l 102 704 l 157 821 l 722 821 l 722 814 l 667 697 l 102 697 m 102 450 l 102 457 l 157 574 l 722 574 l 722 567 l 667 450 l 102 450 z "},"≤":{"ha":907,"x_min":102,"x_max":772,"o":"m 102 543 l 102 550 l 157 667 l 716 905 l 772 788 l 772 781 l 315 593 l 772 406 l 772 399 l 716 281 l 102 543 m 102 130 l 102 136 l 157 253 l 772 253 l 772 246 l 717 130 l 102 130 z "},"≥":{"ha":907,"x_min":136,"x_max":806,"o":"m 806 655 l 806 648 l 750 531 l 191 293 l 136 410 l 136 417 l 593 605 l 136 793 l 136 800 l 191 917 l 806 655 m 136 130 l 136 136 l 191 253 l 806 253 l 806 246 l 751 130 l 136 130 z "},"◊":{"ha":796,"x_min":81,"x_max":715,"o":"m 408 195 l 576 492 l 393 814 l 222 511 l 408 195 m 398 0 l 81 500 l 398 1024 l 715 503 l 398 0 z "}}}
